<?xml version="1.0" encoding="UTF-8"?><svg id="Capa_2" xmlns="http://www.w3.org/2000/svg" viewBox="0 0 465.65 779.93"><defs><style>.cls-1{fill:#faa100;}.cls-2{fill:#003580;}.cls-3{fill:#002868;}.cls-4{fill:#6a020a;}.cls-5{fill:#6b0008;}.cls-6{fill:#ed2939;}.cls-7{fill:#fff;}.cls-8{fill:#ef2b2d;}.cls-9{fill:red;}.cls-10{fill:#c60c30;}.cls-11{fill:#893339;}</style></defs><g id="Capa_1-2"><g><path class="cls-7" d="M2.31,111.42H155.31v93.5H2.31V111.42Z"/><path class="cls-2" d="M2.31,145.42H155.31v25.5H2.31v-25.5Z"/><path class="cls-2" d="M44.81,111.42h25.5v93.5h-25.5V111.42Z"/></g><g><path class="cls-8" d="M2.31,242.39H155.31v93.5H2.31v-93.5Z"/><path class="cls-7" d="M44.04,242.39h27.82v93.5h-27.82v-93.5Z"/><path class="cls-7" d="M2.31,277.46H155.31v23.38H2.31v-23.38Z"/><path class="cls-3" d="M51,242.39h13.91v93.5h-13.91v-93.5Z"/><path class="cls-3" d="M2.31,283.3H155.31v11.69H2.31v-11.69Z"/></g><g><path class="cls-10" d="M5.15,538.28H158.15v93.5H5.15v-93.5Z"/><path class="cls-7" d="M5.15,578.36H54.78v-40.07h16.54v40.07h86.84v13.36H71.32v40.07h-16.54v-40.07H5.15v-13.36Z"/></g><g><path class="cls-6" d="M2.31,392.49H155.31v93.5H2.31v-93.5Z"/><path class="cls-7" d="M2.31,423.65H155.31v31.17H2.31v-31.17Z"/></g><g><path class="cls-9" d="M0,686.43H153v93.5H0v-93.5Z"/><path class="cls-7" d="M65.76,703.96h21.48v20.45h25.05v17.53h-25.05v20.45h-21.48v-20.45h-25.05v-17.53h25.05v-20.45Z"/></g><g id="eZkQqB.tif"><g><path class="cls-1" d="M218.21,46.15c-.15,1.11-.29,2.22-.45,3.33-1.6,11-6.68,20.1-15.11,27.3-5.97,5.09-12.87,8.27-20.66,9.63v-10.22c9.63-2.45,17.03-7.9,21.92-16.55,4.04-7.16,5.16-14.86,3.52-22.91-3.18-15.59-17.38-26.94-33.15-26.66-16.6,.29-29.27,12.14-32.21,26.19h7.17l-12.42,20.81-12.05-20.76h6.88c.54-2.03,.99-4.01,1.61-5.94,3.1-9.63,8.89-17.28,17.26-22.94C158.38,2.08,167.14-.41,176.62,.05c12.13,.59,22.32,5.49,30.47,14.49,5.87,6.48,9.38,14.12,10.67,22.77,.18,1.17,.3,2.35,.45,3.53v5.31Z"/><path class="cls-2" d="M176.82,86.29h-5.28v-1.04c0-2.84,0-5.68,0-8.51,0-.64-.02-1.28-.1-1.92-.26-2.09-2.6-3.04-4.26-1.7-.24,.2-.34,.69-.34,1.05-.02,3.69-.02,7.38-.02,11.08v1.05h-5.6v-23.82h5.58v8.01c.75-.55,1.36-1.15,2.09-1.52,2.98-1.55,6.53-.05,7.51,3.17,.29,.95,.45,1.97,.47,2.96,.06,3.54,.03,7.08,.02,10.62,0,.18-.04,.36-.07,.59Z"/><path class="cls-2" d="M141.27,81.93v4.37h-16.29c0-1.14-.03-2.24,.02-3.33,.01-.28,.27-.59,.49-.82,2.64-2.88,5.36-5.68,7.89-8.65,.85-1,1.41-2.35,1.79-3.64,.44-1.52-.45-2.89-1.78-3.24-1.72-.46-3.11,.55-3.43,2.47-.06,.36-.08,.72-.13,1.14h-5.28c-.33-2.57,1.22-5.6,3.56-6.85,3.05-1.63,6.2-1.55,9.23-.04,3.61,1.8,4.65,6.99,2.04,10.28-2,2.53-4.23,4.88-6.36,7.31-.23,.26-.46,.53-.86,.98h9.11Z"/><path class="cls-2" d="M156.48,62.74v14.48h2.4v4.07h-2.41v4.99h-5.36v-4.96h-9.29c-.09-1.11-.21-2.13-.25-3.17-.01-.24,.16-.51,.3-.74,2.93-4.71,5.86-9.41,8.83-14.09,.18-.29,.65-.54,.99-.55,1.55-.06,3.1-.03,4.79-.03Zm-5.45,7.17l-.21-.06-4.39,7.3h4.6v-7.25Z"/><path class="cls-1" d="M169.11,20.56h4.92v23.57h13.2v5.03h-18.12V20.56Z"/></g></g><g><g id="kJUdo5"><g><path class="cls-11" d="M360.35,285.44c7.71,0,15.41,0,23.12,0,.4,0,.54,.09,.52,.5-.05,.93-.05,1.86-.08,2.8-.02,.5,.04,.56,.55,.51,1.87-.18,3.68,.03,5.31,1.02,1.67,1.01,2.5,2.55,2.56,4.5,.04,1.29,.04,2.57-.55,3.78-.87,1.8-2.29,3.03-4.05,3.9-2.16,1.06-4.47,1.53-6.85,1.68-.59,.04-.99,.25-1.35,.7-2.37,2.99-5.5,4.8-9.12,5.83-.5,.14-1.02,.17-1.54,.17-5.78,0-11.56,0-17.34,0-.48,0-.94-.08-1.39-.23-2.23-.74-4.39-1.62-6.26-3.07-2.92-2.27-4.69-5.28-5.71-8.78-.71-2.44-1.03-4.95-1.24-7.48-.15-1.79-.19-3.58-.19-5.37,0-.37,.09-.46,.46-.46,7.72,.01,15.44,0,23.16,0Zm24.58,7.27c-.16,.01-.47,.04-.78,.05-.34,.01-.49,.18-.54,.52-.12,.84-.27,1.67-.4,2.5-.23,1.47-.62,2.89-1.05,4.31-.05,.17-.2,.4,.19,.34,1.71-.27,3.36-.72,4.81-1.72,1.21-.84,1.83-1.98,1.78-3.47-.04-1.27-.64-2.05-1.88-2.36-.65-.16-1.31-.23-2.13-.16Z"/><path class="cls-11" d="M341.49,312.22h.53c12.88,0,25.76,0,38.64,0,.57,0,.6,.04,.46,.61-.25,1.02-1.15,1.68-2.37,1.7-1.44,.02-2.88,0-4.31,0-.89,0-1.78,0-2.67,0-.26,0-.47,.07-.57,.33-.26,.65-.78,.83-1.43,.83-2.24,0-4.48,0-6.71,0-3.32,0-6.64,0-9.96,0-.72,0-1.31-.18-1.64-.89-.14-.31-.47-.27-.75-.27-2.19,0-4.39,0-6.58,0-1.58,0-2.41-.72-2.65-2.31Z"/><path class="cls-11" d="M356.19,283.6c.24-.26,.41-.45,.59-.64,1.19-1.25,1.43-2.67,.79-4.26-.38-.95-.94-1.81-1.48-2.68-.78-1.26-1.48-2.57-1.74-4.05-.41-2.33,.24-4.33,1.91-6,1.5-1.49,4.18-3,6.11-3.39-.4,.37-.74,.67-1.07,.98-1.65,1.54-2.62,3.39-2.51,5.7,.07,1.4,.56,2.68,1.12,3.95,.62,1.41,1.31,2.79,1.75,4.26,.73,2.43-.19,4.35-2.54,5.31-.91,.37-1.85,.68-2.94,.81Z"/><path class="cls-11" d="M362.43,282.75c.96-.8,1.59-1.72,1.66-2.96,.03-.6-.07-1.18-.27-1.74-.28-.76-.6-1.51-.89-2.27-.71-1.9,.62-3.58,2.74-3.37-1.17,.91-.9,1.96-.4,3.05,.32,.7,.65,1.39,.94,2.1,.58,1.45,.31,2.68-.82,3.76-.71,.68-1.54,1.14-2.48,1.42-.14,.04-.28,.08-.48,0Z"/></g></g><path class="cls-5" d="M389.04,296.56c-.26,.83-.8,1.52-1.59,2.07-1.45,1-3.1,1.45-4.81,1.72-.39,.06-.24-.17-.19-.34,.35-1.14,.66-2.28,.89-3.45h-45.4c.15,.71,.31,1.41,.51,2.1,1.02,3.5,2.79,6.51,5.71,8.78,1.88,1.46,4.03,2.34,6.26,3.07,.46,.15,.91,.23,1.39,.23,5.78,0,11.56,0,17.34,0,.52,0,1.04-.02,1.54-.17,3.62-1.03,6.76-2.84,9.12-5.83,.36-.46,.76-.67,1.35-.7,2.38-.14,4.69-.62,6.85-1.68,1.76-.87,3.18-2.09,4.05-3.9,.3-.62,.44-1.26,.51-1.91h-3.54Z"/><path class="cls-4" d="M341.64,312.22h.53c12.88,0,25.76,0,38.64,0,.57,0,.6,.04,.46,.61-.25,1.02-1.15,1.68-2.37,1.7-1.44,.02-2.88,0-4.31,0-.89,0-1.78,0-2.67,0-.26,0-.47,.07-.57,.33-.26,.65-.78,.83-1.43,.83-2.24,0-4.48,0-6.71,0-3.32,0-6.64,0-9.96,0-.72,0-1.31-.18-1.64-.89-.14-.31-.47-.27-.75-.27-2.19,0-4.39,0-6.58,0-1.58,0-2.41-.72-2.65-2.31Z"/></g><g id="kJUdo5-2"><g><path class="cls-5" d="M214.09,154.47c7.71,0,15.41,0,23.12,0,.4,0,.54,.09,.52,.5-.05,.93-.05,1.86-.08,2.8-.02,.5,.04,.56,.55,.51,1.87-.18,3.68,.03,5.31,1.02,1.67,1.01,2.5,2.55,2.56,4.5,.04,1.29,.04,2.57-.55,3.78-.87,1.8-2.29,3.03-4.05,3.9-2.16,1.06-4.47,1.53-6.85,1.68-.59,.04-.99,.25-1.35,.7-2.37,2.99-5.5,4.8-9.12,5.83-.5,.14-1.02,.17-1.54,.17-5.78,0-11.56,0-17.34,0-.48,0-.94-.08-1.39-.23-2.23-.74-4.39-1.62-6.26-3.07-2.92-2.27-4.69-5.28-5.71-8.78-.71-2.44-1.03-4.95-1.24-7.48-.15-1.79-.19-3.58-.19-5.37,0-.37,.09-.46,.46-.46,7.72,.01,15.44,0,23.16,0Zm24.58,7.27c-.16,.01-.47,.04-.78,.05-.34,.01-.49,.18-.54,.52-.12,.84-.27,1.67-.4,2.5-.23,1.47-.62,2.89-1.05,4.31-.05,.17-.2,.4,.19,.34,1.71-.27,3.36-.72,4.81-1.72,1.21-.84,1.83-1.98,1.78-3.47-.04-1.27-.64-2.05-1.88-2.36-.65-.16-1.31-.23-2.13-.16Z"/><path class="cls-4" d="M195.23,181.25h.53c12.88,0,25.76,0,38.64,0,.57,0,.6,.04,.46,.61-.25,1.02-1.15,1.68-2.37,1.7-1.44,.02-2.88,0-4.31,0-.89,0-1.78,0-2.67,0-.26,0-.47,.07-.57,.33-.26,.65-.78,.83-1.43,.83-2.24,0-4.48,0-6.71,0-3.32,0-6.64,0-9.96,0-.72,0-1.31-.18-1.64-.89-.14-.31-.47-.27-.75-.27-2.19,0-4.39,0-6.58,0-1.58,0-2.41-.72-2.65-2.31Z"/><path class="cls-4" d="M209.93,152.63c.24-.26,.41-.45,.59-.64,1.19-1.25,1.43-2.67,.79-4.26-.38-.95-.94-1.81-1.48-2.68-.78-1.26-1.48-2.57-1.74-4.05-.41-2.33,.24-4.33,1.91-6,1.5-1.49,4.18-3,6.11-3.39-.4,.37-.74,.67-1.07,.98-1.65,1.54-2.62,3.39-2.51,5.7,.07,1.4,.56,2.68,1.12,3.95,.62,1.41,1.31,2.79,1.75,4.26,.73,2.43-.19,4.35-2.54,5.31-.91,.37-1.85,.68-2.94,.81Z"/><path class="cls-4" d="M216.17,151.78c.96-.8,1.59-1.72,1.66-2.96,.03-.6-.07-1.18-.27-1.74-.28-.76-.6-1.51-.89-2.27-.71-1.9,.62-3.58,2.74-3.37-1.17,.91-.9,1.96-.4,3.05,.32,.7,.65,1.39,.94,2.1,.58,1.45,.31,2.68-.82,3.76-.71,.68-1.54,1.14-2.48,1.42-.14,.04-.28,.08-.48,0Z"/></g></g><g id="kJUdo5-3"><g><path class="cls-5" d="M287.28,154.47c7.71,0,15.41,0,23.12,0,.4,0,.54,.09,.52,.5-.05,.93-.05,1.86-.08,2.8-.02,.5,.04,.56,.55,.51,1.87-.18,3.68,.03,5.31,1.02,1.67,1.01,2.5,2.55,2.56,4.5,.04,1.29,.04,2.57-.55,3.78-.87,1.8-2.29,3.03-4.05,3.9-2.16,1.06-4.47,1.53-6.85,1.68-.59,.04-.99,.25-1.35,.7-2.37,2.99-5.5,4.8-9.12,5.83-.5,.14-1.02,.17-1.54,.17-5.78,0-11.56,0-17.34,0-.48,0-.94-.08-1.39-.23-2.23-.74-4.39-1.62-6.26-3.07-2.92-2.27-4.69-5.28-5.71-8.78-.71-2.44-1.03-4.95-1.24-7.48-.15-1.79-.19-3.58-.19-5.37,0-.37,.09-.46,.46-.46,7.72,.01,15.44,0,23.16,0Zm24.58,7.27c-.16,.01-.47,.04-.78,.05-.34,.01-.49,.18-.54,.52-.12,.84-.27,1.67-.4,2.5-.23,1.47-.62,2.89-1.05,4.31-.05,.17-.2,.4,.19,.34,1.71-.27,3.36-.72,4.81-1.72,1.21-.84,1.83-1.98,1.78-3.47-.04-1.27-.64-2.05-1.88-2.36-.65-.16-1.31-.23-2.13-.16Z"/><path class="cls-4" d="M268.42,181.25h.53c12.88,0,25.76,0,38.64,0,.57,0,.6,.04,.46,.61-.25,1.02-1.15,1.68-2.37,1.7-1.44,.02-2.88,0-4.31,0-.89,0-1.78,0-2.67,0-.26,0-.47,.07-.57,.33-.26,.65-.78,.83-1.43,.83-2.24,0-4.48,0-6.71,0-3.32,0-6.64,0-9.96,0-.72,0-1.31-.18-1.64-.89-.14-.31-.47-.27-.75-.27-2.19,0-4.39,0-6.58,0-1.58,0-2.41-.72-2.65-2.31Z"/><path class="cls-4" d="M283.12,152.63c.24-.26,.41-.45,.59-.64,1.19-1.25,1.43-2.67,.79-4.26-.38-.95-.94-1.81-1.48-2.68-.78-1.26-1.48-2.57-1.74-4.05-.41-2.33,.24-4.33,1.91-6,1.5-1.49,4.18-3,6.11-3.39-.4,.37-.74,.67-1.07,.98-1.65,1.54-2.62,3.39-2.51,5.7,.07,1.4,.56,2.68,1.12,3.95,.62,1.41,1.31,2.79,1.75,4.26,.73,2.43-.19,4.35-2.54,5.31-.91,.37-1.85,.68-2.94,.81Z"/><path class="cls-4" d="M289.36,151.78c.96-.8,1.59-1.72,1.66-2.96,.03-.6-.07-1.18-.27-1.74-.28-.76-.6-1.51-.89-2.27-.71-1.9,.62-3.58,2.74-3.37-1.17,.91-.9,1.96-.4,3.05,.32,.7,.65,1.39,.94,2.1,.58,1.45,.31,2.68-.82,3.76-.71,.68-1.54,1.14-2.48,1.42-.14,.04-.28,.08-.48,0Z"/></g></g><g id="kJUdo5-4"><g><path class="cls-5" d="M360.47,154.47c7.71,0,15.41,0,23.12,0,.4,0,.54,.09,.52,.5-.05,.93-.05,1.86-.08,2.8-.02,.5,.04,.56,.55,.51,1.87-.18,3.68,.03,5.31,1.02,1.67,1.01,2.5,2.55,2.56,4.5,.04,1.29,.04,2.57-.55,3.78-.87,1.8-2.29,3.03-4.05,3.9-2.16,1.06-4.47,1.53-6.85,1.68-.59,.04-.99,.25-1.35,.7-2.37,2.99-5.5,4.8-9.12,5.83-.5,.14-1.02,.17-1.54,.17-5.78,0-11.56,0-17.34,0-.48,0-.94-.08-1.39-.23-2.23-.74-4.39-1.62-6.26-3.07-2.92-2.27-4.69-5.28-5.71-8.78-.71-2.44-1.03-4.95-1.24-7.48-.15-1.79-.19-3.58-.19-5.37,0-.37,.09-.46,.46-.46,7.72,.01,15.44,0,23.16,0Zm24.58,7.27c-.16,.01-.47,.04-.78,.05-.34,.01-.49,.18-.54,.52-.12,.84-.27,1.67-.4,2.5-.23,1.47-.62,2.89-1.05,4.31-.05,.17-.2,.4,.19,.34,1.71-.27,3.36-.72,4.81-1.72,1.21-.84,1.83-1.98,1.78-3.47-.04-1.27-.64-2.05-1.88-2.36-.65-.16-1.31-.23-2.13-.16Z"/><path class="cls-4" d="M341.61,181.25h.53c12.88,0,25.76,0,38.64,0,.57,0,.6,.04,.46,.61-.25,1.02-1.15,1.68-2.37,1.7-1.44,.02-2.88,0-4.31,0-.89,0-1.78,0-2.67,0-.26,0-.47,.07-.57,.33-.26,.65-.78,.83-1.43,.83-2.24,0-4.48,0-6.71,0-3.32,0-6.64,0-9.96,0-.72,0-1.31-.18-1.64-.89-.14-.31-.47-.27-.75-.27-2.19,0-4.39,0-6.58,0-1.58,0-2.41-.72-2.65-2.31Z"/><path class="cls-4" d="M356.31,152.63c.24-.26,.41-.45,.59-.64,1.19-1.25,1.43-2.67,.79-4.26-.38-.95-.94-1.81-1.48-2.68-.78-1.26-1.48-2.57-1.74-4.05-.41-2.33,.24-4.33,1.91-6,1.5-1.49,4.18-3,6.11-3.39-.4,.37-.74,.67-1.07,.98-1.65,1.54-2.62,3.39-2.51,5.7,.07,1.4,.56,2.68,1.12,3.95,.62,1.41,1.31,2.79,1.75,4.26,.73,2.43-.19,4.35-2.54,5.31-.91,.37-1.85,.68-2.94,.81Z"/><path class="cls-4" d="M362.55,151.78c.96-.8,1.59-1.72,1.66-2.96,.03-.6-.07-1.18-.27-1.74-.28-.76-.6-1.51-.89-2.27-.71-1.9,.62-3.58,2.74-3.37-1.17,.91-.9,1.96-.4,3.05,.32,.7,.65,1.39,.94,2.1,.58,1.45,.31,2.68-.82,3.76-.71,.68-1.54,1.14-2.48,1.42-.14,.04-.28,.08-.48,0Z"/></g></g><g><g id="kJUdo5-5"><g><path class="cls-11" d="M433.66,154.47c7.71,0,15.41,0,23.12,0,.4,0,.54,.09,.52,.5-.05,.93-.05,1.86-.08,2.8-.02,.5,.04,.56,.55,.51,1.87-.18,3.68,.03,5.31,1.02,1.67,1.01,2.5,2.55,2.56,4.5,.04,1.29,.04,2.57-.55,3.78-.87,1.8-2.29,3.03-4.05,3.9-2.16,1.06-4.47,1.53-6.85,1.68-.59,.04-.99,.25-1.35,.7-2.37,2.99-5.5,4.8-9.12,5.83-.5,.14-1.02,.17-1.54,.17-5.78,0-11.56,0-17.34,0-.48,0-.94-.08-1.39-.23-2.23-.74-4.39-1.62-6.26-3.07-2.92-2.27-4.69-5.28-5.71-8.78-.71-2.44-1.03-4.95-1.24-7.48-.15-1.79-.19-3.58-.19-5.37,0-.37,.09-.46,.46-.46,7.72,.01,15.44,0,23.16,0Zm24.58,7.27c-.16,.01-.47,.04-.78,.05-.34,.01-.49,.18-.54,.52-.12,.84-.27,1.67-.4,2.5-.23,1.47-.62,2.89-1.05,4.31-.05,.17-.2,.4,.19,.34,1.71-.27,3.36-.72,4.81-1.72,1.21-.84,1.83-1.98,1.78-3.47-.04-1.27-.64-2.05-1.88-2.36-.65-.16-1.31-.23-2.13-.16Z"/><path class="cls-11" d="M414.8,181.25h.53c12.88,0,25.76,0,38.64,0,.57,0,.6,.04,.46,.61-.25,1.02-1.15,1.68-2.37,1.7-1.44,.02-2.88,0-4.31,0-.89,0-1.78,0-2.67,0-.26,0-.47,.07-.57,.33-.26,.65-.78,.83-1.43,.83-2.24,0-4.48,0-6.71,0-3.32,0-6.64,0-9.96,0-.72,0-1.31-.18-1.64-.89-.14-.31-.47-.27-.75-.27-2.19,0-4.39,0-6.58,0-1.58,0-2.41-.72-2.65-2.31Z"/><path class="cls-11" d="M429.5,152.63c.24-.26,.41-.45,.59-.64,1.19-1.25,1.43-2.67,.79-4.26-.38-.95-.94-1.81-1.48-2.68-.78-1.26-1.48-2.57-1.74-4.05-.41-2.33,.24-4.33,1.91-6,1.5-1.49,4.18-3,6.11-3.39-.4,.37-.74,.67-1.07,.98-1.65,1.54-2.62,3.39-2.51,5.7,.07,1.4,.56,2.68,1.12,3.95,.62,1.41,1.31,2.79,1.75,4.26,.73,2.43-.19,4.35-2.54,5.31-.91,.37-1.85,.68-2.94,.81Z"/><path class="cls-11" d="M435.74,151.78c.96-.8,1.59-1.72,1.66-2.96,.03-.6-.07-1.18-.27-1.74-.28-.76-.6-1.51-.89-2.27-.71-1.9,.62-3.58,2.74-3.37-1.17,.91-.9,1.96-.4,3.05,.32,.7,.65,1.39,.94,2.1,.58,1.45,.31,2.68-.82,3.76-.71,.68-1.54,1.14-2.48,1.42-.14,.04-.28,.08-.48,0Z"/></g></g><path class="cls-5" d="M417.41,176.79c1.85,1.46,3.98,2.34,6.18,3.07,.45,.15,.9,.23,1.37,.23,5.7,0,11.41,0,17.11,0,.51,0,1.02-.02,1.52-.17,3.3-.95,6.19-2.58,8.45-5.18h-36.76c.63,.73,1.33,1.42,2.12,2.04Z"/><path class="cls-4" d="M414.8,181.25h.53c12.88,0,25.76,0,38.64,0,.57,0,.6,.04,.46,.61-.25,1.02-1.15,1.68-2.37,1.7-1.44,.02-2.88,0-4.31,0-.89,0-1.78,0-2.67,0-.26,0-.47,.07-.57,.33-.26,.65-.78,.83-1.43,.83-2.24,0-4.48,0-6.71,0-3.32,0-6.64,0-9.96,0-.72,0-1.31-.18-1.64-.89-.14-.31-.47-.27-.75-.27-2.19,0-4.39,0-6.58,0-1.58,0-2.41-.72-2.65-2.31Z"/></g><g id="kJUdo5-6"><g><path class="cls-5" d="M214.09,285.44c7.71,0,15.41,0,23.12,0,.4,0,.54,.09,.52,.5-.05,.93-.05,1.86-.08,2.8-.02,.5,.04,.56,.55,.51,1.87-.18,3.68,.03,5.31,1.02,1.67,1.01,2.5,2.55,2.56,4.5,.04,1.29,.04,2.57-.55,3.78-.87,1.8-2.29,3.03-4.05,3.9-2.16,1.06-4.47,1.53-6.85,1.68-.59,.04-.99,.25-1.35,.7-2.37,2.99-5.5,4.8-9.12,5.83-.5,.14-1.02,.17-1.54,.17-5.78,0-11.56,0-17.34,0-.48,0-.94-.08-1.39-.23-2.23-.74-4.39-1.62-6.26-3.07-2.92-2.27-4.69-5.28-5.71-8.78-.71-2.44-1.03-4.95-1.24-7.48-.15-1.79-.19-3.58-.19-5.37,0-.37,.09-.46,.46-.46,7.72,.01,15.44,0,23.16,0Zm24.58,7.27c-.16,.01-.47,.04-.78,.05-.34,.01-.49,.18-.54,.52-.12,.84-.27,1.67-.4,2.5-.23,1.47-.62,2.89-1.05,4.31-.05,.17-.2,.4,.19,.34,1.71-.27,3.36-.72,4.81-1.72,1.21-.84,1.83-1.98,1.78-3.47-.04-1.27-.64-2.05-1.88-2.36-.65-.16-1.31-.23-2.13-.16Z"/><path class="cls-4" d="M195.23,312.22h.53c12.88,0,25.76,0,38.64,0,.57,0,.6,.04,.46,.61-.25,1.02-1.15,1.68-2.37,1.7-1.44,.02-2.88,0-4.31,0-.89,0-1.78,0-2.67,0-.26,0-.47,.07-.57,.33-.26,.65-.78,.83-1.43,.83-2.24,0-4.48,0-6.71,0-3.32,0-6.64,0-9.96,0-.72,0-1.31-.18-1.64-.89-.14-.31-.47-.27-.75-.27-2.19,0-4.39,0-6.58,0-1.58,0-2.41-.72-2.65-2.31Z"/><path class="cls-4" d="M209.93,283.6c.24-.26,.41-.45,.59-.64,1.19-1.25,1.43-2.67,.79-4.26-.38-.95-.94-1.81-1.48-2.68-.78-1.26-1.48-2.57-1.74-4.05-.41-2.33,.24-4.33,1.91-6,1.5-1.49,4.18-3,6.11-3.39-.4,.37-.74,.67-1.07,.98-1.65,1.54-2.62,3.39-2.51,5.7,.07,1.4,.56,2.68,1.12,3.95,.62,1.41,1.31,2.79,1.75,4.26,.73,2.43-.19,4.35-2.54,5.31-.91,.37-1.85,.68-2.94,.81Z"/><path class="cls-4" d="M216.17,282.75c.96-.8,1.59-1.72,1.66-2.96,.03-.6-.07-1.18-.27-1.74-.28-.76-.6-1.51-.89-2.27-.71-1.9,.62-3.58,2.74-3.37-1.17,.91-.9,1.96-.4,3.05,.32,.7,.65,1.39,.94,2.1,.58,1.45,.31,2.68-.82,3.76-.71,.68-1.54,1.14-2.48,1.42-.14,.04-.28,.08-.48,0Z"/></g></g><g id="kJUdo5-7"><g><path class="cls-5" d="M287.28,285.44c7.71,0,15.41,0,23.12,0,.4,0,.54,.09,.52,.5-.05,.93-.05,1.86-.08,2.8-.02,.5,.04,.56,.55,.51,1.87-.18,3.68,.03,5.31,1.02,1.67,1.01,2.5,2.55,2.56,4.5,.04,1.29,.04,2.57-.55,3.78-.87,1.8-2.29,3.03-4.05,3.9-2.16,1.06-4.47,1.53-6.85,1.68-.59,.04-.99,.25-1.35,.7-2.37,2.99-5.5,4.8-9.12,5.83-.5,.14-1.02,.17-1.54,.17-5.78,0-11.56,0-17.34,0-.48,0-.94-.08-1.39-.23-2.23-.74-4.39-1.62-6.26-3.07-2.92-2.27-4.69-5.28-5.71-8.78-.71-2.44-1.03-4.95-1.24-7.48-.15-1.79-.19-3.58-.19-5.37,0-.37,.09-.46,.46-.46,7.72,.01,15.44,0,23.16,0Zm24.58,7.27c-.16,.01-.47,.04-.78,.05-.34,.01-.49,.18-.54,.52-.12,.84-.27,1.67-.4,2.5-.23,1.47-.62,2.89-1.05,4.31-.05,.17-.2,.4,.19,.34,1.71-.27,3.36-.72,4.81-1.72,1.21-.84,1.83-1.98,1.78-3.47-.04-1.27-.64-2.05-1.88-2.36-.65-.16-1.31-.23-2.13-.16Z"/><path class="cls-4" d="M268.42,312.22h.53c12.88,0,25.76,0,38.64,0,.57,0,.6,.04,.46,.61-.25,1.02-1.15,1.68-2.37,1.7-1.44,.02-2.88,0-4.31,0-.89,0-1.78,0-2.67,0-.26,0-.47,.07-.57,.33-.26,.65-.78,.83-1.43,.83-2.24,0-4.48,0-6.71,0-3.32,0-6.64,0-9.96,0-.72,0-1.31-.18-1.64-.89-.14-.31-.47-.27-.75-.27-2.19,0-4.39,0-6.58,0-1.58,0-2.41-.72-2.65-2.31Z"/><path class="cls-4" d="M283.12,283.6c.24-.26,.41-.45,.59-.64,1.19-1.25,1.43-2.67,.79-4.26-.38-.95-.94-1.81-1.48-2.68-.78-1.26-1.48-2.57-1.74-4.05-.41-2.33,.24-4.33,1.91-6,1.5-1.49,4.18-3,6.11-3.39-.4,.37-.74,.67-1.07,.98-1.65,1.54-2.62,3.39-2.51,5.7,.07,1.4,.56,2.68,1.12,3.95,.62,1.41,1.31,2.79,1.75,4.26,.73,2.43-.19,4.35-2.54,5.31-.91,.37-1.85,.68-2.94,.81Z"/><path class="cls-4" d="M289.36,282.75c.96-.8,1.59-1.72,1.66-2.96,.03-.6-.07-1.18-.27-1.74-.28-.76-.6-1.51-.89-2.27-.71-1.9,.62-3.58,2.74-3.37-1.17,.91-.9,1.96-.4,3.05,.32,.7,.65,1.39,.94,2.1,.58,1.45,.31,2.68-.82,3.76-.71,.68-1.54,1.14-2.48,1.42-.14,.04-.28,.08-.48,0Z"/></g></g><g id="kJUdo5-8"><g><path class="cls-5" d="M214.09,729.47c7.71,0,15.41,0,23.12,0,.4,0,.54,.09,.52,.5-.05,.93-.05,1.86-.08,2.8-.02,.5,.04,.56,.55,.51,1.87-.18,3.68,.03,5.31,1.02,1.67,1.01,2.5,2.55,2.56,4.5,.04,1.29,.04,2.57-.55,3.78-.87,1.8-2.29,3.03-4.05,3.9-2.16,1.06-4.47,1.53-6.85,1.68-.59,.04-.99,.25-1.35,.7-2.37,2.99-5.5,4.8-9.12,5.83-.5,.14-1.02,.17-1.54,.17-5.78,0-11.56,0-17.34,0-.48,0-.94-.08-1.39-.23-2.23-.74-4.39-1.62-6.26-3.07-2.92-2.27-4.69-5.28-5.71-8.78-.71-2.44-1.03-4.95-1.24-7.48-.15-1.79-.19-3.58-.19-5.37,0-.37,.09-.46,.46-.46,7.72,.01,15.44,0,23.16,0Zm24.58,7.27c-.16,.01-.47,.04-.78,.05-.34,.01-.49,.18-.54,.52-.12,.84-.27,1.67-.4,2.5-.23,1.47-.62,2.89-1.05,4.31-.05,.17-.2,.4,.19,.34,1.71-.27,3.36-.72,4.81-1.72,1.21-.84,1.83-1.98,1.78-3.47-.04-1.27-.64-2.05-1.88-2.36-.65-.16-1.31-.23-2.13-.16Z"/><path class="cls-4" d="M195.23,756.25h.53c12.88,0,25.76,0,38.64,0,.57,0,.6,.04,.46,.61-.25,1.02-1.15,1.68-2.37,1.7-1.44,.02-2.88,0-4.31,0-.89,0-1.78,0-2.67,0-.26,0-.47,.07-.57,.33-.26,.65-.78,.83-1.43,.83-2.24,0-4.48,0-6.71,0-3.32,0-6.64,0-9.96,0-.72,0-1.31-.18-1.64-.89-.14-.31-.47-.27-.75-.27-2.19,0-4.39,0-6.58,0-1.58,0-2.41-.72-2.65-2.31Z"/><path class="cls-4" d="M209.93,727.63c.24-.26,.41-.45,.59-.64,1.19-1.25,1.43-2.67,.79-4.26-.38-.95-.94-1.81-1.48-2.68-.78-1.26-1.48-2.57-1.74-4.05-.41-2.33,.24-4.33,1.91-6,1.5-1.49,4.18-3,6.11-3.39-.4,.37-.74,.67-1.07,.98-1.65,1.54-2.62,3.39-2.51,5.7,.07,1.4,.56,2.68,1.12,3.95,.62,1.41,1.31,2.79,1.75,4.26,.73,2.43-.19,4.35-2.54,5.31-.91,.37-1.85,.68-2.94,.81Z"/><path class="cls-4" d="M216.17,726.79c.96-.8,1.59-1.72,1.66-2.96,.03-.6-.07-1.18-.27-1.74-.28-.76-.6-1.51-.89-2.27-.71-1.9,.62-3.58,2.74-3.37-1.17,.91-.9,1.96-.4,3.05,.32,.7,.65,1.39,.94,2.1,.58,1.45,.31,2.68-.82,3.76-.71,.68-1.54,1.14-2.48,1.42-.14,.04-.28,.08-.48,0Z"/></g></g><g id="kJUdo5-9"><g><path class="cls-5" d="M287.28,729.47c7.71,0,15.41,0,23.12,0,.4,0,.54,.09,.52,.5-.05,.93-.05,1.86-.08,2.8-.02,.5,.04,.56,.55,.51,1.87-.18,3.68,.03,5.31,1.02,1.67,1.01,2.5,2.55,2.56,4.5,.04,1.29,.04,2.57-.55,3.78-.87,1.8-2.29,3.03-4.05,3.9-2.16,1.06-4.47,1.53-6.85,1.68-.59,.04-.99,.25-1.35,.7-2.37,2.99-5.5,4.8-9.12,5.83-.5,.14-1.02,.17-1.54,.17-5.78,0-11.56,0-17.34,0-.48,0-.94-.08-1.39-.23-2.23-.74-4.39-1.62-6.26-3.07-2.92-2.27-4.69-5.28-5.71-8.78-.71-2.44-1.03-4.95-1.24-7.48-.15-1.79-.19-3.58-.19-5.37,0-.37,.09-.46,.46-.46,7.72,.01,15.44,0,23.16,0Zm24.58,7.27c-.16,.01-.47,.04-.78,.05-.34,.01-.49,.18-.54,.52-.12,.84-.27,1.67-.4,2.5-.23,1.47-.62,2.89-1.05,4.31-.05,.17-.2,.4,.19,.34,1.71-.27,3.36-.72,4.81-1.72,1.21-.84,1.83-1.98,1.78-3.47-.04-1.27-.64-2.05-1.88-2.36-.65-.16-1.31-.23-2.13-.16Z"/><path class="cls-4" d="M268.42,756.25h.53c12.88,0,25.76,0,38.64,0,.57,0,.6,.04,.46,.61-.25,1.02-1.15,1.68-2.37,1.7-1.44,.02-2.88,0-4.31,0-.89,0-1.78,0-2.67,0-.26,0-.47,.07-.57,.33-.26,.65-.78,.83-1.43,.83-2.24,0-4.48,0-6.71,0-3.32,0-6.64,0-9.96,0-.72,0-1.31-.18-1.64-.89-.14-.31-.47-.27-.75-.27-2.19,0-4.39,0-6.58,0-1.58,0-2.41-.72-2.65-2.31Z"/><path class="cls-4" d="M283.12,727.63c.24-.26,.41-.45,.59-.64,1.19-1.25,1.43-2.67,.79-4.26-.38-.95-.94-1.81-1.48-2.68-.78-1.26-1.48-2.57-1.74-4.05-.41-2.33,.24-4.33,1.91-6,1.5-1.49,4.18-3,6.11-3.39-.4,.37-.74,.67-1.07,.98-1.65,1.54-2.62,3.39-2.51,5.7,.07,1.4,.56,2.68,1.12,3.95,.62,1.41,1.31,2.79,1.75,4.26,.73,2.43-.19,4.35-2.54,5.31-.91,.37-1.85,.68-2.94,.81Z"/><path class="cls-4" d="M289.36,726.79c.96-.8,1.59-1.72,1.66-2.96,.03-.6-.07-1.18-.27-1.74-.28-.76-.6-1.51-.89-2.27-.71-1.9,.62-3.58,2.74-3.37-1.17,.91-.9,1.96-.4,3.05,.32,.7,.65,1.39,.94,2.1,.58,1.45,.31,2.68-.82,3.76-.71,.68-1.54,1.14-2.48,1.42-.14,.04-.28,.08-.48,0Z"/></g></g><g><g id="kJUdo5-10"><g><path class="cls-11" d="M360.35,435.53c7.71,0,15.41,0,23.12,0,.4,0,.54,.09,.52,.5-.05,.93-.05,1.86-.08,2.8-.02,.5,.04,.56,.55,.51,1.87-.18,3.68,.03,5.31,1.02,1.67,1.01,2.5,2.55,2.56,4.5,.04,1.29,.04,2.57-.55,3.78-.87,1.8-2.29,3.03-4.05,3.9-2.16,1.06-4.47,1.53-6.85,1.68-.59,.04-.99,.25-1.35,.7-2.37,2.99-5.5,4.8-9.12,5.83-.5,.14-1.02,.17-1.54,.17-5.78,0-11.56,0-17.34,0-.48,0-.94-.08-1.39-.23-2.23-.74-4.39-1.62-6.26-3.07-2.92-2.27-4.69-5.28-5.71-8.78-.71-2.44-1.03-4.95-1.24-7.48-.15-1.79-.19-3.58-.19-5.37,0-.37,.09-.46,.46-.46,7.72,.01,15.44,0,23.16,0Zm24.58,7.27c-.16,.01-.47,.04-.78,.05-.34,.01-.49,.18-.54,.52-.12,.84-.27,1.67-.4,2.5-.23,1.47-.62,2.89-1.05,4.31-.05,.17-.2,.4,.19,.34,1.71-.27,3.36-.72,4.81-1.72,1.21-.84,1.83-1.98,1.78-3.47-.04-1.27-.64-2.05-1.88-2.36-.65-.16-1.31-.23-2.13-.16Z"/><path class="cls-11" d="M341.49,462.32h.53c12.88,0,25.76,0,38.64,0,.57,0,.6,.04,.46,.61-.25,1.02-1.15,1.68-2.37,1.7-1.44,.02-2.88,0-4.31,0-.89,0-1.78,0-2.67,0-.26,0-.47,.07-.57,.33-.26,.65-.78,.83-1.43,.83-2.24,0-4.48,0-6.71,0-3.32,0-6.64,0-9.96,0-.72,0-1.31-.18-1.64-.89-.14-.31-.47-.27-.75-.27-2.19,0-4.39,0-6.58,0-1.58,0-2.41-.72-2.65-2.31Z"/><path class="cls-11" d="M356.19,433.7c.24-.26,.41-.45,.59-.64,1.19-1.25,1.43-2.67,.79-4.26-.38-.95-.94-1.81-1.48-2.68-.78-1.26-1.48-2.57-1.74-4.05-.41-2.33,.24-4.33,1.91-6,1.5-1.49,4.18-3,6.11-3.39-.4,.37-.74,.67-1.07,.98-1.65,1.54-2.62,3.39-2.51,5.7,.07,1.4,.56,2.68,1.12,3.95,.62,1.41,1.31,2.79,1.75,4.26,.73,2.43-.19,4.35-2.54,5.31-.91,.37-1.85,.68-2.94,.81Z"/><path class="cls-11" d="M362.43,432.85c.96-.8,1.59-1.72,1.66-2.96,.03-.6-.07-1.18-.27-1.74-.28-.76-.6-1.51-.89-2.27-.71-1.9,.62-3.58,2.74-3.37-1.17,.91-.9,1.96-.4,3.05,.32,.7,.65,1.39,.94,2.1,.58,1.45,.31,2.68-.82,3.76-.71,.68-1.54,1.14-2.48,1.42-.14,.04-.28,.08-.48,0Z"/></g></g><path class="cls-5" d="M389.04,446.65c-.26,.83-.8,1.52-1.59,2.07-1.45,1-3.1,1.45-4.81,1.72-.39,.06-.24-.17-.19-.34,.35-1.14,.66-2.28,.89-3.45h-45.4c.15,.71,.31,1.41,.51,2.1,1.02,3.5,2.79,6.51,5.71,8.78,1.88,1.46,4.03,2.34,6.26,3.07,.46,.15,.91,.23,1.39,.23,5.78,0,11.56,0,17.34,0,.52,0,1.04-.02,1.54-.17,3.62-1.03,6.76-2.84,9.12-5.83,.36-.46,.76-.67,1.35-.7,2.38-.14,4.69-.62,6.85-1.68,1.76-.87,3.18-2.09,4.05-3.9,.3-.62,.44-1.26,.51-1.91h-3.54Z"/><path class="cls-4" d="M341.64,462.32h.53c12.88,0,25.76,0,38.64,0,.57,0,.6,.04,.46,.61-.25,1.02-1.15,1.68-2.37,1.7-1.44,.02-2.88,0-4.31,0-.89,0-1.78,0-2.67,0-.26,0-.47,.07-.57,.33-.26,.65-.78,.83-1.43,.83-2.24,0-4.48,0-6.71,0-3.32,0-6.64,0-9.96,0-.72,0-1.31-.18-1.64-.89-.14-.31-.47-.27-.75-.27-2.19,0-4.39,0-6.58,0-1.58,0-2.41-.72-2.65-2.31Z"/></g><g id="kJUdo5-11"><g><path class="cls-5" d="M214.09,435.53c7.71,0,15.41,0,23.12,0,.4,0,.54,.09,.52,.5-.05,.93-.05,1.86-.08,2.8-.02,.5,.04,.56,.55,.51,1.87-.18,3.68,.03,5.31,1.02,1.67,1.01,2.5,2.55,2.56,4.5,.04,1.29,.04,2.57-.55,3.78-.87,1.8-2.29,3.03-4.05,3.9-2.16,1.06-4.47,1.53-6.85,1.68-.59,.04-.99,.25-1.35,.7-2.37,2.99-5.5,4.8-9.12,5.83-.5,.14-1.02,.17-1.54,.17-5.78,0-11.56,0-17.34,0-.48,0-.94-.08-1.39-.23-2.23-.74-4.39-1.62-6.26-3.07-2.92-2.27-4.69-5.28-5.71-8.78-.71-2.44-1.03-4.95-1.24-7.48-.15-1.79-.19-3.58-.19-5.37,0-.37,.09-.46,.46-.46,7.72,.01,15.44,0,23.16,0Zm24.58,7.27c-.16,.01-.47,.04-.78,.05-.34,.01-.49,.18-.54,.52-.12,.84-.27,1.67-.4,2.5-.23,1.47-.62,2.89-1.05,4.31-.05,.17-.2,.4,.19,.34,1.71-.27,3.36-.72,4.81-1.72,1.21-.84,1.83-1.98,1.78-3.47-.04-1.27-.64-2.05-1.88-2.36-.65-.16-1.31-.23-2.13-.16Z"/><path class="cls-4" d="M195.23,462.32h.53c12.88,0,25.76,0,38.64,0,.57,0,.6,.04,.46,.61-.25,1.02-1.15,1.68-2.37,1.7-1.44,.02-2.88,0-4.31,0-.89,0-1.78,0-2.67,0-.26,0-.47,.07-.57,.33-.26,.65-.78,.83-1.43,.83-2.24,0-4.48,0-6.71,0-3.32,0-6.64,0-9.96,0-.72,0-1.31-.18-1.64-.89-.14-.31-.47-.27-.75-.27-2.19,0-4.39,0-6.58,0-1.58,0-2.41-.72-2.65-2.31Z"/><path class="cls-4" d="M209.93,433.7c.24-.26,.41-.45,.59-.64,1.19-1.25,1.43-2.67,.79-4.26-.38-.95-.94-1.81-1.48-2.68-.78-1.26-1.48-2.57-1.74-4.05-.41-2.33,.24-4.33,1.91-6,1.5-1.49,4.18-3,6.11-3.39-.4,.37-.74,.67-1.07,.98-1.65,1.54-2.62,3.39-2.51,5.7,.07,1.4,.56,2.68,1.12,3.95,.62,1.41,1.31,2.79,1.75,4.26,.73,2.43-.19,4.35-2.54,5.31-.91,.37-1.85,.68-2.94,.81Z"/><path class="cls-4" d="M216.17,432.85c.96-.8,1.59-1.72,1.66-2.96,.03-.6-.07-1.18-.27-1.74-.28-.76-.6-1.51-.89-2.27-.71-1.9,.62-3.58,2.74-3.37-1.17,.91-.9,1.96-.4,3.05,.32,.7,.65,1.39,.94,2.1,.58,1.45,.31,2.68-.82,3.76-.71,.68-1.54,1.14-2.48,1.42-.14,.04-.28,.08-.48,0Z"/></g></g><g id="kJUdo5-12"><g><path class="cls-5" d="M287.28,435.53c7.71,0,15.41,0,23.12,0,.4,0,.54,.09,.52,.5-.05,.93-.05,1.86-.08,2.8-.02,.5,.04,.56,.55,.51,1.87-.18,3.68,.03,5.31,1.02,1.67,1.01,2.5,2.55,2.56,4.5,.04,1.29,.04,2.57-.55,3.78-.87,1.8-2.29,3.03-4.05,3.9-2.16,1.06-4.47,1.53-6.85,1.68-.59,.04-.99,.25-1.35,.7-2.37,2.99-5.5,4.8-9.12,5.83-.5,.14-1.02,.17-1.54,.17-5.78,0-11.56,0-17.34,0-.48,0-.94-.08-1.39-.23-2.23-.74-4.39-1.62-6.26-3.07-2.92-2.27-4.69-5.28-5.71-8.78-.71-2.44-1.03-4.95-1.24-7.48-.15-1.79-.19-3.58-.19-5.37,0-.37,.09-.46,.46-.46,7.72,.01,15.44,0,23.16,0Zm24.58,7.27c-.16,.01-.47,.04-.78,.05-.34,.01-.49,.18-.54,.52-.12,.84-.27,1.67-.4,2.5-.23,1.47-.62,2.89-1.05,4.31-.05,.17-.2,.4,.19,.34,1.71-.27,3.36-.72,4.81-1.72,1.21-.84,1.83-1.98,1.78-3.47-.04-1.27-.64-2.05-1.88-2.36-.65-.16-1.31-.23-2.13-.16Z"/><path class="cls-4" d="M268.42,462.32h.53c12.88,0,25.76,0,38.64,0,.57,0,.6,.04,.46,.61-.25,1.02-1.15,1.68-2.37,1.7-1.44,.02-2.88,0-4.31,0-.89,0-1.78,0-2.67,0-.26,0-.47,.07-.57,.33-.26,.65-.78,.83-1.43,.83-2.24,0-4.48,0-6.71,0-3.32,0-6.64,0-9.96,0-.72,0-1.31-.18-1.64-.89-.14-.31-.47-.27-.75-.27-2.19,0-4.39,0-6.58,0-1.58,0-2.41-.72-2.65-2.31Z"/><path class="cls-4" d="M283.12,433.7c.24-.26,.41-.45,.59-.64,1.19-1.25,1.43-2.67,.79-4.26-.38-.95-.94-1.81-1.48-2.68-.78-1.26-1.48-2.57-1.74-4.05-.41-2.33,.24-4.33,1.91-6,1.5-1.49,4.18-3,6.11-3.39-.4,.37-.74,.67-1.07,.98-1.65,1.54-2.62,3.39-2.51,5.7,.07,1.4,.56,2.68,1.12,3.95,.62,1.41,1.31,2.79,1.75,4.26,.73,2.43-.19,4.35-2.54,5.31-.91,.37-1.85,.68-2.94,.81Z"/><path class="cls-4" d="M289.36,432.85c.96-.8,1.59-1.72,1.66-2.96,.03-.6-.07-1.18-.27-1.74-.28-.76-.6-1.51-.89-2.27-.71-1.9,.62-3.58,2.74-3.37-1.17,.91-.9,1.96-.4,3.05,.32,.7,.65,1.39,.94,2.1,.58,1.45,.31,2.68-.82,3.76-.71,.68-1.54,1.14-2.48,1.42-.14,.04-.28,.08-.48,0Z"/></g></g><g><g id="kJUdo5-13"><g><path class="cls-11" d="M360.35,581.33c7.71,0,15.41,0,23.12,0,.4,0,.54,.09,.52,.5-.05,.93-.05,1.86-.08,2.8-.02,.5,.04,.56,.55,.51,1.87-.18,3.68,.03,5.31,1.02,1.67,1.01,2.5,2.55,2.56,4.5,.04,1.29,.04,2.57-.55,3.78-.87,1.8-2.29,3.03-4.05,3.9-2.16,1.06-4.47,1.53-6.85,1.68-.59,.04-.99,.25-1.35,.7-2.37,2.99-5.5,4.8-9.12,5.83-.5,.14-1.02,.17-1.54,.17-5.78,0-11.56,0-17.34,0-.48,0-.94-.08-1.39-.23-2.23-.74-4.39-1.62-6.26-3.07-2.92-2.27-4.69-5.28-5.71-8.78-.71-2.44-1.03-4.95-1.24-7.48-.15-1.79-.19-3.58-.19-5.37,0-.37,.09-.46,.46-.46,7.72,.01,15.44,0,23.16,0Zm24.58,7.27c-.16,.01-.47,.04-.78,.05-.34,.01-.49,.18-.54,.52-.12,.84-.27,1.67-.4,2.5-.23,1.47-.62,2.89-1.05,4.31-.05,.17-.2,.4,.19,.34,1.71-.27,3.36-.72,4.81-1.72,1.21-.84,1.83-1.98,1.78-3.47-.04-1.27-.64-2.05-1.88-2.36-.65-.16-1.31-.23-2.13-.16Z"/><path class="cls-11" d="M341.49,608.11h.53c12.88,0,25.76,0,38.64,0,.57,0,.6,.04,.46,.61-.25,1.02-1.15,1.68-2.37,1.7-1.44,.02-2.88,0-4.31,0-.89,0-1.78,0-2.67,0-.26,0-.47,.07-.57,.33-.26,.65-.78,.83-1.43,.83-2.24,0-4.48,0-6.71,0-3.32,0-6.64,0-9.96,0-.72,0-1.31-.18-1.64-.89-.14-.31-.47-.27-.75-.27-2.19,0-4.39,0-6.58,0-1.58,0-2.41-.72-2.65-2.31Z"/><path class="cls-11" d="M356.19,579.49c.24-.26,.41-.45,.59-.64,1.19-1.25,1.43-2.67,.79-4.26-.38-.95-.94-1.81-1.48-2.68-.78-1.26-1.48-2.57-1.74-4.05-.41-2.33,.24-4.33,1.91-6,1.5-1.49,4.18-3,6.11-3.39-.4,.37-.74,.67-1.07,.98-1.65,1.54-2.62,3.39-2.51,5.7,.07,1.4,.56,2.68,1.12,3.95,.62,1.41,1.31,2.79,1.75,4.26,.73,2.43-.19,4.35-2.54,5.31-.91,.37-1.85,.68-2.94,.81Z"/><path class="cls-11" d="M362.43,578.64c.96-.8,1.59-1.72,1.66-2.96,.03-.6-.07-1.18-.27-1.74-.28-.76-.6-1.51-.89-2.27-.71-1.9,.62-3.58,2.74-3.37-1.17,.91-.9,1.96-.4,3.05,.32,.7,.65,1.39,.94,2.1,.58,1.45,.31,2.68-.82,3.76-.71,.68-1.54,1.14-2.48,1.42-.14,.04-.28,.08-.48,0Z"/></g></g><path class="cls-5" d="M389.04,592.45c-.26,.83-.8,1.52-1.59,2.07-1.45,1-3.1,1.45-4.81,1.72-.39,.06-.24-.17-.19-.34,.35-1.14,.66-2.28,.89-3.45h-45.4c.15,.71,.31,1.41,.51,2.1,1.02,3.5,2.79,6.51,5.71,8.78,1.88,1.46,4.03,2.34,6.26,3.07,.46,.15,.91,.23,1.39,.23,5.78,0,11.56,0,17.34,0,.52,0,1.04-.02,1.54-.17,3.62-1.03,6.76-2.84,9.12-5.83,.36-.46,.76-.67,1.35-.7,2.38-.14,4.69-.62,6.85-1.68,1.76-.87,3.18-2.09,4.05-3.9,.3-.62,.44-1.26,.51-1.91h-3.54Z"/><path class="cls-4" d="M341.64,608.11h.53c12.88,0,25.76,0,38.64,0,.57,0,.6,.04,.46,.61-.25,1.02-1.15,1.68-2.37,1.7-1.44,.02-2.88,0-4.31,0-.89,0-1.78,0-2.67,0-.26,0-.47,.07-.57,.33-.26,.65-.78,.83-1.43,.83-2.24,0-4.48,0-6.71,0-3.32,0-6.64,0-9.96,0-.72,0-1.31-.18-1.64-.89-.14-.31-.47-.27-.75-.27-2.19,0-4.39,0-6.58,0-1.58,0-2.41-.72-2.65-2.31Z"/></g><g id="kJUdo5-14"><g><path class="cls-5" d="M214.09,581.33c7.71,0,15.41,0,23.12,0,.4,0,.54,.09,.52,.5-.05,.93-.05,1.86-.08,2.8-.02,.5,.04,.56,.55,.51,1.87-.18,3.68,.03,5.31,1.02,1.67,1.01,2.5,2.55,2.56,4.5,.04,1.29,.04,2.57-.55,3.78-.87,1.8-2.29,3.03-4.05,3.9-2.16,1.06-4.47,1.53-6.85,1.68-.59,.04-.99,.25-1.35,.7-2.37,2.99-5.5,4.8-9.12,5.83-.5,.14-1.02,.17-1.54,.17-5.78,0-11.56,0-17.34,0-.48,0-.94-.08-1.39-.23-2.23-.74-4.39-1.62-6.26-3.07-2.92-2.27-4.69-5.28-5.71-8.78-.71-2.44-1.03-4.95-1.24-7.48-.15-1.79-.19-3.58-.19-5.37,0-.37,.09-.46,.46-.46,7.72,.01,15.44,0,23.16,0Zm24.58,7.27c-.16,.01-.47,.04-.78,.05-.34,.01-.49,.18-.54,.52-.12,.84-.27,1.67-.4,2.5-.23,1.47-.62,2.89-1.05,4.31-.05,.17-.2,.4,.19,.34,1.71-.27,3.36-.72,4.81-1.72,1.21-.84,1.83-1.98,1.78-3.47-.04-1.27-.64-2.05-1.88-2.36-.65-.16-1.31-.23-2.13-.16Z"/><path class="cls-4" d="M195.23,608.11h.53c12.88,0,25.76,0,38.64,0,.57,0,.6,.04,.46,.61-.25,1.02-1.15,1.68-2.37,1.7-1.44,.02-2.88,0-4.31,0-.89,0-1.78,0-2.67,0-.26,0-.47,.07-.57,.33-.26,.65-.78,.83-1.43,.83-2.24,0-4.48,0-6.71,0-3.32,0-6.64,0-9.96,0-.72,0-1.31-.18-1.64-.89-.14-.31-.47-.27-.75-.27-2.19,0-4.39,0-6.58,0-1.58,0-2.41-.72-2.65-2.31Z"/><path class="cls-4" d="M209.93,579.49c.24-.26,.41-.45,.59-.64,1.19-1.25,1.43-2.67,.79-4.26-.38-.95-.94-1.81-1.48-2.68-.78-1.26-1.48-2.57-1.74-4.05-.41-2.33,.24-4.33,1.91-6,1.5-1.49,4.18-3,6.11-3.39-.4,.37-.74,.67-1.07,.98-1.65,1.54-2.62,3.39-2.51,5.7,.07,1.4,.56,2.68,1.12,3.95,.62,1.41,1.31,2.79,1.75,4.26,.73,2.43-.19,4.35-2.54,5.31-.91,.37-1.85,.68-2.94,.81Z"/><path class="cls-4" d="M216.17,578.64c.96-.8,1.59-1.72,1.66-2.96,.03-.6-.07-1.18-.27-1.74-.28-.76-.6-1.51-.89-2.27-.71-1.9,.62-3.58,2.74-3.37-1.17,.91-.9,1.96-.4,3.05,.32,.7,.65,1.39,.94,2.1,.58,1.45,.31,2.68-.82,3.76-.71,.68-1.54,1.14-2.48,1.42-.14,.04-.28,.08-.48,0Z"/></g></g><g id="kJUdo5-15"><g><path class="cls-5" d="M287.28,581.33c7.71,0,15.41,0,23.12,0,.4,0,.54,.09,.52,.5-.05,.93-.05,1.86-.08,2.8-.02,.5,.04,.56,.55,.51,1.87-.18,3.68,.03,5.31,1.02,1.67,1.01,2.5,2.55,2.56,4.5,.04,1.29,.04,2.57-.55,3.78-.87,1.8-2.29,3.03-4.05,3.9-2.16,1.06-4.47,1.53-6.85,1.68-.59,.04-.99,.25-1.35,.7-2.37,2.99-5.5,4.8-9.12,5.83-.5,.14-1.02,.17-1.54,.17-5.78,0-11.56,0-17.34,0-.48,0-.94-.08-1.39-.23-2.23-.74-4.39-1.62-6.26-3.07-2.92-2.27-4.69-5.28-5.71-8.78-.71-2.44-1.03-4.95-1.24-7.48-.15-1.79-.19-3.58-.19-5.37,0-.37,.09-.46,.46-.46,7.72,.01,15.44,0,23.16,0Zm24.58,7.27c-.16,.01-.47,.04-.78,.05-.34,.01-.49,.18-.54,.52-.12,.84-.27,1.67-.4,2.5-.23,1.47-.62,2.89-1.05,4.31-.05,.17-.2,.4,.19,.34,1.71-.27,3.36-.72,4.81-1.72,1.21-.84,1.83-1.98,1.78-3.47-.04-1.27-.64-2.05-1.88-2.36-.65-.16-1.31-.23-2.13-.16Z"/><path class="cls-4" d="M268.42,608.11h.53c12.88,0,25.76,0,38.64,0,.57,0,.6,.04,.46,.61-.25,1.02-1.15,1.68-2.37,1.7-1.44,.02-2.88,0-4.31,0-.89,0-1.78,0-2.67,0-.26,0-.47,.07-.57,.33-.26,.65-.78,.83-1.43,.83-2.24,0-4.48,0-6.71,0-3.32,0-6.64,0-9.96,0-.72,0-1.31-.18-1.64-.89-.14-.31-.47-.27-.75-.27-2.19,0-4.39,0-6.58,0-1.58,0-2.41-.72-2.65-2.31Z"/><path class="cls-4" d="M283.12,579.49c.24-.26,.41-.45,.59-.64,1.19-1.25,1.43-2.67,.79-4.26-.38-.95-.94-1.81-1.48-2.68-.78-1.26-1.48-2.57-1.74-4.05-.41-2.33,.24-4.33,1.91-6,1.5-1.49,4.18-3,6.11-3.39-.4,.37-.74,.67-1.07,.98-1.65,1.54-2.62,3.39-2.51,5.7,.07,1.4,.56,2.68,1.12,3.95,.62,1.41,1.31,2.79,1.75,4.26,.73,2.43-.19,4.35-2.54,5.31-.91,.37-1.85,.68-2.94,.81Z"/><path class="cls-4" d="M289.36,578.64c.96-.8,1.59-1.72,1.66-2.96,.03-.6-.07-1.18-.27-1.74-.28-.76-.6-1.51-.89-2.27-.71-1.9,.62-3.58,2.74-3.37-1.17,.91-.9,1.96-.4,3.05,.32,.7,.65,1.39,.94,2.1,.58,1.45,.31,2.68-.82,3.76-.71,.68-1.54,1.14-2.48,1.42-.14,.04-.28,.08-.48,0Z"/></g></g><g><g id="kJUdo5-16"><g><path class="cls-11" d="M360.47,729.47c7.71,0,15.41,0,23.12,0,.4,0,.54,.09,.52,.5-.05,.93-.05,1.86-.08,2.8-.02,.5,.04,.56,.55,.51,1.87-.18,3.68,.03,5.31,1.02,1.67,1.01,2.5,2.55,2.56,4.5,.04,1.29,.04,2.57-.55,3.78-.87,1.8-2.29,3.03-4.05,3.9-2.16,1.06-4.47,1.53-6.85,1.68-.59,.04-.99,.25-1.35,.7-2.37,2.99-5.5,4.8-9.12,5.83-.5,.14-1.02,.17-1.54,.17-5.78,0-11.56,0-17.34,0-.48,0-.94-.08-1.39-.23-2.23-.74-4.39-1.62-6.26-3.07-2.92-2.27-4.69-5.28-5.71-8.78-.71-2.44-1.03-4.95-1.24-7.48-.15-1.79-.19-3.58-.19-5.37,0-.37,.09-.46,.46-.46,7.72,.01,15.44,0,23.16,0Zm24.58,7.27c-.16,.01-.47,.04-.78,.05-.34,.01-.49,.18-.54,.52-.12,.84-.27,1.67-.4,2.5-.23,1.47-.62,2.89-1.05,4.31-.05,.17-.2,.4,.19,.34,1.71-.27,3.36-.72,4.81-1.72,1.21-.84,1.83-1.98,1.78-3.47-.04-1.27-.64-2.05-1.88-2.36-.65-.16-1.31-.23-2.13-.16Z"/><path class="cls-11" d="M341.61,756.25h.53c12.88,0,25.76,0,38.64,0,.57,0,.6,.04,.46,.61-.25,1.02-1.15,1.68-2.37,1.7-1.44,.02-2.88,0-4.31,0-.89,0-1.78,0-2.67,0-.26,0-.47,.07-.57,.33-.26,.65-.78,.83-1.43,.83-2.24,0-4.48,0-6.71,0-3.32,0-6.64,0-9.96,0-.72,0-1.31-.18-1.64-.89-.14-.31-.47-.27-.75-.27-2.19,0-4.39,0-6.58,0-1.58,0-2.41-.72-2.65-2.31Z"/><path class="cls-11" d="M356.31,727.63c.24-.26,.41-.45,.59-.64,1.19-1.25,1.43-2.67,.79-4.26-.38-.95-.94-1.81-1.48-2.68-.78-1.26-1.48-2.57-1.74-4.05-.41-2.33,.24-4.33,1.91-6,1.5-1.49,4.18-3,6.11-3.39-.4,.37-.74,.67-1.07,.98-1.65,1.54-2.62,3.39-2.51,5.7,.07,1.4,.56,2.68,1.12,3.95,.62,1.41,1.31,2.79,1.75,4.26,.73,2.43-.19,4.35-2.54,5.31-.91,.37-1.85,.68-2.94,.81Z"/><path class="cls-11" d="M362.55,726.79c.96-.8,1.59-1.72,1.66-2.96,.03-.6-.07-1.18-.27-1.74-.28-.76-.6-1.51-.89-2.27-.71-1.9,.62-3.58,2.74-3.37-1.17,.91-.9,1.96-.4,3.05,.32,.7,.65,1.39,.94,2.1,.58,1.45,.31,2.68-.82,3.76-.71,.68-1.54,1.14-2.48,1.42-.14,.04-.28,.08-.48,0Z"/></g></g><path class="cls-5" d="M344.22,751.8c1.85,1.46,3.98,2.34,6.18,3.07,.45,.15,.9,.23,1.37,.23,5.7,0,11.41,0,17.11,0,.51,0,1.02-.02,1.52-.17,3.3-.95,6.19-2.58,8.45-5.18h-36.76c.63,.73,1.33,1.42,2.12,2.04Z"/><path class="cls-4" d="M341.61,756.25h.53c12.88,0,25.76,0,38.64,0,.57,0,.6,.04,.46,.61-.25,1.02-1.15,1.68-2.37,1.7-1.44,.02-2.88,0-4.31,0-.89,0-1.78,0-2.67,0-.26,0-.47,.07-.57,.33-.26,.65-.78,.83-1.43,.83-2.24,0-4.48,0-6.71,0-3.32,0-6.64,0-9.96,0-.72,0-1.31-.18-1.64-.89-.14-.31-.47-.27-.75-.27-2.19,0-4.39,0-6.58,0-1.58,0-2.41-.72-2.65-2.31Z"/></g></g></svg>