<?xml version="1.0" encoding="UTF-8"?><svg id="Capa_2" xmlns="http://www.w3.org/2000/svg" viewBox="0 0 476.16 813.87"><defs><style>.cls-1{fill:#faa100;}.cls-2{fill:#003580;}.cls-3{fill:#002868;}.cls-4{fill:#ed2939;}.cls-5{fill:#fff;}.cls-6{fill:#ef2b2d;}.cls-7{fill:red;}.cls-8{fill:#8d571c;}.cls-9{fill:#c60c30;}</style></defs><g id="Capa_1-2"><g><path class="cls-5" d="M2.31,145.37H155.31v93.5H2.31v-93.5Z"/><path class="cls-2" d="M2.31,179.37H155.31v25.5H2.31v-25.5Z"/><path class="cls-2" d="M44.81,145.37h25.5v93.5h-25.5v-93.5Z"/></g><g><path class="cls-6" d="M2.31,276.34H155.31v93.5H2.31v-93.5Z"/><path class="cls-5" d="M44.04,276.34h27.82v93.5h-27.82v-93.5Z"/><path class="cls-5" d="M2.31,311.41H155.31v23.38H2.31v-23.38Z"/><path class="cls-3" d="M51,276.34h13.91v93.5h-13.91v-93.5Z"/><path class="cls-3" d="M2.31,317.25H155.31v11.69H2.31v-11.69Z"/></g><g><path class="cls-9" d="M5.15,572.23H158.15v93.5H5.15v-93.5Z"/><path class="cls-5" d="M5.15,612.3H54.78v-40.07h16.54v40.07h86.84v13.36H71.32v40.07h-16.54v-40.07H5.15v-13.36Z"/></g><g><path class="cls-4" d="M2.31,426.44H155.31v93.5H2.31v-93.5Z"/><path class="cls-5" d="M2.31,457.6H155.31v31.17H2.31v-31.17Z"/></g><g><path class="cls-7" d="M0,720.37H153v93.5H0v-93.5Z"/><path class="cls-5" d="M65.76,737.91h21.48v20.45h25.05v17.53h-25.05v20.45h-21.48v-20.45h-25.05v-17.53h25.05v-20.45Z"/></g><g><g id="VrH0rr"><g><path class="cls-8" d="M284.7,180.83c8.88,0,17.76-.25,26.63,.09,5.33,.2,9.88,2.76,13.13,7.13,4.24,5.72,4.95,12.03,1.99,18.43-3,6.49-8.41,10.1-15.54,10.27-2.57,.06-3.21,1.05-3.8,3-.39,1.29-.99,2.54-1.6,3.75-.49,.97-.23,1.24,.78,1.23,3.18-.02,6.36-.01,9.53,0,.44,0,.99-.15,1.27,.28,.34,.52-.09,.99-.38,1.36-2.72,3.35-6.23,5.69-10.54,5.75-14.17,.19-28.35,.18-42.52,0-4.41-.05-7.89-2.54-10.59-5.96-.79-1-.53-1.41,.76-1.42,3.13-.03,6.25-.03,9.38,0,.9,0,1.36-.06,.81-1.15-3.19-6.4-4.5-13.35-5.7-20.31-1.16-6.71-1.84-13.48-2.37-20.27-.14-1.82,.08-2.09,1.97-2.09,8.93,0,17.86,0,26.79,0v-.07Zm35.65,18.22c.02-4.22-2.48-8.1-6.06-9.47-.9-.35-1.32-.32-1.43,.85-.52,5.72-1.38,11.39-2.43,17.04-.27,1.45-.02,1.69,1.44,1.48,4.87-.72,8.47-4.92,8.49-9.89Z"/><path class="cls-8" d="M266.94,172.13c.01-2.83,1.19-4.69,2.57-6.47,.62-.8,1.3-1.54,1.94-2.32,2.14-2.67,2.1-4.69-.11-7.3-.42-.5-.86-.99-1.21-1.54-.46-.73-.37-1.49,.28-2.06,.7-.62,1.57-.59,2.2,.03,4.37,4.29,5.25,8.56,1.15,13.42-.65,.77-1.34,1.51-1.95,2.31-2.01,2.64-1.98,4.62,.04,7.27,.36,.48,.76,.95,1.02,1.49,.38,.76,.24,1.49-.47,2.02-.7,.52-1.46,.51-2.06-.12-1.93-2.02-3.3-4.32-3.41-6.74Z"/><path class="cls-8" d="M302.79,160.26c-.13,3.21-1.98,5.32-3.75,7.46-.55,.66-1.08,1.32-1.54,2.05-1.05,1.65-1.06,3.33-.12,5.01,.44,.79,1,1.51,1.51,2.26,.62,.89,.81,1.8-.15,2.54-.95,.73-1.79,.32-2.52-.47-3.73-4.03-3.84-8.66-.31-12.93,.55-.66,1.1-1.32,1.64-1.98,2.34-2.86,2.37-4.63,.14-7.55-.37-.48-.78-.92-1.12-1.42-.51-.74-.61-1.53,.14-2.17,.7-.59,1.59-.63,2.22,0,2.07,2.05,3.79,4.33,3.85,7.21Z"/><path class="cls-8" d="M280.01,172.05c-.11-2.05,.77-3.73,1.94-5.29,.91-1.21,1.89-2.36,2.79-3.57,1.81-2.4,1.75-4.22-.14-6.56-.44-.55-.91-1.08-1.32-1.65-.54-.74-.6-1.53,.09-2.19,.67-.65,1.48-.57,2.23-.09,3.34,2.16,4.71,7.55,2.81,11.04-.75,1.38-1.78,2.56-2.81,3.74-2.95,3.39-3,5.2-.3,8.8,.33,.44,.72,.86,.78,1.44,.07,.71-.2,1.29-.82,1.66-.78,.46-1.51,.21-2.05-.38-1.81-1.97-3.14-4.18-3.2-6.96Z"/></g></g><g id="VrH0rr-2"><g><path class="cls-8" d="M211.68,180.83c8.88,0,17.76-.25,26.63,.09,5.33,.2,9.88,2.76,13.13,7.13,4.24,5.72,4.95,12.03,1.99,18.43-3,6.49-8.41,10.1-15.54,10.27-2.57,.06-3.21,1.05-3.8,3-.39,1.29-.99,2.54-1.6,3.75-.49,.97-.23,1.24,.78,1.23,3.18-.02,6.36-.01,9.53,0,.44,0,.99-.15,1.27,.28,.34,.52-.09,.99-.38,1.36-2.72,3.35-6.23,5.69-10.54,5.75-14.17,.19-28.35,.18-42.52,0-4.41-.05-7.89-2.54-10.59-5.96-.79-1-.53-1.41,.76-1.42,3.13-.03,6.25-.03,9.38,0,.9,0,1.36-.06,.81-1.15-3.19-6.4-4.5-13.35-5.7-20.31-1.16-6.71-1.84-13.48-2.37-20.27-.14-1.82,.08-2.09,1.97-2.09,8.93,0,17.86,0,26.79,0v-.07Zm35.65,18.22c.02-4.22-2.48-8.1-6.06-9.47-.9-.35-1.32-.32-1.43,.85-.52,5.72-1.38,11.39-2.43,17.04-.27,1.45-.02,1.69,1.44,1.48,4.87-.72,8.47-4.92,8.49-9.89Z"/><path class="cls-8" d="M193.91,172.13c.01-2.83,1.19-4.69,2.57-6.47,.62-.8,1.3-1.54,1.94-2.32,2.14-2.67,2.1-4.69-.11-7.3-.42-.5-.86-.99-1.21-1.54-.46-.73-.37-1.49,.28-2.06,.7-.62,1.57-.59,2.2,.03,4.37,4.29,5.25,8.56,1.15,13.42-.65,.77-1.34,1.51-1.95,2.31-2.01,2.64-1.98,4.62,.04,7.27,.36,.48,.76,.95,1.02,1.49,.38,.76,.24,1.49-.47,2.02-.7,.52-1.46,.51-2.06-.12-1.93-2.02-3.3-4.32-3.41-6.74Z"/><path class="cls-8" d="M229.76,160.26c-.13,3.21-1.98,5.32-3.75,7.46-.55,.66-1.08,1.32-1.54,2.05-1.05,1.65-1.06,3.33-.12,5.01,.44,.79,1,1.51,1.51,2.26,.62,.89,.81,1.8-.15,2.54-.95,.73-1.79,.32-2.52-.47-3.73-4.03-3.84-8.66-.31-12.93,.55-.66,1.1-1.32,1.64-1.98,2.34-2.86,2.37-4.63,.14-7.55-.37-.48-.78-.92-1.12-1.42-.51-.74-.61-1.53,.14-2.17,.7-.59,1.59-.63,2.22,0,2.07,2.05,3.79,4.33,3.85,7.21Z"/><path class="cls-8" d="M206.99,172.05c-.11-2.05,.77-3.73,1.94-5.29,.91-1.21,1.89-2.36,2.79-3.57,1.81-2.4,1.75-4.22-.14-6.56-.44-.55-.91-1.08-1.32-1.65-.54-.74-.6-1.53,.09-2.19,.67-.65,1.48-.57,2.23-.09,3.34,2.16,4.71,7.55,2.81,11.04-.75,1.38-1.78,2.56-2.81,3.74-2.95,3.39-3,5.2-.3,8.8,.33,.44,.72,.86,.78,1.44,.07,.71-.2,1.29-.82,1.66-.78,.46-1.51,.21-2.05-.38-1.81-1.97-3.14-4.18-3.2-6.96Z"/></g></g><g id="VrH0rr-3"><g><path class="cls-8" d="M357.73,180.83c8.88,0,17.76-.25,26.63,.09,5.33,.2,9.88,2.76,13.13,7.13,4.24,5.72,4.95,12.03,1.99,18.43-3,6.49-8.41,10.1-15.54,10.27-2.57,.06-3.21,1.05-3.8,3-.39,1.29-.99,2.54-1.6,3.75-.49,.97-.23,1.24,.78,1.23,3.18-.02,6.36-.01,9.53,0,.44,0,.99-.15,1.27,.28,.34,.52-.09,.99-.38,1.36-2.72,3.35-6.23,5.69-10.54,5.75-14.17,.19-28.35,.18-42.52,0-4.41-.05-7.89-2.54-10.59-5.96-.79-1-.53-1.41,.76-1.42,3.13-.03,6.25-.03,9.38,0,.9,0,1.36-.06,.81-1.15-3.19-6.4-4.5-13.35-5.7-20.31-1.16-6.71-1.84-13.48-2.37-20.27-.14-1.82,.08-2.09,1.97-2.09,8.93,0,17.86,0,26.79,0v-.07Zm35.65,18.22c.02-4.22-2.48-8.1-6.06-9.47-.9-.35-1.32-.32-1.43,.85-.52,5.72-1.38,11.39-2.43,17.04-.27,1.45-.02,1.69,1.44,1.48,4.87-.72,8.47-4.92,8.49-9.89Z"/><path class="cls-8" d="M339.96,172.13c.01-2.83,1.19-4.69,2.57-6.47,.62-.8,1.3-1.54,1.94-2.32,2.14-2.67,2.1-4.69-.11-7.3-.42-.5-.86-.99-1.21-1.54-.46-.73-.37-1.49,.28-2.06,.7-.62,1.57-.59,2.2,.03,4.37,4.29,5.25,8.56,1.15,13.42-.65,.77-1.34,1.51-1.95,2.31-2.01,2.64-1.98,4.62,.04,7.27,.36,.48,.76,.95,1.02,1.49,.38,.76,.24,1.49-.47,2.02-.7,.52-1.46,.51-2.06-.12-1.93-2.02-3.3-4.32-3.41-6.74Z"/><path class="cls-8" d="M375.82,160.26c-.13,3.21-1.98,5.32-3.75,7.46-.55,.66-1.08,1.32-1.54,2.05-1.05,1.65-1.06,3.33-.12,5.01,.44,.79,1,1.51,1.51,2.26,.62,.89,.81,1.8-.15,2.54-.95,.73-1.79,.32-2.52-.47-3.73-4.03-3.84-8.66-.31-12.93,.55-.66,1.1-1.32,1.64-1.98,2.34-2.86,2.37-4.63,.14-7.55-.37-.48-.78-.92-1.12-1.42-.51-.74-.61-1.53,.14-2.17,.7-.59,1.59-.63,2.22,0,2.07,2.05,3.79,4.33,3.85,7.21Z"/><path class="cls-8" d="M353.04,172.05c-.11-2.05,.77-3.73,1.94-5.29,.91-1.21,1.89-2.36,2.79-3.57,1.81-2.4,1.75-4.22-.14-6.56-.44-.55-.91-1.08-1.32-1.65-.54-.74-.6-1.53,.09-2.19,.67-.65,1.48-.57,2.23-.09,3.34,2.16,4.71,7.55,2.81,11.04-.75,1.38-1.78,2.56-2.81,3.74-2.95,3.39-3,5.2-.3,8.8,.33,.44,.72,.86,.78,1.44,.07,.71-.2,1.29-.82,1.66-.78,.46-1.51,.21-2.05-.38-1.81-1.97-3.14-4.18-3.2-6.96Z"/></g></g><g id="VrH0rr-4"><path class="cls-8" d="M468.04,202.97c-1.33,3.12-4.17,5.45-7.67,5.97-1.46,.22-1.71-.03-1.44-1.48,.3-1.59,.57-3.19,.84-4.79-17.72-.72-35.46-1.82-53.13-.56,.06,.38,.11,.77,.18,1.15,1.21,6.96,2.51,13.91,5.7,20.31,.54,1.09,.08,1.16-.81,1.15-3.13-.02-6.26-.02-9.38,0-1.3,.01-1.55,.42-.76,1.42,2.7,3.42,6.18,5.91,10.59,5.96,14.17,.17,28.35,.18,42.52,0,4.3-.06,7.81-2.39,10.54-5.75,.3-.37,.72-.84,.38-1.36-.28-.43-.83-.28-1.27-.28-3.18-.01-6.36-.02-9.53,0-1.01,0-1.27-.26-.78-1.23,.61-1.21,1.21-2.45,1.6-3.75,.59-1.94,1.22-2.93,3.8-3,7.13-.17,12.54-3.78,15.54-10.27,.52-1.12,.91-2.23,1.21-3.34-2.71-.03-5.41-.09-8.12-.17Z"/></g></g><g><g id="VrH0rr-5"><g><path class="cls-8" d="M287.13,461.9c8.88,0,17.76-.25,26.63,.09,5.33,.2,9.88,2.76,13.13,7.13,4.24,5.72,4.95,12.03,1.99,18.43-3,6.49-8.41,10.1-15.54,10.27-2.57,.06-3.21,1.05-3.8,3-.39,1.29-.99,2.54-1.6,3.75-.49,.97-.23,1.24,.78,1.23,3.18-.02,6.36-.01,9.53,0,.44,0,.99-.15,1.27,.28,.34,.52-.09,.99-.38,1.36-2.72,3.35-6.23,5.69-10.54,5.75-14.17,.19-28.35,.18-42.52,0-4.41-.05-7.89-2.54-10.59-5.96-.79-1-.53-1.41,.76-1.42,3.13-.03,6.25-.03,9.38,0,.9,0,1.36-.06,.81-1.15-3.19-6.4-4.5-13.35-5.7-20.31-1.16-6.71-1.84-13.48-2.37-20.27-.14-1.82,.08-2.09,1.97-2.09,8.93,0,17.86,0,26.79,0v-.07Zm35.65,18.22c.02-4.22-2.48-8.1-6.06-9.47-.9-.35-1.32-.32-1.43,.85-.52,5.72-1.38,11.39-2.43,17.04-.27,1.45-.02,1.69,1.44,1.48,4.87-.72,8.47-4.92,8.49-9.89Z"/><path class="cls-8" d="M269.36,453.19c.01-2.83,1.19-4.69,2.57-6.47,.62-.8,1.3-1.54,1.94-2.32,2.14-2.67,2.1-4.69-.11-7.3-.42-.5-.86-.99-1.21-1.54-.46-.73-.37-1.49,.28-2.06,.7-.62,1.57-.59,2.2,.03,4.37,4.29,5.25,8.56,1.15,13.42-.65,.77-1.34,1.51-1.95,2.31-2.01,2.64-1.98,4.62,.04,7.27,.36,.48,.76,.95,1.02,1.49,.38,.76,.24,1.49-.47,2.02-.7,.52-1.46,.51-2.06-.12-1.93-2.02-3.3-4.32-3.41-6.74Z"/><path class="cls-8" d="M305.21,441.33c-.13,3.21-1.98,5.32-3.75,7.46-.55,.66-1.08,1.32-1.54,2.05-1.05,1.65-1.06,3.33-.12,5.01,.44,.79,1,1.51,1.51,2.26,.62,.89,.81,1.8-.15,2.54-.95,.73-1.79,.32-2.52-.47-3.73-4.03-3.84-8.66-.31-12.93,.55-.66,1.1-1.32,1.64-1.98,2.34-2.86,2.37-4.63,.14-7.55-.37-.48-.78-.92-1.12-1.42-.51-.74-.61-1.53,.14-2.17,.7-.59,1.59-.63,2.22,0,2.07,2.05,3.79,4.33,3.85,7.21Z"/><path class="cls-8" d="M282.44,453.12c-.11-2.05,.77-3.73,1.94-5.29,.91-1.21,1.89-2.36,2.79-3.57,1.81-2.4,1.75-4.22-.14-6.56-.44-.55-.91-1.08-1.32-1.65-.54-.74-.6-1.53,.09-2.19,.67-.65,1.48-.57,2.23-.09,3.34,2.16,4.71,7.55,2.81,11.04-.75,1.38-1.78,2.56-2.81,3.74-2.95,3.39-3,5.2-.3,8.8,.33,.44,.72,.86,.78,1.44,.07,.71-.2,1.29-.82,1.66-.78,.46-1.51,.21-2.05-.38-1.81-1.97-3.14-4.18-3.2-6.96Z"/></g></g><g id="VrH0rr-6"><g><path class="cls-8" d="M214.1,461.9c8.88,0,17.76-.25,26.63,.09,5.33,.2,9.88,2.76,13.13,7.13,4.24,5.72,4.95,12.03,1.99,18.43-3,6.49-8.41,10.1-15.54,10.27-2.57,.06-3.21,1.05-3.8,3-.39,1.29-.99,2.54-1.6,3.75-.49,.97-.23,1.24,.78,1.23,3.18-.02,6.36-.01,9.53,0,.44,0,.99-.15,1.27,.28,.34,.52-.09,.99-.38,1.36-2.72,3.35-6.23,5.69-10.54,5.75-14.17,.19-28.35,.18-42.52,0-4.41-.05-7.89-2.54-10.59-5.96-.79-1-.53-1.41,.76-1.42,3.13-.03,6.25-.03,9.38,0,.9,0,1.36-.06,.81-1.15-3.19-6.4-4.5-13.35-5.7-20.31-1.16-6.71-1.84-13.48-2.37-20.27-.14-1.82,.08-2.09,1.97-2.09,8.93,0,17.86,0,26.79,0v-.07Zm35.65,18.22c.02-4.22-2.48-8.1-6.06-9.47-.9-.35-1.32-.32-1.43,.85-.52,5.72-1.38,11.39-2.43,17.04-.27,1.45-.02,1.69,1.44,1.48,4.87-.72,8.47-4.92,8.49-9.89Z"/><path class="cls-8" d="M196.33,453.19c.01-2.83,1.19-4.69,2.57-6.47,.62-.8,1.3-1.54,1.94-2.32,2.14-2.67,2.1-4.69-.11-7.3-.42-.5-.86-.99-1.21-1.54-.46-.73-.37-1.49,.28-2.06,.7-.62,1.57-.59,2.2,.03,4.37,4.29,5.25,8.56,1.15,13.42-.65,.77-1.34,1.51-1.95,2.31-2.01,2.64-1.98,4.62,.04,7.27,.36,.48,.76,.95,1.02,1.49,.38,.76,.24,1.49-.47,2.02-.7,.52-1.46,.51-2.06-.12-1.93-2.02-3.3-4.32-3.41-6.74Z"/><path class="cls-8" d="M232.18,441.33c-.13,3.21-1.98,5.32-3.75,7.46-.55,.66-1.08,1.32-1.54,2.05-1.05,1.65-1.06,3.33-.12,5.01,.44,.79,1,1.51,1.51,2.26,.62,.89,.81,1.8-.15,2.54-.95,.73-1.79,.32-2.52-.47-3.73-4.03-3.84-8.66-.31-12.93,.55-.66,1.1-1.32,1.64-1.98,2.34-2.86,2.37-4.63,.14-7.55-.37-.48-.78-.92-1.12-1.42-.51-.74-.61-1.53,.14-2.17,.7-.59,1.59-.63,2.22,0,2.07,2.05,3.79,4.33,3.85,7.21Z"/><path class="cls-8" d="M209.41,453.12c-.11-2.05,.77-3.73,1.94-5.29,.91-1.21,1.89-2.36,2.79-3.57,1.81-2.4,1.75-4.22-.14-6.56-.44-.55-.91-1.08-1.32-1.65-.54-.74-.6-1.53,.09-2.19,.67-.65,1.48-.57,2.23-.09,3.34,2.16,4.71,7.55,2.81,11.04-.75,1.38-1.78,2.56-2.81,3.74-2.95,3.39-3,5.2-.3,8.8,.33,.44,.72,.86,.78,1.44,.07,.71-.2,1.29-.82,1.66-.78,.46-1.51,.21-2.05-.38-1.81-1.97-3.14-4.18-3.2-6.96Z"/></g></g><g id="VrH0rr-7"><path class="cls-8" d="M394.99,484.04c-1.33,3.12-4.17,5.45-7.67,5.97-1.46,.22-1.71-.03-1.44-1.48,.3-1.59,.57-3.19,.84-4.79-17.72-.72-35.46-1.82-53.13-.56,.06,.38,.11,.77,.18,1.15,1.21,6.96,2.51,13.91,5.7,20.31,.54,1.09,.08,1.16-.81,1.15-3.13-.02-6.26-.02-9.38,0-1.3,.01-1.55,.42-.76,1.42,2.7,3.42,6.18,5.91,10.59,5.96,14.17,.17,28.35,.18,42.52,0,4.3-.06,7.81-2.39,10.54-5.75,.3-.37,.72-.84,.38-1.36-.28-.43-.83-.28-1.27-.28-3.18-.01-6.36-.02-9.53,0-1.01,0-1.27-.26-.78-1.23,.61-1.21,1.21-2.45,1.6-3.75,.59-1.94,1.22-2.93,3.8-3,7.13-.17,12.54-3.78,15.54-10.27,.52-1.12,.91-2.23,1.21-3.34-2.71-.03-5.41-.09-8.12-.17Z"/></g></g><g id="VrH0rr-8"><g><path class="cls-8" d="M274.57,755.83c8.88,0,17.76-.25,26.63,.09,5.33,.2,9.88,2.76,13.13,7.13,4.24,5.72,4.95,12.03,1.99,18.43-3,6.49-8.41,10.1-15.54,10.27-2.57,.06-3.21,1.05-3.8,3-.39,1.29-.99,2.54-1.6,3.75-.49,.97-.23,1.24,.78,1.23,3.18-.02,6.36-.01,9.53,0,.44,0,.99-.15,1.27,.28,.34,.52-.09,.99-.38,1.36-2.72,3.35-6.23,5.69-10.54,5.75-14.17,.19-28.35,.18-42.52,0-4.41-.05-7.89-2.54-10.59-5.96-.79-1-.53-1.41,.76-1.42,3.13-.03,6.25-.03,9.38,0,.9,0,1.36-.06,.81-1.15-3.19-6.4-4.5-13.35-5.7-20.31-1.16-6.71-1.84-13.48-2.37-20.27-.14-1.82,.08-2.09,1.97-2.09,8.93,0,17.86,0,26.79,0v-.07Zm35.65,18.22c.02-4.22-2.48-8.1-6.06-9.47-.9-.35-1.32-.32-1.43,.85-.52,5.72-1.38,11.39-2.43,17.04-.27,1.45-.02,1.69,1.44,1.48,4.87-.72,8.47-4.92,8.49-9.89Z"/><path class="cls-8" d="M256.8,747.13c.01-2.83,1.19-4.69,2.57-6.47,.62-.8,1.3-1.54,1.94-2.32,2.14-2.67,2.1-4.69-.11-7.3-.42-.5-.86-.99-1.21-1.54-.46-.73-.37-1.49,.28-2.06,.7-.62,1.57-.59,2.2,.03,4.37,4.29,5.25,8.56,1.15,13.42-.65,.77-1.34,1.51-1.95,2.31-2.01,2.64-1.98,4.62,.04,7.27,.36,.48,.76,.95,1.02,1.49,.38,.76,.24,1.49-.47,2.02-.7,.52-1.46,.51-2.06-.12-1.93-2.02-3.3-4.32-3.41-6.74Z"/><path class="cls-8" d="M292.66,735.27c-.13,3.21-1.98,5.32-3.75,7.46-.55,.66-1.08,1.32-1.54,2.05-1.05,1.65-1.06,3.33-.12,5.01,.44,.79,1,1.51,1.51,2.26,.62,.89,.81,1.8-.15,2.54-.95,.73-1.79,.32-2.52-.47-3.73-4.03-3.84-8.66-.31-12.93,.55-.66,1.1-1.32,1.64-1.98,2.34-2.86,2.37-4.63,.14-7.55-.37-.48-.78-.92-1.12-1.42-.51-.74-.61-1.53,.14-2.17,.7-.59,1.59-.63,2.22,0,2.07,2.05,3.79,4.33,3.85,7.21Z"/><path class="cls-8" d="M269.88,747.05c-.11-2.05,.77-3.73,1.94-5.29,.91-1.21,1.89-2.36,2.79-3.57,1.81-2.4,1.75-4.22-.14-6.56-.44-.55-.91-1.08-1.32-1.65-.54-.74-.6-1.53,.09-2.19,.67-.65,1.48-.57,2.23-.09,3.34,2.16,4.71,7.55,2.81,11.04-.75,1.38-1.78,2.56-2.81,3.74-2.95,3.39-3,5.2-.3,8.8,.33,.44,.72,.86,.78,1.44,.07,.71-.2,1.29-.82,1.66-.78,.46-1.51,.21-2.05-.38-1.81-1.97-3.14-4.18-3.2-6.96Z"/></g></g><g id="VrH0rr-9"><g><path class="cls-8" d="M201.54,755.83c8.88,0,17.76-.25,26.63,.09,5.33,.2,9.88,2.76,13.13,7.13,4.24,5.72,4.95,12.03,1.99,18.43-3,6.49-8.41,10.1-15.54,10.27-2.57,.06-3.21,1.05-3.8,3-.39,1.29-.99,2.54-1.6,3.75-.49,.97-.23,1.24,.78,1.23,3.18-.02,6.36-.01,9.53,0,.44,0,.99-.15,1.27,.28,.34,.52-.09,.99-.38,1.36-2.72,3.35-6.23,5.69-10.54,5.75-14.17,.19-28.35,.18-42.52,0-4.41-.05-7.89-2.54-10.59-5.96-.79-1-.53-1.41,.76-1.42,3.13-.03,6.25-.03,9.38,0,.9,0,1.36-.06,.81-1.15-3.19-6.4-4.5-13.35-5.7-20.31-1.16-6.71-1.84-13.48-2.37-20.27-.14-1.82,.08-2.09,1.97-2.09,8.93,0,17.86,0,26.79,0v-.07Zm35.65,18.22c.02-4.22-2.48-8.1-6.06-9.47-.9-.35-1.32-.32-1.43,.85-.52,5.72-1.38,11.39-2.43,17.04-.27,1.45-.02,1.69,1.44,1.48,4.87-.72,8.47-4.92,8.49-9.89Z"/><path class="cls-8" d="M183.78,747.13c.01-2.83,1.19-4.69,2.57-6.47,.62-.8,1.3-1.54,1.94-2.32,2.14-2.67,2.1-4.69-.11-7.3-.42-.5-.86-.99-1.21-1.54-.46-.73-.37-1.49,.28-2.06,.7-.62,1.57-.59,2.2,.03,4.37,4.29,5.25,8.56,1.15,13.42-.65,.77-1.34,1.51-1.95,2.31-2.01,2.64-1.98,4.62,.04,7.27,.36,.48,.76,.95,1.02,1.49,.38,.76,.24,1.49-.47,2.02-.7,.52-1.46,.51-2.06-.12-1.93-2.02-3.3-4.32-3.41-6.74Z"/><path class="cls-8" d="M219.63,735.27c-.13,3.21-1.98,5.32-3.75,7.46-.55,.66-1.08,1.32-1.54,2.05-1.05,1.65-1.06,3.33-.12,5.01,.44,.79,1,1.51,1.51,2.26,.62,.89,.81,1.8-.15,2.54-.95,.73-1.79,.32-2.52-.47-3.73-4.03-3.84-8.66-.31-12.93,.55-.66,1.1-1.32,1.64-1.98,2.34-2.86,2.37-4.63,.14-7.55-.37-.48-.78-.92-1.12-1.42-.51-.74-.61-1.53,.14-2.17,.7-.59,1.59-.63,2.22,0,2.07,2.05,3.79,4.33,3.85,7.21Z"/><path class="cls-8" d="M196.85,747.05c-.11-2.05,.77-3.73,1.94-5.29,.91-1.21,1.89-2.36,2.79-3.57,1.81-2.4,1.75-4.22-.14-6.56-.44-.55-.91-1.08-1.32-1.65-.54-.74-.6-1.53,.09-2.19,.67-.65,1.48-.57,2.23-.09,3.34,2.16,4.71,7.55,2.81,11.04-.75,1.38-1.78,2.56-2.81,3.74-2.95,3.39-3,5.2-.3,8.8,.33,.44,.72,.86,.78,1.44,.07,.71-.2,1.29-.82,1.66-.78,.46-1.51,.21-2.05-.38-1.81-1.97-3.14-4.18-3.2-6.96Z"/></g></g><g id="VrH0rr-10"><path class="cls-8" d="M378.72,799.73c-3.18-.01-6.36-.02-9.53,0-1.01,0-1.27-.26-.78-1.23,.61-1.21,1.21-2.45,1.6-3.75,.06-.21,.13-.4,.2-.59-15.02-.22-30.13,2.1-45.1,.18,.53,1.43,1.12,2.85,1.81,4.24,.54,1.09,.08,1.16-.81,1.15-3.13-.02-6.26-.02-9.38,0-1.3,.01-1.55,.42-.76,1.42,2.7,3.42,6.18,5.91,10.59,5.96,14.17,.17,28.35,.18,42.52,0,4.3-.06,7.81-2.39,10.54-5.75,.3-.37,.72-.84,.38-1.36-.28-.43-.83-.28-1.27-.28Z"/></g><g id="eZkQqB.tif"><g><path class="cls-1" d="M473.03,59c-.19,1.42-.37,2.84-.58,4.26-2.04,14.07-8.54,25.7-19.32,34.9-7.63,6.51-16.46,10.58-26.42,12.32v-13.06c12.31-3.13,21.77-10.09,28.02-21.16,5.17-9.16,6.6-19,4.49-29.29-4.07-19.94-22.22-34.45-42.39-34.09-21.22,.38-37.42,15.52-41.18,33.49h9.17c-5.35,8.96-10.57,17.71-15.88,26.6l-15.41-26.55h8.8c.7-2.59,1.26-5.13,2.06-7.6,3.97-12.32,11.37-22.09,22.07-29.33C396.54,2.66,407.73-.52,419.86,.07c15.5,.76,28.54,7.02,38.96,18.52,7.5,8.29,11.99,18.05,13.64,29.11,.22,1.5,.38,3,.57,4.51v6.79Z"/><path class="cls-2" d="M420.11,110.33h-6.75v-1.33c0-3.63,0-7.26,0-10.88,0-.82-.02-1.64-.12-2.45-.33-2.68-3.32-3.89-5.45-2.17-.31,.25-.44,.88-.44,1.34-.03,4.72-.02,9.44-.02,14.16v1.34h-7.16v-30.46h7.13v10.24c.96-.71,1.74-1.47,2.67-1.95,3.81-1.98,8.35-.07,9.6,4.05,.37,1.21,.58,2.52,.6,3.79,.07,4.52,.03,9.05,.03,13.58,0,.23-.05,.46-.09,.76Z"/><path class="cls-2" d="M374.66,104.75v5.59h-20.83c0-1.46-.04-2.86,.03-4.25,.02-.36,.35-.75,.62-1.05,3.37-3.68,6.85-7.27,10.09-11.06,1.09-1.28,1.81-3.01,2.29-4.65,.57-1.94-.58-3.69-2.28-4.14-2.2-.58-3.98,.7-4.38,3.16-.07,.46-.11,.92-.17,1.46h-6.74c-.42-3.29,1.55-7.16,4.55-8.75,3.9-2.08,7.93-1.98,11.8-.05,4.62,2.3,5.94,8.93,2.61,13.15-2.56,3.24-5.41,6.24-8.13,9.35-.3,.34-.59,.68-1.1,1.25h11.65Z"/><path class="cls-2" d="M394.1,80.21v18.51h3.07v5.21h-3.08v6.37h-6.86v-6.34h-11.88c-.12-1.42-.26-2.73-.32-4.05-.01-.31,.21-.66,.39-.95,3.75-6.02,7.49-12.03,11.28-18.02,.23-.37,.83-.69,1.27-.71,1.98-.08,3.96-.03,6.13-.03Zm-6.97,9.16l-.26-.07c-1.85,3.08-3.71,6.17-5.61,9.34h5.88v-9.27Z"/><path class="cls-1" d="M410.25,26.28h6.29v30.13h16.87v6.43h-23.16V26.28Z"/><path class="cls-5" d="M387.13,89.38v9.27h-5.88c1.91-3.17,3.76-6.25,5.61-9.34l.26,.07Z"/></g></g><g><g id="VrH0rr-11"><g><path class="cls-8" d="M283.69,607.69c8.88,0,17.76-.25,26.63,.09,5.33,.2,9.88,2.76,13.13,7.13,4.24,5.72,4.95,12.03,1.99,18.43-3,6.49-8.41,10.1-15.54,10.27-2.57,.06-3.21,1.05-3.8,3-.39,1.29-.99,2.54-1.6,3.75-.49,.97-.23,1.24,.78,1.23,3.18-.02,6.36-.01,9.53,0,.44,0,.99-.15,1.27,.28,.34,.52-.09,.99-.38,1.36-2.72,3.35-6.23,5.69-10.54,5.75-14.17,.19-28.35,.18-42.52,0-4.41-.05-7.89-2.54-10.59-5.96-.79-1-.53-1.41,.76-1.42,3.13-.03,6.25-.03,9.38,0,.9,0,1.36-.06,.81-1.15-3.19-6.4-4.5-13.35-5.7-20.31-1.16-6.71-1.84-13.48-2.37-20.27-.14-1.82,.08-2.09,1.97-2.09,8.93,0,17.86,0,26.79,0v-.07Zm35.65,18.22c.02-4.22-2.48-8.1-6.06-9.47-.9-.35-1.32-.32-1.43,.85-.52,5.72-1.38,11.39-2.43,17.04-.27,1.45-.02,1.69,1.44,1.48,4.87-.72,8.47-4.92,8.49-9.89Z"/><path class="cls-8" d="M265.92,598.99c.01-2.83,1.19-4.69,2.57-6.47,.62-.8,1.3-1.54,1.94-2.32,2.14-2.67,2.1-4.69-.11-7.3-.42-.5-.86-.99-1.21-1.54-.46-.73-.37-1.49,.28-2.06,.7-.62,1.57-.59,2.2,.03,4.37,4.29,5.25,8.56,1.15,13.42-.65,.77-1.34,1.51-1.95,2.31-2.01,2.64-1.98,4.62,.04,7.27,.36,.48,.76,.95,1.02,1.49,.38,.76,.24,1.49-.47,2.02-.7,.52-1.46,.51-2.06-.12-1.93-2.02-3.3-4.32-3.41-6.74Z"/><path class="cls-8" d="M301.78,587.12c-.13,3.21-1.98,5.32-3.75,7.46-.55,.66-1.08,1.32-1.54,2.05-1.05,1.65-1.06,3.33-.12,5.01,.44,.79,1,1.51,1.51,2.26,.62,.89,.81,1.8-.15,2.54-.95,.73-1.79,.32-2.52-.47-3.73-4.03-3.84-8.66-.31-12.93,.55-.66,1.1-1.32,1.64-1.98,2.34-2.86,2.37-4.63,.14-7.55-.37-.48-.78-.92-1.12-1.42-.51-.74-.61-1.53,.14-2.17,.7-.59,1.59-.63,2.22,0,2.07,2.05,3.79,4.33,3.85,7.21Z"/><path class="cls-8" d="M279,598.91c-.11-2.05,.77-3.73,1.94-5.29,.91-1.21,1.89-2.36,2.79-3.57,1.81-2.4,1.75-4.22-.14-6.56-.44-.55-.91-1.08-1.32-1.65-.54-.74-.6-1.53,.09-2.19,.67-.65,1.48-.57,2.23-.09,3.34,2.16,4.71,7.55,2.81,11.04-.75,1.38-1.78,2.56-2.81,3.74-2.95,3.39-3,5.2-.3,8.8,.33,.44,.72,.86,.78,1.44,.07,.71-.2,1.29-.82,1.66-.78,.46-1.51,.21-2.05-.38-1.81-1.97-3.14-4.18-3.2-6.96Z"/></g></g><g id="VrH0rr-12"><g><path class="cls-8" d="M210.66,607.69c8.88,0,17.76-.25,26.63,.09,5.33,.2,9.88,2.76,13.13,7.13,4.24,5.72,4.95,12.03,1.99,18.43-3,6.49-8.41,10.1-15.54,10.27-2.57,.06-3.21,1.05-3.8,3-.39,1.29-.99,2.54-1.6,3.75-.49,.97-.23,1.24,.78,1.23,3.18-.02,6.36-.01,9.53,0,.44,0,.99-.15,1.27,.28,.34,.52-.09,.99-.38,1.36-2.72,3.35-6.23,5.69-10.54,5.75-14.17,.19-28.35,.18-42.52,0-4.41-.05-7.89-2.54-10.59-5.96-.79-1-.53-1.41,.76-1.42,3.13-.03,6.25-.03,9.38,0,.9,0,1.36-.06,.81-1.15-3.19-6.4-4.5-13.35-5.7-20.31-1.16-6.71-1.84-13.48-2.37-20.27-.14-1.82,.08-2.09,1.97-2.09,8.93,0,17.86,0,26.79,0v-.07Zm35.65,18.22c.02-4.22-2.48-8.1-6.06-9.47-.9-.35-1.32-.32-1.43,.85-.52,5.72-1.38,11.39-2.43,17.04-.27,1.45-.02,1.69,1.44,1.48,4.87-.72,8.47-4.92,8.49-9.89Z"/><path class="cls-8" d="M192.9,598.99c.01-2.83,1.19-4.69,2.57-6.47,.62-.8,1.3-1.54,1.94-2.32,2.14-2.67,2.1-4.69-.11-7.3-.42-.5-.86-.99-1.21-1.54-.46-.73-.37-1.49,.28-2.06,.7-.62,1.57-.59,2.2,.03,4.37,4.29,5.25,8.56,1.15,13.42-.65,.77-1.34,1.51-1.95,2.31-2.01,2.64-1.98,4.62,.04,7.27,.36,.48,.76,.95,1.02,1.49,.38,.76,.24,1.49-.47,2.02-.7,.52-1.46,.51-2.06-.12-1.93-2.02-3.3-4.32-3.41-6.74Z"/><path class="cls-8" d="M228.75,587.12c-.13,3.21-1.98,5.32-3.75,7.46-.55,.66-1.08,1.32-1.54,2.05-1.05,1.65-1.06,3.33-.12,5.01,.44,.79,1,1.51,1.51,2.26,.62,.89,.81,1.8-.15,2.54-.95,.73-1.79,.32-2.52-.47-3.73-4.03-3.84-8.66-.31-12.93,.55-.66,1.1-1.32,1.64-1.98,2.34-2.86,2.37-4.63,.14-7.55-.37-.48-.78-.92-1.12-1.42-.51-.74-.61-1.53,.14-2.17,.7-.59,1.59-.63,2.22,0,2.07,2.05,3.79,4.33,3.85,7.21Z"/><path class="cls-8" d="M205.97,598.91c-.11-2.05,.77-3.73,1.94-5.29,.91-1.21,1.89-2.36,2.79-3.57,1.81-2.4,1.75-4.22-.14-6.56-.44-.55-.91-1.08-1.32-1.65-.54-.74-.6-1.53,.09-2.19,.67-.65,1.48-.57,2.23-.09,3.34,2.16,4.71,7.55,2.81,11.04-.75,1.38-1.78,2.56-2.81,3.74-2.95,3.39-3,5.2-.3,8.8,.33,.44,.72,.86,.78,1.44,.07,.71-.2,1.29-.82,1.66-.78,.46-1.51,.21-2.05-.38-1.81-1.97-3.14-4.18-3.2-6.96Z"/></g></g><g id="VrH0rr-13"><path class="cls-8" d="M391.55,629.83c-1.33,3.12-4.17,5.45-7.67,5.97-1.46,.22-1.71-.03-1.44-1.48,.3-1.59,.57-3.19,.84-4.79-17.72-.72-35.46-1.82-53.13-.56,.06,.38,.11,.77,.18,1.15,1.21,6.96,2.51,13.91,5.7,20.31,.54,1.09,.08,1.16-.81,1.15-3.13-.02-6.26-.02-9.38,0-1.3,.01-1.55,.42-.76,1.42,2.7,3.42,6.18,5.91,10.59,5.96,14.17,.17,28.35,.18,42.52,0,4.3-.06,7.81-2.39,10.54-5.75,.3-.37,.72-.84,.38-1.36-.28-.43-.83-.28-1.27-.28-3.18-.01-6.36-.02-9.53,0-1.01,0-1.27-.26-.78-1.23,.61-1.21,1.21-2.45,1.6-3.75,.59-1.94,1.22-2.93,3.8-3,7.13-.17,12.54-3.78,15.54-10.27,.52-1.12,.91-2.23,1.21-3.34-2.71-.03-5.41-.09-8.12-.17Z"/></g></g><g><g id="VrH0rr-14"><g><path class="cls-8" d="M287.42,311.8c8.88,0,17.76-.25,26.63,.09,5.33,.2,9.88,2.76,13.13,7.13,4.24,5.72,4.95,12.03,1.99,18.43-3,6.49-8.41,10.1-15.54,10.27-2.57,.06-3.21,1.05-3.8,3-.39,1.29-.99,2.54-1.6,3.75-.49,.97-.23,1.24,.78,1.23,3.18-.02,6.36-.01,9.53,0,.44,0,.99-.15,1.27,.28,.34,.52-.09,.99-.38,1.36-2.72,3.35-6.23,5.69-10.54,5.75-14.17,.19-28.35,.18-42.52,0-4.41-.05-7.89-2.54-10.59-5.96-.79-1-.53-1.41,.76-1.42,3.13-.03,6.25-.03,9.38,0,.9,0,1.36-.06,.81-1.15-3.19-6.4-4.5-13.35-5.7-20.31-1.16-6.71-1.84-13.48-2.37-20.27-.14-1.82,.08-2.09,1.97-2.09,8.93,0,17.86,0,26.79,0v-.07Zm35.65,18.22c.02-4.22-2.48-8.1-6.06-9.47-.9-.35-1.32-.32-1.43,.85-.52,5.72-1.38,11.39-2.43,17.04-.27,1.45-.02,1.69,1.44,1.48,4.87-.72,8.47-4.92,8.49-9.89Z"/><path class="cls-8" d="M269.65,303.1c.01-2.83,1.19-4.69,2.57-6.47,.62-.8,1.3-1.54,1.94-2.32,2.14-2.67,2.1-4.69-.11-7.3-.42-.5-.86-.99-1.21-1.54-.46-.73-.37-1.49,.28-2.06,.7-.62,1.57-.59,2.2,.03,4.37,4.29,5.25,8.56,1.15,13.42-.65,.77-1.34,1.51-1.95,2.31-2.01,2.64-1.98,4.62,.04,7.27,.36,.48,.76,.95,1.02,1.49,.38,.76,.24,1.49-.47,2.02-.7,.52-1.46,.51-2.06-.12-1.93-2.02-3.3-4.32-3.41-6.74Z"/><path class="cls-8" d="M305.51,291.23c-.13,3.21-1.98,5.32-3.75,7.46-.55,.66-1.08,1.32-1.54,2.05-1.05,1.65-1.06,3.33-.12,5.01,.44,.79,1,1.51,1.51,2.26,.62,.89,.81,1.8-.15,2.54-.95,.73-1.79,.32-2.52-.47-3.73-4.03-3.84-8.66-.31-12.93,.55-.66,1.1-1.32,1.64-1.98,2.34-2.86,2.37-4.63,.14-7.55-.37-.48-.78-.92-1.12-1.42-.51-.74-.61-1.53,.14-2.17,.7-.59,1.59-.63,2.22,0,2.07,2.05,3.79,4.33,3.85,7.21Z"/><path class="cls-8" d="M282.73,303.02c-.11-2.05,.77-3.73,1.94-5.29,.91-1.21,1.89-2.36,2.79-3.57,1.81-2.4,1.75-4.22-.14-6.56-.44-.55-.91-1.08-1.32-1.65-.54-.74-.6-1.53,.09-2.19,.67-.65,1.48-.57,2.23-.09,3.34,2.16,4.71,7.55,2.81,11.04-.75,1.38-1.78,2.56-2.81,3.74-2.95,3.39-3,5.2-.3,8.8,.33,.44,.72,.86,.78,1.44,.07,.71-.2,1.29-.82,1.66-.78,.46-1.51,.21-2.05-.38-1.81-1.97-3.14-4.18-3.2-6.96Z"/></g></g><g id="VrH0rr-15"><g><path class="cls-8" d="M214.39,311.8c8.88,0,17.76-.25,26.63,.09,5.33,.2,9.88,2.76,13.13,7.13,4.24,5.72,4.95,12.03,1.99,18.43-3,6.49-8.41,10.1-15.54,10.27-2.57,.06-3.21,1.05-3.8,3-.39,1.29-.99,2.54-1.6,3.75-.49,.97-.23,1.24,.78,1.23,3.18-.02,6.36-.01,9.53,0,.44,0,.99-.15,1.27,.28,.34,.52-.09,.99-.38,1.36-2.72,3.35-6.23,5.69-10.54,5.75-14.17,.19-28.35,.18-42.52,0-4.41-.05-7.89-2.54-10.59-5.96-.79-1-.53-1.41,.76-1.42,3.13-.03,6.25-.03,9.38,0,.9,0,1.36-.06,.81-1.15-3.19-6.4-4.5-13.35-5.7-20.31-1.16-6.71-1.84-13.48-2.37-20.27-.14-1.82,.08-2.09,1.97-2.09,8.93,0,17.86,0,26.79,0v-.07Zm35.65,18.22c.02-4.22-2.48-8.1-6.06-9.47-.9-.35-1.32-.32-1.43,.85-.52,5.72-1.38,11.39-2.43,17.04-.27,1.45-.02,1.69,1.44,1.48,4.87-.72,8.47-4.92,8.49-9.89Z"/><path class="cls-8" d="M196.63,303.1c.01-2.83,1.19-4.69,2.57-6.47,.62-.8,1.3-1.54,1.94-2.32,2.14-2.67,2.1-4.69-.11-7.3-.42-.5-.86-.99-1.21-1.54-.46-.73-.37-1.49,.28-2.06,.7-.62,1.57-.59,2.2,.03,4.37,4.29,5.25,8.56,1.15,13.42-.65,.77-1.34,1.51-1.95,2.31-2.01,2.64-1.98,4.62,.04,7.27,.36,.48,.76,.95,1.02,1.49,.38,.76,.24,1.49-.47,2.02-.7,.52-1.46,.51-2.06-.12-1.93-2.02-3.3-4.32-3.41-6.74Z"/><path class="cls-8" d="M232.48,291.23c-.13,3.21-1.98,5.32-3.75,7.46-.55,.66-1.08,1.32-1.54,2.05-1.05,1.65-1.06,3.33-.12,5.01,.44,.79,1,1.51,1.51,2.26,.62,.89,.81,1.8-.15,2.54-.95,.73-1.79,.32-2.52-.47-3.73-4.03-3.84-8.66-.31-12.93,.55-.66,1.1-1.32,1.64-1.98,2.34-2.86,2.37-4.63,.14-7.55-.37-.48-.78-.92-1.12-1.42-.51-.74-.61-1.53,.14-2.17,.7-.59,1.59-.63,2.22,0,2.07,2.05,3.79,4.33,3.85,7.21Z"/><path class="cls-8" d="M209.7,303.02c-.11-2.05,.77-3.73,1.94-5.29,.91-1.21,1.89-2.36,2.79-3.57,1.81-2.4,1.75-4.22-.14-6.56-.44-.55-.91-1.08-1.32-1.65-.54-.74-.6-1.53,.09-2.19,.67-.65,1.48-.57,2.23-.09,3.34,2.16,4.71,7.55,2.81,11.04-.75,1.38-1.78,2.56-2.81,3.74-2.95,3.39-3,5.2-.3,8.8,.33,.44,.72,.86,.78,1.44,.07,.71-.2,1.29-.82,1.66-.78,.46-1.51,.21-2.05-.38-1.81-1.97-3.14-4.18-3.2-6.96Z"/></g></g><g id="VrH0rr-16"><path class="cls-8" d="M395.28,333.94c-1.33,3.12-4.17,5.45-7.67,5.97-1.46,.22-1.71-.03-1.44-1.48,.3-1.59,.57-3.19,.84-4.79-17.72-.72-35.46-1.82-53.13-.56,.06,.38,.11,.77,.18,1.15,1.21,6.96,2.51,13.91,5.7,20.31,.54,1.09,.08,1.16-.81,1.15-3.13-.02-6.26-.02-9.38,0-1.3,.01-1.55,.42-.76,1.42,2.7,3.42,6.18,5.91,10.59,5.96,14.17,.17,28.35,.18,42.52,0,4.3-.06,7.81-2.39,10.54-5.75,.3-.37,.72-.84,.38-1.36-.28-.43-.83-.28-1.27-.28-3.18-.01-6.36-.02-9.53,0-1.01,0-1.27-.26-.78-1.23,.61-1.21,1.21-2.45,1.6-3.75,.59-1.94,1.22-2.93,3.8-3,7.13-.17,12.54-3.78,15.54-10.27,.52-1.12,.91-2.23,1.21-3.34-2.71-.03-5.41-.09-8.12-.17Z"/></g></g></g></svg>