<?xml version="1.0" encoding="UTF-8"?><svg id="Capa_1" xmlns="http://www.w3.org/2000/svg" viewBox="0 0 800 800"><defs><style>.cls-1{letter-spacing:-.02em;}.cls-2{font-size:13.23px;}.cls-2,.cls-3,.cls-4,.cls-5,.cls-6,.cls-7,.cls-8,.cls-9,.cls-10,.cls-11{font-family:Arial-ItalicMT, Arial;isolation:isolate;}.cls-3{font-size:13.23px;}.cls-12{letter-spacing:-.09em;}.cls-4{font-size:13.23px;}.cls-5{font-size:13.23px;}.cls-6{font-size:13.23px;}.cls-7{font-size:13.23px;}.cls-8{font-size:13.23px;}.cls-9{font-size:13.23px;}.cls-10{font-size:13.23px;}.cls-11{font-size:13.23px;}.cls-13{fill:#b1c9bc;}.cls-14{fill:#d77e30;}.cls-15{letter-spacing:-.04em;}.cls-16{letter-spacing:-.06em;}.cls-17{letter-spacing:0em;}.cls-18{letter-spacing:0em;}</style></defs><g id="Capa_2"><rect width="800" height="800"/></g><g id="Capa_1-2"><g><path class="cls-13" d="M312.7,232.2c92.7-48.2,206.9-12.1,255.1,80.5,48.2,92.7,12.2,206.9-80.5,255.1-54.8,28.5-120.1,28.5-174.9-.2l43.8-82.4c47.1,24.2,104.9,5.6,129.1-41.5s5.6-104.9-41.5-129.1c-27.5-14.1-60-14.1-87.5-.1l-43.6-82.3Z"/><path class="cls-14" d="M310,566.4c-91.9-49.7-126.2-164.4-76.5-256.3,17.6-32.5,44.3-59.2,76.8-76.7l43.6,82.4c-46.5,25.4-63.5,83.7-38.1,130.2,8.8,16,22,29.2,38,38.1l-43.8,82.3Z"/><path class="cls-13" d="M267.8,147.4c139.5-73,311.8-19,384.7,120.5,35.9,68.6,42.3,148.7,17.9,222.1l-88.4-29.9c33.2-100.6-21.4-209.1-122-242.3-49.1-16.2-102.8-11.9-148.7,12l-43.5-82.4Z"/><path class="cls-13" d="M669.6,492.5c-33.9,98.9-119.3,171.3-222.5,188.6l-15-92c69.1-11.7,126.2-60.2,149.1-126.4l88.4,29.8Z"/><path class="cls-13" d="M444.5,681.6c-60.7,9.6-122.8-.6-177.1-29.2l43.8-82.4c36.4,19,77.8,25.8,118.4,19.5l14.9,92.1Z"/><path class="cls-14" d="M265,651.1c-17.4-9.3-33.7-20.4-48.8-33.2l60.4-71c9.9,8.3,20.7,15.7,32.1,21.8l-43.7,82.4Z"/><path class="cls-14" d="M214.2,616.2c-62.8-53.9-99-132.4-99.3-215.2l93.3,.1c.3,55.4,24.6,107.9,66.5,144.1l-60.5,71Z"/><path class="cls-14" d="M114.9,398.4c.6-104.6,58.4-200.4,150.6-249.8l43.6,82.4c-61.7,33.2-100.4,97.4-100.9,167.4H114.9Z"/><path class="cls-13" d="M223,62.6c23.6-12.4,48.4-22.3,74.1-29.5l24.9,89.9c-19.2,5.4-37.7,12.8-55.4,22l-43.6-82.4Z"/><path class="cls-13" d="M299.6,32.5c25.7-7,52.1-11.3,78.7-12.8l5,93.1c-19.9,1.2-39.6,4.4-58.8,9.6l-24.9-89.9Z"/><path class="cls-13" d="M381,19.5c26.6-1.3,53.3,.1,79.6,4.4l-15.2,92c-19.7-3.1-39.6-4.2-59.5-3.3l-4.9-93.1Z"/><path class="cls-13" d="M463.2,24.3c26.3,4.4,52,11.6,76.8,21.4l-34.6,86.6c-18.5-7.3-37.8-12.7-57.4-16l15.2-92Z"/><path class="cls-13" d="M542.5,46.7c24.7,10,48.3,22.5,70.4,37.4l-52.4,77.1c-16.5-11.1-34.2-20.5-52.6-28l34.6-86.5Z"/><path class="cls-13" d="M615.1,85.6c22,15.1,42.4,32.4,60.7,51.7l-67.8,64.1c-13.7-14.4-29-27.3-45.4-38.6l52.5-77.2Z"/><path class="cls-13" d="M677.7,139.2c18.2,19.4,34.4,40.7,48.2,63.5l-80,48c-10.3-17-22.4-32.9-36-47.5l67.8-64Z"/><path class="cls-13" d="M727.3,205c13.6,22.9,24.8,47.2,33.4,72.4l-88.4,29.7c-6.4-18.8-14.8-37-25-54.1l80-48Z"/><path class="cls-13" d="M761.5,279.9c8.4,25.3,14.1,51.4,17.1,77.9l-92.7,10c-2.2-19.8-6.5-39.3-12.8-58.2l88.4-29.7Z"/><path class="cls-13" d="M778.9,360.5c2.8,26.5,2.7,53.2-.1,79.8l-92.7-10.2c2.1-19.8,2.1-39.8,.1-59.6l92.7-10Z"/><path class="cls-13" d="M778.5,442.8c-3,26.5-8.8,52.6-17.2,77.9l-88.4-29.9c6.3-18.9,10.6-38.4,12.9-58.2l92.7,10.2Z"/><path class="cls-13" d="M760.5,523.2c-8.6,25.2-19.9,49.5-33.6,72.3l-79.9-48.2c10.2-17.1,18.6-35.2,25.1-54.1l88.4,30Z"/><path class="cls-13" d="M725.5,597.8c-13.8,22.8-30,44-48.3,63.4l-67.6-64.2c13.6-14.5,25.7-30.4,36.1-47.4l79.8,48.2Z"/><path class="cls-13" d="M675.4,663.2c-18.4,19.3-38.8,36.6-60.8,51.6l-52.3-77.2c16.4-11.2,31.7-24.2,45.4-38.5l67.7,64.1Z"/><path class="cls-13" d="M612.4,716.3c-22.1,14.9-45.8,27.4-70.5,37.3l-34.4-86.7c18.5-7.4,36.1-16.8,52.7-27.9l52.2,77.3Z"/><path class="cls-13" d="M539.4,754.5c-24.8,9.8-50.6,16.9-76.9,21.3l-15-92c19.6-3.3,38.9-8.6,57.4-15.9l34.5,86.6Z"/><path class="cls-13" d="M460,776.2c-26.3,4.2-53,5.6-79.6,4.2l5.1-93.1c19.9,1,39.8-.1,59.5-3.2l15,92.1Z"/><path class="cls-13" d="M377.7,780.3c-26.6-1.6-53-5.9-78.7-13l25-89.8c19.2,5.3,38.9,8.5,58.8,9.7l-5.1,93.1Z"/><path class="cls-13" d="M296.4,766.6c-25.7-7.2-50.5-17.2-74.1-29.6l43.8-82.4c17.6,9.3,36.2,16.7,55.3,22.1l-25,89.9Z"/><path class="cls-14" d="M220,735.8c-23.5-12.6-45.6-27.6-66-44.8l60.4-71c15.2,12.8,31.7,24.1,49.3,33.5l-43.7,82.3Z"/><path class="cls-14" d="M152.1,689.3c-20.2-17.3-38.6-36.8-54.8-57.9l74.3-56.4c12.1,15.8,25.8,30.3,40.9,43.3l-60.4,71Z"/><path class="cls-14" d="M95.7,629.2c-16-21.3-29.8-44.2-41.1-68.4l84.7-39.1c8.4,18,18.7,35.2,30.7,51.1l-74.3,56.4Z"/><path class="cls-14" d="M53.5,558.5c-11.1-24.2-19.6-49.6-25.4-75.6l91.1-20c4.4,19.4,10.7,38.4,19,56.5l-84.7,39.1Z"/><path class="cls-14" d="M27.5,480.3c-5.6-26.1-8.5-52.6-8.6-79.3l93.3,.1c.1,19.9,2.2,39.8,6.4,59.2l-91.1,20Z"/><path class="cls-14" d="M19,398.3c.1-26.7,3-53.2,8.7-79.3l91.1,20.1c-4.2,19.5-6.4,39.3-6.5,59.2H19Z"/><path class="cls-14" d="M28.3,316.5c5.8-26,14.4-51.3,25.5-75.6l84.6,39.2c-8.3,18.1-14.7,37-19.1,56.4l-91-20Z"/><path class="cls-14" d="M54.9,238.5c11.3-24.1,25.1-47,41.2-68.3l74.2,56.5c-12,15.9-22.3,33-30.8,51l-84.6-39.2Z"/><path class="cls-14" d="M97.7,168.1c16.2-21.2,34.6-40.5,54.9-57.8l60.3,71.1c-15.1,12.9-28.9,27.4-41,43.2l-74.2-56.5Z"/><path class="cls-14" d="M154.6,108.6c20.4-17.2,42.5-32.1,66-44.7l43.6,82.4c-17.6,9.4-34.1,20.6-49.3,33.4l-60.3-71.1Z"/><g id="labels" transform="translate(402.5,300)"><text class="cls-11" transform="translate(521.39 405.4) rotate(.05)"><tspan x="0" y="0">Arábica</tspan></text><text class="cls-11" transform="translate(231.47 405.14) rotate(.05)"><tspan x="0" y="0">Robusta</tspan></text><text class="cls-3" transform="translate(543.65 239.3) rotate(-49.6)"><tspan x="0" y="0">América</tspan></text><text class="cls-6" transform="translate(540.05 573.4) rotate(49.71)"><tspan x="0" y="0">África</tspan></text><text class="cls-11" transform="translate(364.09 650.12) rotate(-80.64)"><tspan x="0" y="0">Asia</tspan></text><text class="cls-11" transform="translate(255.98 621.36) rotate(-55.81)"><tspan x="0" y="0">América</tspan></text><text class="cls-8" transform="translate(169.14 512.37) rotate(-24.78)"><tspan x="0" y="0">África</tspan></text><text class="cls-11" transform="translate(180.88 274.09) rotate(31.08)"><tspan x="0" y="0">Asia</tspan></text><text class="cls-11" transform="translate(288.11 104.21) rotate(-111.67)"><tspan x="0" y="0">Bolivia</tspan></text><text class="cls-11" transform="translate(355.67 95.43) rotate(-99.26)"><tspan x="0" y="0">Colombia</tspan></text><text class="cls-11" transform="translate(421.94 97.43) rotate(-86.85)"><tspan x="0" y="0">Costa Rica</tspan></text><text class="cls-11" transform="translate(488.54 101.8) rotate(-74.43)"><tspan x="0" y="0">Ecuador</tspan></text><text class="cls-11" transform="translate(546.26 135.92) rotate(-62.02)"><tspan x="0" y="0">El Salvador</tspan></text><text class="cls-3" transform="translate(600.56 172.43) rotate(-49.6)"><tspan x="0" y="0">Guatemala</tspan></text><text class="cls-11" transform="translate(650.94 216.2) rotate(-37.19)"><tspan x="0" y="0">Jamaica</tspan></text><text class="cls-8" transform="translate(679.58 276.77) rotate(-24.78)"><tspan x="0" y="0">Nicaragua</tspan></text><text class="cls-11" transform="translate(704.92 338.57) rotate(-12.36)"><tspan x="0" y="0">Panamá</tspan></text><text class="cls-11" transform="translate(721.66 405.58) rotate(.05)"><tspan x="0" y="0">Perú</tspan></text><text class="cls-7" transform="translate(696.3 470.92) rotate(12.46)"><tspan class="cls-15" x="0" y="0">V</tspan><tspan class="cls-18" x="8.33" y="0">enezuela</tspan></text><text class="cls-11" transform="translate(683.58 537.35) rotate(24.88)"><tspan x="0" y="0">Etiopía</tspan></text><text class="cls-10" transform="translate(650.34 597.33) rotate(37.29)"><tspan x="0" y="0">Kenia</tspan></text><text class="cls-6" transform="translate(588.52 630.56) rotate(49.71)"><tspan x="0" y="0">Mozambique</tspan></text><text class="cls-9" transform="translate(573.01 715.79) rotate(-117.88)"><tspan class="cls-12" x="0" y="0">T</tspan><tspan x="6.87" y="0">aizania</tspan></text><text class="cls-11" transform="translate(500.46 743.36) rotate(-105.47)"><tspan x="0" y="0">Zambia</tspan></text><text class="cls-11" transform="translate(423.89 749.23) rotate(-93.05)"><tspan x="0" y="0">India</tspan></text><text class="cls-11" transform="translate(345.92 760.36) rotate(-80.64)"><tspan x="0" y="0">Indonesia</tspan></text><text class="cls-11" transform="translate(272.72 732.8) rotate(-68.22)"><tspan class="cls-16" x="0" y="0">Y</tspan><tspan x="8.09" y="0">emen</tspan></text><text class="cls-11" transform="translate(206.43 694.31) rotate(-55.81)"><tspan x="0" y="0">Brasil</tspan></text><text class="cls-11" transform="translate(144.74 648.61) rotate(-43.4)"><tspan x="0" y="0">Angola</tspan></text><text class="cls-11" transform="translate(91.6 591.34) rotate(-30.98)"><tspan x="0" y="0">Camerún</tspan></text><text class="cls-11" transform="translate(41.3 526.08) rotate(-18.57)"><tspan x="0" y="0">Costa de Marfil</tspan></text><text class="cls-4" transform="translate(43.76 443.74) rotate(-6.15)"><tspan x="0" y="0">Uganda</tspan></text><text class="cls-5" transform="translate(51.46 367.11) rotate(6.26)"><tspan x="0" y="0">India</tspan></text><text class="cls-11" transform="translate(67.03 293.08) rotate(18.67)"><tspan x="0" y="0">Java</tspan></text><text class="cls-11" transform="translate(85.84 216.79) rotate(31.08)"><tspan x="0" y="0">Sri Lanka</tspan></text><text class="cls-11" transform="translate(134.7 155.58) rotate(43.5)"><tspan x="0" y="0">Sumatra</tspan></text><text class="cls-2" transform="translate(193.93 104.98) rotate(55.91)"><tspan class="cls-1" x="0" y="0">V</tspan><tspan class="cls-17" x="8.58" y="0">ietnam</tspan></text></g></g></g></svg>