<?xml version="1.0" encoding="UTF-8"?><svg id="Capa_1" xmlns="http://www.w3.org/2000/svg" xmlns:xlink="http://www.w3.org/1999/xlink" viewBox="0 0 1200.8 800"><defs><style>.cls-1{fill:none;}.cls-2,.cls-3,.cls-4{font-size:17px;}.cls-2,.cls-3,.cls-4,.cls-5{font-family:Nitti, Nitti;isolation:isolate;}.cls-2,.cls-6,.cls-7{fill:#a6481d;}.cls-3,.cls-8{fill:#d77e31;}.cls-4,.cls-9,.cls-10{fill:#f1ca9f;}.cls-6,.cls-9{stroke-miterlimit:5.98;}.cls-6,.cls-9,.cls-11{stroke-width:.5px;}.cls-6,.cls-9,.cls-11,.cls-12,.cls-10,.cls-7,.cls-8{stroke:#000;}.cls-12,.cls-10,.cls-7,.cls-8{stroke-miterlimit:7.31;stroke-width:.61px;}.cls-12,.cls-5{fill:#fff;}.cls-5{font-size:19px;}.cls-13{fill:url(#Degradado_sin_nombre);}</style><linearGradient id="Degradado_sin_nombre" x1="120.17" y1="57.16" x2="117.18" y2="371.03" gradientTransform="translate(-89.37 536.89) rotate(90) scale(1 -1)" gradientUnits="userSpaceOnUse"><stop offset=".21" stop-color="#f1ca9f"/><stop offset=".7" stop-color="#d77e31"/><stop offset=".99" stop-color="#a6481d"/></linearGradient></defs><g id="Capa_3"><g id="Capa_3-2"><path class="cls-11" d="M0,0H1200.8V800H0V0Z"/><g transform="translate(0,0) scale(1.2228525735511984)"><path class="cls-12" d="M705.13,368.08l.49-.12,.12,.73,1.96-.49,2.08,.12,1.59,.12,1.71-1.83,1.96-1.83,1.59-1.71,.49,.98,.37,2.2h-1.35l-.24,1.83,.49,.37-1.1,.49v1.1l-.73,1.1-.12,1.1-.49,.61-7.7-1.35-.98-2.81-.12-.61Z"/><path class="cls-12" d="M684.83,316.96l3.55-.49,.49,.86,.98,.61-.49,.86,1.35,1.1-.73,1.1,1.1,.86,1.1,.49v2.32l-.98,.12-1.1-1.83v-.49h-1.1l-.73-.86-.49,.12-.98-.98-1.83-.86,.24-1.59-.37-1.35Z"/><path class="cls-12" d="M616.96,291.77l-.24,1.59h-1.47l.49,.86-.86,2.45-.49,.61-2.2,.12-1.35,.86-2.08-.24-3.67-.98-.61-1.35-2.57,.61-.24,.73-1.59-.49-1.35-.12-1.1-.73,.37-.86-.12-.61,.73-.24,1.35,1.1,.37-.98,2.2,.12,1.83-.73,1.22,.12,.73,.73,.24-.61-.37-2.45,.86-.49,.86-1.83,1.83,1.22,1.47-1.59,.86-.24,1.96,1.22,1.22-.24,1.22,.73-.24,.49,.73,1.22Z"/><path class="cls-12" d="M622.1,303.88h.98l-.61,1.59,1.22,1.35-.37,1.71-.61,.12-.49,.37-.86,.86-.37,1.96-2.2-1.35-.98-1.47-.98-.73-1.22-1.35-.61-1.1-1.22-1.71,.49-1.47,.86,.86,.61-.73,1.22-.12,2.2,.61h1.71l1.22,.61Z"/><path class="cls-12" d="M809.93,374.19v1.96l-.86-.37,.12,2.2-.73-1.47-.12-1.35-.49-1.35-1.1-1.59-2.32-.12,.24,1.1-.86,1.47-1.1-.61-.37,.49-.73-.24-.98-.24-.37-2.2-.86-2.08,.49-1.71-1.59-.73,.61-.98,1.59-1.1-1.83-1.47,.86-1.96,2.08,1.22,1.22,.12,.24,1.96,2.45,.37h2.32l1.47,.49-1.22,2.32-1.1,.12-.73,1.59,1.35,1.47,.37-1.71h.73l1.22,4.4Z"/><path class="cls-12" d="M582.11,279.18l1.83,.37,2.32-.86,1.59,1.83,1.35,.98-.24,2.69-.61,.12-.24,2.2-2.2-1.83-1.35,.37-1.83-1.83-1.22-1.59-1.22-.12-.37-1.47,2.2-.86Z"/><path class="cls-12" d="M566.46,406.84l-1.71-.61-1.22,.12-.86,.61-1.1-.49-.49-.86-1.1-.61-.12-1.47,.73-1.1v-.86l2.08-2.2,.37-1.83,.73-.61,1.22,.37,1.1-.49,.37-.61,1.96-1.22,.49-.86,2.32-1.1,1.35-.37,.61,.49h1.59l-.24,1.22,.37,1.22,1.47,1.71,.12,1.22,2.93,.61v1.83l-.61,.73-1.22,.24-.49,1.1-.86,.24h-2.2l-1.22-.24-.86,.37-1.1-.24-4.4,.12v3.55Z"/><path class="cls-12" d="M631.52,306.08l.73,1.47,.98-.24,1.96,.49,3.79,.24,1.22-.86,3.06-.86,1.83,1.22,1.47,.37-1.35,1.47-.98,2.45,.86,1.96-2.2-.49-2.57,1.1v1.71l-2.32,.37-1.83-1.22-2.08,.98-1.83-.12-.12-2.2-1.22-1.1,.37-.49-.24-.37,.49-1.1,.98-1.1-1.22-1.47-.24-1.35,.49-.86Z"/><path class="cls-12" d="M648.51,442.79l-.12-3.06-.61-1.1,1.59,.24,.73-1.47,1.35,.12,.12,.98,.49,.61v.86l-.61,.49-.98,1.35-.98,.98h-.98Z"/><path class="cls-12" d="M580.52,415.53l-2.08,.24-.61-1.71,.12-5.87-.49-.49-.12-1.22-.86-.86-.73-.73,.37-1.35,.86-.24,.49-1.1,1.22-.24,.61-.73,.86-.73h.86l1.96,1.47-.12,.86,.61,1.59-.49,.98,.24,.73-1.22,1.59-.73,.73-.49,1.59,.12,1.59-.37,3.91Z"/><path class="cls-12" d="M864.84,419.93l.98-.98,2.2-1.35-.12,1.22-.12,1.59-1.22-.12-.49,.86-1.22-1.22Z"/><path class="cls-12" d="M413.6,488.65l-2.93-.12-.98,2.2-1.47-1.96-3.3-.61-2.08,2.45-1.83,.37-.98-3.79-1.35-3.06,.86-2.57-1.35-1.1-.37-1.96-1.22-1.83,1.59-2.81-1.1-2.2,.61-.86-.49-.98,.98-1.35v-2.2l.12-1.83,.49-.86-2.2-4.16,1.83,.24h1.35l.61-.73,2.2-1.1,1.35-.98,3.3-.49-.24,1.96,.37,.98-.24,1.71,2.81,2.32,2.81,.49,.98,.98,1.71,.49,1.1,.73h1.59l1.47,.73,.12,1.47,.49,.73v1.1h-.73l.98,3.06,4.89,.12-.37,1.47,.24,1.1,1.35,.73,.61,1.71-.49,2.08-.73,1.22,.24,1.59-.86,.61v-.86l-2.32-1.35h-2.32l-4.4,.73-1.22,2.32-.12,1.47-.98,3.3-.37-.73Z"/><path class="cls-12" d="M807.36,358.05l.98,.86-.12,1.71-2.08,.12-2.2-.24-1.59,.49-2.32-1.1v-.61l1.71-2.08,1.35-.73,1.83,.61,1.35,.12,1.1,.86Z"/><path class="cls-12" d="M639.1,479.11l.49,.49,.86,1.59,2.93,2.93,1.1,.24v.98l.73,1.71,1.96,.37,1.59,1.22-3.55,2.08-2.32,2.08-.86,1.83-.73,1.1-1.35,.24-.49,1.35-.24,.86-1.59,.61-2.08-.12-1.22-.73-1.1-.37-1.22,.61-.61,1.35-1.22,.86-1.22,1.22-1.83,.24-.61-.98,.24-1.71-1.47-2.69-.73-.37v-8.07l2.57-.12,.12-9.66,1.96-.12,3.91-.98,.98,1.1,1.59-1.1h.73l1.47-.61,.49,.24,.73,2.32Z"/><path class="cls-12" d="M322.5,97.71l-.24-5.38,3.3,.49,1.47,.86,3.06,4.52-.73,4.52-3.79,2.57-2.08-2.81-.98-4.77Zm12.11,11.49l.24-1.35-1.83-2.2-5.14-.12,.73,3.3,4.77,.73,1.22-.37Zm33.02,42.68l2.81,4.65,.73,.49,2.81-1.1,2.69,.12,2.69,.24-.24-2.45-4.4-4.89-5.87-.98-1.22,.61v3.3Zm-59.55-57.11l-2.45,3.79,5.63,.49,4.16,4.04,4.16,1.35-.98-5.14-1.96-6.11-6.85-4.89-5.01-1.83,.24,5.14,3.06,3.18Zm23.6-9.29l4.65-.12-1.96,3.67v4.77l2.69,5.26,5.26,1.59,4.52-.86,4.77-9.78,3.55-4.04-3.06-4.52-1.96-9.66-4.16-2.93-4.28-3.3-3.3-8.68-5.87,.86,1.1,3.79-2.57,1.1-1.71,4.89-1.71,6.73,1.59,6.6,2.45,4.65Zm-57.96,48.55l3.55,1.83,11.49-1.22-5.26,4.28,.37,3.18,3.91-.24,6.48-4.16,8.68-1.47,1.59-4.77-.49-5.01-2.69-.49-2.32,1.71-.98-3.79-.86-5.14-2.69-1.35-2.32,4.04,3.67,10.03-4.4-.73-4.52-6.11-7.21-3.67-2.45,3.06-3.55,10.03Zm20.54-38.28l-3.3-2.69-1.35-.61-2.57,3.91v1.83h4.28l2.93-2.45Zm-1.35,11.25l.86-3.67-3.55-1.96-3.67,1.22-2.08,3.91,3.79,3.79,4.65-3.3Zm26.41,30.2l4.16-.98,1.1-7.46-.12-5.38-1.96-5.01-.24,1.47-3.55-.61-3.79,3.67-2.69-.37,.12,8.07,4.16-.73v5.87l2.81,1.47Zm-2.93,41.45l-4.65-3.55-4.28-3.79-.73-5.63-1.59-8.07-2.81-3.55-2.57-1.35-2.2,1.35,1.83,8.68-1.22,3.42-2.08-8.19-2.32-2.81-2.93,4.4-3.55-4.28-5.63,2.57,1.22-4.04-2.57-1.71-6.85,5.26-1.83,3.42-2.08,6.11,4.4,2.08,3.91-.12-5.87,3.18,1.35,2.81,3.67,.12,5.5-.61,4.89,1.83-3.3,1.35-3.55-.37-3.91,1.22-1.71,.73,3.18,5.75,2.32-.86,3.42,1.96,1.35,3.3,4.52-.61,6.48-1.1,4.77-2.45,2.93-.49,4.4,1.96,4.65,1.1,.86-2.57-1.59-2.81,4.16-.61v-3.06h0Zm6.97-.86l-1.83,3.18-2.2,2.2,3.42,3.18,2.08-.73,3.42,2.2,1.59-2.45-1.59-2.81-.73-1.35-1.59-1.35-2.57-2.08Zm-16.02-26.78l-1.96-1.96-3.42,.37-.86,1.22,4.04,6.11,2.2-5.75Zm26.17,11.98l2.69-6.24,3.06-1.71,3.79-7.95-4.89-2.2-5.26-.37-2.57,2.57-1.35,3.79v4.4l1.59,7.46,2.93,.24Zm15.53-20.91l5.26-.12,7.34-1.47,3.3,1.1,3.79-2.08,1.59-2.57-.61-4.16-2.69-3.79-4.16-.73-5.14,.86-4.04,2.2-3.67-.86-3.42-.49-1.59-2.45-2.93-2.32,.61-4.04-2.2-3.67h-5.01l-2.81-3.67-5.26-.73-.98,4.65,2.93,3.42,5.26,1.35,2.57,4.65,.37,5.14,.86,5.5,6.73,3.06,3.91,1.22Zm-80.95-16.63l4.77-4.65,2.32-.49,1.96-3.79,.37-8.93-3.55,1.71-3.91-.12-5.26,7.46-4.28,8.19,3.42,2.32,4.16-1.71Zm65.67,14.8l1.35-3.79-.98-3.18-2.2-3.55-3.67,2.69-1.35,4.52,3.06,2.57,3.79,.73Zm-7.58,10.39l-.61-2.57-4.52,1.1-3.06-1.96-3.06,4.4,2.81,5.75-5.26-1.1v2.69l6.36,6.36,1.71,3.06,2.45,.61,4.16-3.06,.49-7.46-3.91-3.67,2.45-4.16Zm-67.26,139.65l-1.1-2.08-2.57-1.59-1.22-1.83-.86-1.35-2.45-.37-1.59-.61-2.69-.86-.24,.98,.98,2.2,2.57,.73,.49,1.1,2.32,1.35,.73,1.35,4.16,1.71,1.47-.73Zm110.67-70.56l-1.83-1.96-1.83,.49-.24-2.81-2.93-1.83-2.81-2.08-1.47-1.47-1.35,.98-.49-2.69-1.83-.49-.86,5.63-.37,4.65-2.2,2.81,3.42-.49,.86,3.3,3.67-2.93,2.57-3.06,1.47,2.57,3.91,1.35,2.32-1.96Zm-109.57-47.69l6.73-3.79v-3.55l3.18-5.87,6.24-6.11,3.18-2.2-2.69-3.79-2.45-2.69-6.48-.49-3.67-1.96-8.56,1.47,2.45,5.63-2.2,5.87-1.71,6.24-1.1,3.55,5.87,4.28,1.22,3.42Zm122.04,24.82l.24-.98v-2.93l-1.96-1.83-2.32,.98-1.1,3.79,.61,3.18,2.81-.37,1.71-1.83Zm21.64,6.85l4.04,5.99,3.18,2.57,4.52-7.09,.73-4.52-4.04-.49-3.67-6.11-4.04-1.47-5.99-4.52,4.65-3.3-2.45-6.85-2.2-3.06-6.11-3.06-2.69-5.01-4.77,1.83-.37-3.55-3.55-3.91-5.63-4.28-2.45,3.42-5.01,2.45,.37-5.5-4.4-9.17-6.48,3.67-2.32,6.97-1.96-5.38,1.83-5.75-6.6,2.45-2.57,3.67-1.96,7.7,.86,8.19h3.67l-2.69,3.55,2.08,2.69,4.16,1.1,5.38,2.2,9.29,1.71,4.65-.98,1.35-2.2,1.96,2.57,2.2,.37,2.69,4.52-1.59,1.83,5.14,2.45,3.91,3.3,.98,2.32,.73,2.93-3.3,6.24-.86,3.18,.86,2.2-5.26,.73-4.77,.12-1.71,4.4,2.2,2.08,7.34-.98v-1.71l3.67,2.81,3.79,2.93-.86,1.59,3.06,2.69,5.5,3.18,6.97,2.2-.37-1.96-2.69-3.3-3.55-4.89,6.36,4.52,3.18,1.47,.86-4.04-1.71-5.75-1.1-1.59-3.42-2.81-2.69-3.55,.37-3.55,3.3-.49Zm-59.92-146.86l2.08,6.6,4.52,5.38,8.93-.98,5.75,1.83-4.04,5.5-1.96-1.59-6.97-.61,1.1,7.58,3.55,5.5-.73,4.77-4.52,3.18-2.08,5.01,4.16,2.45,3.42,7.83-6.85-5.14-1.59,.86,1.22,8.56-4.77,2.57,.37,5.26,4.77,.61,3.79,1.35,7.46-1.71,6.6,2.93,6.85-6.48v-2.69l-4.4,.49-.37-2.57,3.55-3.42,1.22-4.65,3.91-3.42,2.45-4.28-2.08-6.48,1.71-2.45-3.55-1.71,7.7-1.47,1.59-2.81,5.26-2.32,4.4-12.23,4.16-4.52,5.99-10.15-5.5,.12,2.32-3.91,6.11-3.67,6.24-8.07,.12-5.26-4.65-5.5-5.5-2.69-6.85-1.71-5.5-1.35-5.5-1.35-7.34,3.67-1.35-2.32-7.83,.86-4.52,2.32-3.42,3.3-1.96,10.64-2.81-5.38-3.18-.98-3.79,7.21-5.01,3.06-2.93,.61-3.79,3.55,.61,5.99,3.42,4.28Zm67.62,240.9l-.86-1.83-.98,1.1,.61,1.22,3.18,1.59,.98-.24,1.22-1.47-2.32,.12-1.83-.49Zm-51.73-70.8l.61,1.47,1.83,.12,2.93-3.06v-1.1h-3.55l-1.83,2.57Zm56.5,60.41l-2.57-1.59-3.3-.98-.86,.37,2.32,1.83,3.3,1.22,1.22-.12-.12-.73Zm22.62,4.28l-.37-2.08-1.83,.61,.73-2.81-2.57-1.22-1.22,.98-2.2-1.1,.86-1.35-1.71-.86-1.71,1.35,1.71-3.42,1.35-2.57,.49-1.1-1.22-.12-2.2,1.35-1.59,2.32-2.69,6.24-2.08,2.32,1.1,1.1-1.59,1.35,.37,1.1,4.89,.12,2.69-.24,2.45,.86-1.83,1.71,1.47,.12,2.93-3.3,.73,.49-.61,3.06,1.71,.73,1.1-.12,1.1-3.3-.24-2.2Zm-19.32,4.4l-2.57,4.16-4.16,.49-3.3-1.83-.86-2.81-.86-4.04,2.45-2.57-2.2-1.96-3.79,.37-5.38,3.18-4.04,5.01-2.2,.61,2.93-3.42,3.67-5.01,3.3-1.71,2.08-2.81,2.69-.24h3.79l5.5,.86,4.28-.61,3.18-3.3,4.16-1.47,1.83-1.47,1.83-1.59-.24-4.77-.98-1.59-1.96-.61-.98-3.67-1.59-1.47-4.04-1.1-2.32-2.57-3.42-2.57,.98-2.93-2.81-5.75-3.3-6.24-1.96-4.52-1.71,2.32-2.45,5.5-3.67,2.69-1.83-2.81-2.32-.73-.86-6.36,.12-4.4-4.52-.37-.73-2.08-3.18-3.18-2.32-1.83-2.08,1.47-2.57-.49-4.4-1.47-1.83,1.22,.86,8.32,1.1,4.65-3.06,5.26,3.06,3.67,1.71,4.04,.24,3.06-1.47,3.18-2.93,3.18-4.04,2.08,1.83,2.32,1.35,6.73-1.35,4.28-1.96,1.35-3.79-3.91-1.83-4.65-.73-4.28,.37-3.79-2.81-.49-4.16-.24-2.69-1.83-3.18-1.22-1.83-2.2-2.57-1.71-4.77-2.08-3.55,.98-1.22-3.55-1.1-4.52-3.79-.86,.12-5.87,.98-4.04,2.81-5.99,3.18-4.4,2.93-.73,.12-3.67,1.96-2.45,3.67-.37,2.93-4.04,.73-2.69,2.45-5.26,.73-3.18,2.69,1.96,3.55-.98,5.01-4.52,.37-3.18-1.83-3.67,1.96-3.67-.12-3.55-3.42-3.55-3.79-1.1-3.67-.61-.12,7.95-1.83,5.99-2.69,4.77-2.45-4.52,.73-5.14-3.06-4.52-3.42,5.5v-7.21l-4.77-1.47,2.2-3.67-3.42-8.68-2.57-3.55-3.3-1.35-3.06,5.87-.24,8.44,2.93,2.93,2.69,4.4-1.1,6.97-2.08-.24-1.59,5.38v-6.36l-3.91-2.32-2.32,1.22,.24,4.28-3.67-.12-3.91,1.1-4.52-3.06-2.81,.49-2.57-3.79-2.08-1.71-2.08,.73-3.06,.37-1.59,2.32,2.57,2.93-2.81,3.42-2.69-4.04-2.2,1.22-6.85,.73-4.65-1.47,3.55-3.42-3.42-3.55-2.45,.49-3.55-1.22-5.99-2.57-3.91-3.06-3.06-.37-.98,2.2-3.18,1.22-.37-5.63-3.42,5.01-4.28-6.6-1.71-.86-.61,3.55-1.96,1.71-1.71-3.06-4.16,1.83-3.79,3.18-3.79-.86-3.06,2.32-2.2,2.93-2.69-.61-4.04-3.42-4.77-1.71v57.35l2.57,.12,2.45,1.47,1.83,2.2,2.32,3.3,2.45-2.81,2.57-1.59,1.35,2.57,1.71,2.08,2.32,2.2,1.59,3.42,2.57,5.38,4.28,2.93,.12,2.81-1.47,2.2v2.2l3.06,3.18,.49,3.42,3.3,1.83-.37,2.57,1.47,3.55,4.65,1.71,1.83,1.71,4.89,3.79h70.93v-1.47h.86l.49,2.08,.73,.61,1.83,.24,2.57,.61,2.45,1.22,2.08-.49,3.18,.98,.98-1.47,1.47-.61,.61-.98,.61-.49,2.32,.73,1.71,.12,.61,.49,.86,2.2,2.81,.61-.49,1.1,.98,1.1-.49,1.47,1.1,.49-.49,1.22,.73,.12,.49-.49,.49,.86,1.96,.49h1.96l2.08,.37,2.32,.73,.86,1.1,1.59,2.81-.86,1.22-2.08-.49-1.35-2.2,.37,2.2-1.22,1.96,.12,1.71-.24,.98-1.59,1.1-1.22,1.96-.61,1.22,1.35,.24,1.83-1.1,1.1-.98,.73-.12,1.35,.37,.73-.49,1.22-.49,2.2-.37h0l-.24-1.1h-.12l-.73,.12-.98-.37,.73-1.22,.73-.37,1.83-.49,2.2-.49,1.1,.61,.73-.73,.86-.49,.49,.24h0l2.57-2.45,1.1-.61h8.56l.24-.86,.86-.12,1.1-.61,.86-1.71,.73-2.81,1.96-2.81,.86,.98,1.71-.61,1.1,1.1v5.01l1.71,2.08,2.81-.49,4.04-.12-4.4,2.93,.12,2.93,1.96,.24,2.81-2.57,2.57-1.47,5.63-2.08,3.18-2.32-1.59-1.35,.12-3.18Zm-48.79-64.69l.98-2.81-.61-1.1-1.1-.12-.98,1.59-.12,.37,.61,1.59,1.22,.49Zm-129.62,33.14h0l1.47-2.08-1.47,2.08Z"/><path class="cls-12" d="M652.3,422.5l-.12,2.93,.98,.37-.86,.86-.98,.73-.98,1.35-.49,1.22-.12,2.08-.61,.98v1.96l-.73,.73-.12,1.47-.37,.24-.24,1.35,.61,1.1,.12,3.06,.49,2.32-.24,1.35,.49,1.47,1.47,1.47,1.35,3.18-.98-.24-3.42,.49-.73,.37-.73,1.59,.61,1.1-.49,3.06-.37,2.57,.73,.49,1.83,.98,.73-.49,.24,2.81h-1.96l-1.1-1.47-.98-1.1-1.96-.37-.61-1.35-1.59,.86-2.08-.37-.86-1.22-1.59-.24-1.22,.12-.12-.86-.86-.12-1.1-.12-1.59,.37-1.1-.12-.61,.24,.12-3.06-.86-.98-.24-1.59,.37-1.59-.49-.98v-1.59h-3.06l.24-.98h-1.35l-.12,.49-1.59,.12-.61,1.47-.37,.61-1.47-.37-.86,.37-1.71,.24-.98-1.35-.61-.86-.73-1.59-.61-1.96h-7.58l-.86,.24h-.73l-1.1,.37-.37-.73,.61-.24,.12-1.1,.37-.61,.98-.49,.61,.24,.86-.98h1.35l.12,.73,.98,.49,1.47-1.59,1.47-1.22,.61-.86-.12-2.08,1.1-2.45,1.22-1.35,1.71-1.22,.24-.86,.12-.98,.37-.86-.12-1.47,.37-2.2,.49-1.59,.73-1.35,.12-1.59,.24-1.71,.98-1.35,1.35-.86,2.08,.86,1.59,.98,1.83,.24,1.96,.49,.73-1.59,.37-.24,1.1,.24,2.81-1.22,.98,.49,.86-.12,.37-.61,.98-.24,1.96,.24h1.59l.86-.24,1.59,2.08,1.1,.37,.73-.37,1.22,.12,1.47-.49,.61,1.1,2.69,1.96Z"/><path class="cls-12" d="M598.13,294.1l.12,.61-.37,.86,1.1,.73,1.35,.12-.24,1.47-1.1,.61-1.83-.49-.61,1.47-1.22,.12-.49-.61-1.47,1.22-1.22,.12-1.1-.73-.86-1.59-1.22,.61v-1.71l1.83-2.08-.12-.98,1.1,.37,.73-.61h2.2l.49-.86,2.93,1.35Z"/><path class="cls-12" d="M566.46,418.7h-1.1l-1.83-.49h-1.59l-3.06,.49-1.71,.73-2.57,.98-.49-.12,.24-2.08,.24-.37-.12-.98-1.1-1.1-.86-.12-.73-.73,.61-1.1-.24-1.22,.12-.73h.37l.12-1.1-.24-.49,.24-.37,.98-.37-.61-2.08-.61-1.1,.24-.86,.49-.24,.37-.24,.73,.37h1.96l.49-.73h.49l.73-.24,.37,1.1,.61-.37,1.1-.37,1.1,.61,.49,.86,1.1,.49,.86-.61,1.22-.12,1.71,.61,.73,3.67-1.1,2.2-.61,2.93,1.1,2.2-.24,1.1Z"/><path class="cls-12" d="M398.81,588.93v9.66h2.69l1.59,.12-.86,1.83-2.2,1.35-1.22-.12-1.47-.37-1.83-1.35-2.69-.61-3.18-2.45-2.57-2.32-3.55-4.77,2.08,.86,3.55,2.81,3.42,1.59,1.35-1.96,.86-2.93,2.32-1.71,1.71,.37Zm1.1-101.74l.98,3.79,1.83-.37,.37,.73-.86,2.81-2.81,1.35,.12,4.65-.49,.86,.73,1.1-1.83,1.71-1.71,2.69-.86,2.69,.24,2.81-1.59,3.06,1.22,5.14,.61,.61v2.81l-1.47,3.06v2.57l-1.96,2.08v2.93l.73,3.18-1.47,1.22-.73,2.93-.61,3.42,.49,4.16-.98,.73,.61,4.04,1.1,1.35-.86,1.47,1.22,.73,.24,1.35-1.1,.73,.24,2.08-.98,4.89-1.35,3.18,.24,1.96-.86,2.45-1.96,1.71,.24,4.16,.86,1.47,1.71-.24v3.06l1.1,2.45,6.11,.61,2.32,.61h-2.32l-1.22,.98-2.32,1.47-.37,4.04-1.1,.12-2.93-1.35-2.93-2.93h0l-3.18-2.45-.86-2.57,.73-2.32-1.22-2.69-.37-6.73,1.1-3.67,2.69-2.93-3.91-1.1,2.45-3.3,.86-5.99,2.81,1.22,1.35-7.21-1.71-.86-.86,4.28-1.59-.49,.86-4.89,.86-6.24,1.22-2.2-.73-3.18-.24-3.67,1.1-.12,1.59-5.14,1.71-4.89,1.1-4.52-.61-4.52,.73-2.45-.24-3.55,1.47-3.55,.49-5.5,.86-5.75,.86-6.11-.24-4.4-.49-3.79,1.35-.73,.73-1.35,1.22,1.83,.37,1.96,1.35,1.1-.86,2.57,1.59,2.81Z"/><path class="cls-12" d="M364.08,371.01l2.2,.24h1.96l2.45,.98,.98,.98,2.32-.37,.86,.61,2.2,1.71,1.59,1.22h.86l1.47,.61-.24,.73,1.83,.12,1.96,1.1-.24,.61-1.71,.37-1.71,.12-1.71-.24-3.67,.24,1.71-1.47-.98-.73-1.59-.12-.86-.73-.61-1.59-1.47,.12-2.32-.73-.73-.61-3.3-.37-.86-.49,.98-.73-2.45-.12-1.83,1.47h-1.1l-.37,.61-1.22,.24-1.1-.24,1.35-.86,.61-.98,1.1-.61,1.35-.49,1.96-.24,.37-.37Z"/><path class="cls-12" d="M660.13,335.8l1.71-1.35-2.32,.98h-1.83l-.37,.73h-.12l-1.22,.12,.61,1.22,1.22,.37,2.57-1.22-.12-.24-.12-.61Z"/><path class="cls-12" d="M369.09,439.98l1.35-1.83-.61-1.1-.98,1.22-1.47-1.1,.49-.73-.49-2.32,.86-.37,.49-1.59,.98-1.59-.12-.98,1.35-.49,1.71-.98,2.57,1.47h.49l.61,1.1,2.2,.37,.73-.37,1.22,.86,1.1,.61,.37,1.96-.73,1.59-2.81,2.69-3.06,.98-1.59,2.2-.49,1.71-1.47,1.1-1.1-1.22-.98-.24-1.1,.24-.12-.98,.73-.61-.12-1.59Z"/><path class="cls-12" d="M635.67,250.81l.24-2.81-.98,.61-1.59-1.71-.24-2.81,3.18-1.35,3.18-.73,2.81,.86,2.69-.12,.37,.86-1.83,2.81,.73,4.52-1.1,1.47h-2.08l-2.2-1.71-1.1-.61-2.08,.73Z"/><path class="cls-12" d="M681.65,399.38l-.86-.86-1.1-1.47-1.1-.86-.61-.86-2.2-1.1h-1.71l-.61-.49-1.47,.61-1.59-1.22-.86,1.96-2.93-.49-.24-1.1,1.1-3.91,.24-1.71,.86-.86,1.83-.49,1.35-1.47,1.47,3.06,.73,2.45,1.35,1.22,3.42,2.45,1.47,1.47,1.35,1.47,.86,.86,1.22,.73-.73,.61h-1.22Z"/><path class="cls-12" d="M550.69,314.27l.12-2.45-1.1-1.47,3.55-2.57,3.18,.61h3.42l2.69,.61,2.08-.24,4.16,.12,.98,1.35,4.65,1.59,.98-.73,2.81,1.59,2.93-.49,.12,1.96-2.45,2.2-3.3,.73-.24,1.1-1.59,1.83-.98,2.69,.98,1.83-1.47,1.47-.61,2.08-1.96,.61-1.83,2.45h-5.63l-1.59,1.1-.98,1.22-1.22-.24-.61-.86-.73-1.83-2.32-.49-.24-1.1,.98-1.22,.37-.86-.86-.98,.73-2.08-.98-1.96,1.1-.24,.12-1.59,.37-.49v-2.57l1.22-.86-.73-1.71-1.47-.12-.49,.49h-1.47l-.61-1.71-1.1,.49-.98,.73Z"/><path class="cls-12" d="M646.56,185.75l-.37,4.89,3.91,4.52-2.32,5.01,2.93,7.21-1.71,5.26,2.32,4.4-1.1,3.79,3.79,3.91-.98,2.81-2.32,3.18-5.5,6.73-4.65,.37-4.52,1.83-4.16,1.1-1.47-2.81-2.45-1.71,.61-5.26-1.22-4.89,1.22-3.3,2.32-3.55,5.87-6.36,1.71-1.22-.24-2.57-3.55-2.93-.86-2.45-.12-10.15-4.04-4.65-3.42-3.42,1.47-1.96,2.81,3.79,3.3-.37,2.69,1.71,2.45-3.18,1.22-5.38,3.91-2.57,3.3,2.93-.86,5.26Z"/><path class="cls-12" d="M1032.98,472.51l-.37,1.22-.24,.12-1.59,.61-1.59,.61-.37-.98,1.22-.49,.86-.12,1.47-.86,.61-.12Zm-5.26,3.91l-1.1-.37-.98,.86,.24,1.22,1.35,.37,1.59-.37,.37-1.35-.86-.73-.61,.37Z"/><path class="cls-12" d="M598.13,313.29l-.86,2.69-1.1-.73-.61-2.32,.49-1.22,1.59-1.35,.49,2.93Zm-15.29-30.2l1.83,1.83,1.35-.37,2.2,1.83,.61,.37,.73-.12,1.22,.98,3.67,.73-1.35,2.69-.37,2.69-.73,.61-1.1-.37,.12,.98-1.83,2.08v1.71l1.22-.61,.86,1.59-.12,.98,.73,1.35-.86,1.1,.61,2.81,1.35,.49-.24,1.59-2.32,1.96-5.01-.98-3.67,1.1-.24,2.08-2.93,.49-2.81-1.59-.98,.73-4.65-1.59-.98-1.35,1.35-2.08,.49-7.21-2.69-3.91-1.83-1.96-3.91-1.47-.24-2.81,3.3-.86,4.28,.98-.86-4.4,2.45,1.71,5.99-3.06,.73-3.3,2.2-.86,.37,1.47,1.22,.12,.86,1.83Z"/><path class="cls-12" d="M679.57,315.5l.37-1.47-.61-2.32-1.47-1.22-1.47-.37-.98-1.1,.37-.37,2.2,.61,3.79,.61,3.42,1.71,.49,.61,1.59-.49,2.32,.73,.73,1.47,1.59,.73-.61,.49,1.22,1.83-.37,.37-1.35-.24-1.96-.98-.61,.61-3.55,.49-2.45-1.71h-2.69Z"/><path class="cls-12" d="M439.77,425.06l-.98,.98-1.22,.12-.37-.73-.61-.12-.73,.73-1.1-.49,.61-1.1,.24-1.1,.49-1.1-.98-1.47-.24-1.71,1.35-2.2,.86,.24,1.83,.61,2.69,2.2,.37,1.1-1.47,2.32-.73,1.71Z"/><path class="cls-12" d="M576.37,416.38l-4.04,1.47-1.47,.86-2.32,.73-2.32-.73,.12-.98-1.1-2.2,.61-2.93,1.1-2.2-.73-3.67-.37-1.96v-1.47l4.4-.12,1.1,.24,.86-.37,1.22,.24-.24,.86,1.1,1.35v1.83l.24,2.08,.61,.98-.61,2.32,.24,1.22,.73,1.59,.86,.86Z"/><path class="cls-12" d="M454.57,31.92l8.56-12.35,8.93,.98,3.3-8.19,9.05-2.2,20.3,2.81,15.9,16.88-4.65,7.58-9.78,.86-13.7,1.83,1.22,3.3,9.05-2.08,7.7,6.24,4.89-5.63,2.08,6.48-2.81,10.03,6.48-6.24,12.35-6.85,7.58,3.42,1.47,7.34-10.39,11.49-1.47,3.55-8.19,2.57,5.87,.73-2.93,10.52-2.08,8.68,.12,13.82,3.06,7.58-4.04,.49-4.16,3.55,4.65,5.75,.61,8.8-2.69,.98,3.3,8.32-5.63,.73,2.93,3.79-.86,3.18-3.55,1.35h-3.55l3.18,5.87v3.79l-5.01-3.42-1.35,2.32,3.42,2.08,3.3,5.01,.98,6.36-4.52,1.47-1.96-2.93-3.18-4.52,.86,5.38-2.93,4.04,6.73,.37,3.55,.37-6.85,6.36-6.97,5.63-7.46,2.32h-2.81l-2.69,2.57-3.55,6.97-5.5,4.4-1.71,.24-3.42,1.47-3.67,1.47-2.2,3.79v4.16l-1.35,3.79-4.16,4.52,.98,4.28-1.1,4.4-1.35,5.01-3.55,.37-3.79-4.16h-5.14l-2.45-2.93-1.71-5.26-4.4-6.97-1.35-3.79-.37-5.38-3.55-5.75,.98-4.65-1.71-2.32,2.57-7.83,3.79-2.57,.98-2.93,.49-5.75-2.93,2.57-1.35,1.1-2.32,.98-3.18-2.32-.12-5.01,.98-4.04,2.32-.12,5.26,2.08-4.4-4.89-2.32-2.69-2.57,1.1-2.08-1.96,2.81-7.7-1.59-3.18-2.08-6.11-3.06-9.91-3.3-3.79v-4.16l-6.85-6.11-5.38-.73-6.85,.49-6.24,.73-2.93-3.42-4.4-6.97,6.73-3.67,5.14-.61-10.88-3.06-5.75-4.89,.37-4.89,9.66-6.24,9.29-6.48,.98-5.14-6.85-5.26,2.2-5.99,8.8-11.25,3.67-1.83-1.1-7.83,5.99-4.77,7.83-2.93,7.83-.12,2.81,5.75,6.73-10.27,6.11,7.09,3.55,1.47,5.26,5.87-6.11-9.78,1.34-8.8Z"/><path class="cls-12" d="M530.75,397.79l.37-1.1,2.81-.12,.61-.61h.86l.98,.61h.73l.86-.49,.49,.73-1.1,.61h-1.1l-1.1-.49-.98,.61h-.49l-.61,.37-2.32-.12Z"/><path class="cls-12" d="M552.15,411.86l-.73-.12-.49,.98h-.73l-.49-.49,.12-.98-1.1-1.59-.61,.24h-.49l-.73,.12v-.98l-.37-.61,.12-.73-.61-1.1-.73-.98h-2.08l-.61,.49h-.73l-.49,.61-.24,.73-1.35,1.1-1.1-1.47-.98-.98-.61-.37-.61-.49-.24-1.1-.37-.61-.73-.37,1.1-1.22h.73l.61-.49h.61l.37-.37-.24-.86,.24-.24v-.86h1.22l1.83,.61h.61l.24-.24,1.35,.24,.37-.12,.12,.98h.37l.61-.37,.37,.12,.73,.61,1.1,.24,.73-.61,.86-.37,.61-.37,.49,.12,.61,.61,.24,.73,1.1,1.1-.49,.61-.12,.86,.49-.24,.37,.24-.12,.73,.73,.73-.49,.24-.24,.86,.61,1.1,.61,2.08-.98,.37-.24,.37,.24,.49-.12,1.1-.24-.12Z"/><path class="cls-12" d="M597.89,428.85l-.49-.37,.86-2.81h4.16v3.06h-3.67l-.86,.12Z"/><path class="cls-12" d="M535.16,403.3l-1.35-1.1-1.1-.12-.61-.73v-.37l-.73-.49-.12-.61,1.35-.37,.86,.12,.73-.24,4.77,.12v.86l-.24,.24,.24,.86-.37,.37h-.61l-.61,.49h-.73l-1.47,.98Z"/><path class="cls-12" d="M421.43,410.14l1.71,.98,1.59,1.71,.12,1.35h.98l1.35,1.22,.98,.86-.37,2.32-1.59,.61,.12,.61-.49,1.35,1.1,1.83h.86l.37,1.47,1.59,2.2-.61,.12-1.47-.24-.86,.73-1.1,.49-.86,.12-.24,.49-1.22-.12-1.59-1.22-.24-1.22-.61-1.22,.37-2.2,.73-.86-.61-1.22-.86-.37,.37-1.1-.61-.61-1.35,.12-1.71-1.96,.73-.73v-1.22l1.59-.37,.61-.49-.86-.98,.24-.98,1.83-1.47Z"/><path class="cls-12" d="M351.24,398.16l-.49-.86-.73-.24,.12-1.1-.37-.24-.49-.24-1.1,.37-.12-.37-.73-.37-.49-.49-.73-.24,.49-.61-.24-.49,.12-.49,1.22-.73,1.22-.98,.24,.12,.61-.49h.73l.24,.24,.37-.12,1.22,.24,1.22-.12,.86-.24,.24-.24,.86,.12,.61,.12,.61-.12,.49-.24,1.22,.37h.37l.73,.49,.73,.61,.98,.37,.61,.73h-.86l-.37,.37-.86,.37h-.61l-.61,.37-.49-.12-.49-.37h-.37l-.37,.61h-.24v.49l-.86,.73-.49,.37-.24,.37-.73-.49-.49,.73h-1.1v1.22h-.37l-.37,.61h-.73Z"/><path class="cls-12" d="M621.73,300.09l.61,1.47,.86,.98-.98,1.35-1.1-.73h-1.71l-2.2-.61-1.22,.12-.61,.73-.86-.86-.49,1.47,1.22,1.71,.61,1.1,1.22,1.35,.98,.73,.98,1.47,2.2,1.35-.24,.61-2.45-1.22-1.47-1.22-2.32-.98-2.2-2.57,.49-.24-1.22-1.47v-1.22l-1.59-.61-.73,1.59-.73-1.22v-1.22h.12l1.83,.12,.49-.61,.86,.61,.98,.12v-.98l.86-.37,.24-1.47,2.08-.98,.86,.49,1.96,1.59,2.08,.73,.61-1.1Z"/><path class="cls-12" d="M387.19,379.94l1.59,.12,2.2,.37,.24,1.47-.24,.98-.61,.49,.61,.86v.73l-1.71-.49-1.22,.24-1.59-.24-1.22,.49-1.35-.86,.24-.86,2.32,.37,1.96,.24,.98-.61-1.22-1.1v-.98l-1.59-.37,.61-.86Z"/><path class="cls-12" d="M557.9,268.54l.37,3.06-1.96,3.79-4.52,2.45-3.67-.61,2.08-4.4-1.35-4.28,3.42-3.42,1.96-2.08,.49,2.32-.49,2.32h1.59l2.08,.86Z"/><path class="cls-12" d="M664.78,343.62l-.49,.98-.98-.37-.49,1.96,.61,.37-.61,.37-.12,.73,1.22-.37v1.1l-1.22,4.65-1.71-5.01,.73-.98-.12-.12,.73-1.35,.49-2.32,.37-.73h.98l.24-.49h.73v1.22l-.37,.37h0Z"/><path class="cls-12" d="M711.12,329.68l2.2-.61,1.83-1.83,1.71,.12,1.1-.61,1.83,.24,2.81,1.59,2.08,.37,2.93,2.81,1.96,.12,.24,2.69-.98,3.91-.73,2.2,1.1,.49-1.1,1.71,.86,2.45,.24,1.83,1.96,.49,.24,1.96-2.32,2.69,1.22,1.59,.98,1.71,2.45,1.22,.12,2.57,1.22,.49,.24,1.35-3.67,1.47-.98,3.3-4.77-.86-2.81-.61-2.93-.37-1.1-3.42-1.22-.49-1.96,.49-2.57,1.35-3.06-.98-2.57-2.2-2.45-.86-1.71-2.69-1.83-3.91-1.35,.49-1.96-1.22-.98,1.1-1.47-1.59v-1.59h-.86l.37-2.2-1.35-2.32-3.18-1.71-1.71-2.93,.61-2.45,1.22-1.1-.24-1.83-1.71-.98-1.59-3.79-1.35-2.57,.49-.98-.86-3.79,1.71-.98,.37,1.22,1.35,1.47,1.71,.49,.98-.12,3.06-2.45,.98-.24,.73,.98-.86,1.59,1.59,1.71,.61-.12,.86,2.32,2.45,.61,1.71,1.59,3.67,.49,4.04-.86h.37Z"/><path class="cls-12" d="M536.74,203.24l-.61,4.04,2.93,4.16-3.3,4.52-7.34,4.04-2.2,1.1-3.3-.86-7.09-1.83,2.57-2.57-5.5-2.93,4.52-1.22-.12-1.83-5.38-1.47,1.71-4.04,3.91-.98,3.91,4.28,3.91-3.42,3.18,1.83,4.16-3.42,4.04,.61Z"/><path class="cls-12" d="M664.29,344.6l.49-.98,2.81,1.22,5.01-3.18,.98,3.67-.49,.49-5.14,1.47,2.57,2.93-.86,.49-.37,.98-1.96,.37-.61,1.1-1.1,.86-2.81-.49-.12-.37,1.22-4.65v-1.1l.37-.86v-1.96h0Z"/><path class="cls-12" d="M916.81,339.22l.37,1.1-1.47,1.83-1.1-.98-1.35,.73-.73,1.71-1.71-.86v-1.47l1.47-1.83,1.47,.37,1.1-1.35,1.96,.73Zm16.14-9.29l-.98,2.57,.49,1.59-1.35,2.2-3.3,1.47-4.52,.24-3.67,3.55-1.71-1.22-.12-2.32-4.4,.73-3.06,1.47h-2.93l2.57,2.2-1.71,5.14-1.59,1.22-1.22-1.1,.61-2.69-1.59-.86-.98-2.08,2.45-.98,1.35-1.96,2.57-1.59,1.83-2.08,5.01-.98,2.69,.61,2.69-5.63,1.71,1.47,3.79-3.18,1.47-1.22,1.59-4.04-.49-3.67,1.1-2.08,2.69-.61,1.35,4.65-.12,2.69-2.32,3.3,.12,3.18Zm7.58-23.6l1.83,.73,1.83-1.47,.61,3.91-3.79,.98-2.2,3.42-4.04-2.32-1.59,3.67h-2.81l-.37-3.42,1.22-2.69,2.69-.24,.73-4.89,.73-2.81,2.93,3.79,2.2,1.35Z"/><path class="cls-7" d="M678.23,433.5l1.47,2.08-1.83,.98-.61,1.1-.98,.24-.37,1.83-.86,.98-.49,1.71-.98,.86-3.67-2.57-.12-1.47-9.29-5.14-.49-.24v-2.69l.73-.98,1.22-1.71,.98-1.83-1.1-2.93-.24-1.22-1.22-1.71,1.59-1.47,1.71-1.71,1.35,.37v1.47l.86,.86h1.83l3.18,2.2h.86l.61-.12,.61,.24,1.71,.24,.73-1.1,2.32-1.1,.98,.86h1.71l-2.2,2.93v9.05h0Z"/><path class="cls-12" d="M906.66,312.56l.37,.61-.98-.24-1.1,1.1-.73,1.1,.12,2.45-1.35,.73-.49,.61-.98,.98-1.71,.49-1.1,.86-.12,1.47-.24,.37,.98,.49,1.47,1.47-.37,.73-1.1,.24-1.83,.12-.98,1.47-1.1-.12-.12,.24-1.22-.61-.37,.61-.73,.24-.12-.61-.61-.24-.73-.49,.73-1.47,.61-.37-.24-.61,.61-1.71-.12-.49-1.47-.37-1.22-.86,2.08-2.08,2.81-1.83,1.71-2.45,1.22,1.1,2.2,.12-.37-1.83,3.91-1.47,.98-1.96,1.71,2.2Z"/><path class="cls-12" d="M900.79,325.16l2.2,3.79,.61,2.08v3.67l-.98,1.71-2.32,.61-2.08,1.22-2.32,.24-.24-1.71,.49-2.32-1.1-3.3,1.83-.49-1.71-2.69,.12-.24,1.1,.12,.98-1.47,1.83-.12,1.1-.24,.49-.86Z"/><path class="cls-12" d="M665.02,341.91h-.73l-.24,.49h-.86l.86-2.45,1.22-2.2v-.12l1.1,.12,.37,1.22-1.35,1.1-.37,1.83Z"/><path class="cls-12" d="M782.17,412.22l-.37,2.69-1.1,.73-2.2,.61-1.22-2.08-.49-3.67,1.1-4.16,1.71,1.47,1.22,1.83,1.35,2.57Z"/><path class="cls-12" d="M554.11,420.29h-.61l-2.57-1.22-2.32-1.96-2.2-1.35-1.71-1.59,.61-.86,.12-.73,1.1-1.35,1.22-1.22h.49l.61-.24,1.1,1.59-.12,.98,.49,.49h.73l.49-.98,.73,.12-.12,.73,.24,1.22-.61,1.1,.73,.73,.86,.12,1.1,1.1,.12,.98-.24,.37-.24,1.96Z"/><path class="cls-12" d="M647.54,508.1l.86,.86-.73,1.47-.49,.98-1.47,.49-.49,.98-.86,.24-1.96-2.2,1.35-1.83,1.35-1.1,1.22-.61,1.22,.73Z"/><path class="cls-12" d="M627.36,259l.12-3.42,1.22-2.93,2.45-1.59,2.08,3.55,2.08-.12,.49-3.67,2.2-.86,1.1,.61,2.2,1.71h2.08l1.22,1.1,.24,2.32,.86,2.69-2.69,1.71-1.59,.73-2.45-2.2-1.35-.24-.37-.98-2.45,.49-4.28-.24-3.18,1.35Z"/><path class="cls-12" d="M700,463.22l.73,1.1,.61,1.71,.37,3.18,.61,1.22-.24,1.22-.49,.73-.86-1.59-.49,.73,.49,1.96-.24,1.1-.73,.61-.12,2.2-.98,3.06-1.22,3.67-1.59,5.14-.98,3.79-1.1,3.18-2.08,.61-2.2,1.22-1.47-.73-2.08-.98-.73-1.47-.12-2.45-.86-2.2-.24-1.96,.49-1.96,1.22-.49v-.86l1.22-2.08,.24-1.71-.61-1.22-.49-1.71-.24-2.45,.86-1.47,.37-1.71,1.22-.12,1.47-.49,.98-.49h1.1l1.47-1.47,2.08-1.59,.73-1.35-.37-1.1,1.1,.37,1.35-1.83v-1.59l.86-1.1,.98,1.35Z"/><path class="cls-12" d="M827.42,379.21l-1.47,1.22-1.83,.12-1.1,2.93-1.1,.49,1.22,2.32,1.59,1.96,1.1,1.71-.98,2.32-.86,.49,.61,1.35,1.71,2.08,.24,1.47v1.22l.98,2.32-1.35,2.45-1.22,2.69-.24-1.96,.73-1.96-.86-1.59,.24-2.81-.98-1.35-.86-3.18-.49-3.3-1.1-2.2-1.71,1.35-2.93,1.83-1.47-.24-1.59-.61,.86-3.3-.49-2.45-1.96-3.06,.37-.98-1.59-.49-1.83-2.2-.12-2.2,.86,.37v-1.96l1.22-.61-.24-1.22,.61-.98,.12-2.81,1.96,.61,1.1-2.32,.12-1.35,1.35-2.32-.12-1.59,3.3-1.96,1.83,.49-.24-1.71,.86-.49-.24-1.1,1.47-.24,.86,1.71,1.1,.73,.12,2.2-.12,2.32-2.45,2.32-.37,3.3,2.69-.49,.61,2.57,1.59,.49-.73,2.32,1.83,.98,1.1,.49,1.83-.73,.12,1.1-2.2,1.71-.49,.98-.98,.73Z"/><path class="cls-12" d="M661.84,460.77l-.73,1.96,.73,3.42h.86l.98,.86,1.1,1.83,.24,3.42-1.1,.61-.73,1.83-1.71-1.59-.24-1.83,.49-1.22-.12-1.1-.98-.61-.73,.24-1.47-1.22-1.35-.73,.73-2.45,.86-.86-.49-2.2,.49-2.08,.49-.73-.61-2.2-1.22-1.1,2.45,.49,.49,.73,.86,1.22,.73,3.3Z"/><path class="cls-8" d="M326.17,363.55l-.98,2.45-.49,1.96-.24,3.67-.24,1.35,.49,1.47,.73,1.35,.49,2.08,1.71,1.96,.61,1.59,.98,1.35,2.69,.73,1.1,1.1,2.2-.73,1.96-.24,1.96-.49,1.59-.49,1.59-1.1,.61-1.59,.24-2.32,.49-.73,1.71-.73,2.69-.61,2.2,.12,1.59-.24,.61,.61-.12,1.35-1.35,1.59-.61,1.59,.49,.49-.37,1.1-.61,2.08-.61-.73h-.98l-.86,1.59-.49-.37-.37,.12v.37h-4.65v1.47h-1.1l.98,.86,.98,.61,.24,.61,.37,.12-.12,.86h-3.3l-1.22,2.2,.37,.49-.24,.61-.12,.73-2.93-2.81-1.35-.86-2.08-.73-1.47,.24-2.08,.98-1.35,.24-1.83-.73-1.96-.49-2.32-1.22-1.96-.37-2.93-1.22-2.08-1.22-.61-.73-1.47-.12-2.57-.86-1.1-1.22-2.69-1.47-1.22-1.71-.61-1.35,.86-.24-.24-.73,.61-.73v-.98l-.86-1.22-.24-1.1-.86-1.35-2.2-2.69-2.57-2.2-1.22-1.71-2.2-1.1-.49-.73,.37-1.71-1.35-.61-1.47-1.35-.61-1.96-1.35-.24-1.47-1.47-1.22-1.47-.12-.86-1.35-2.2-.86-2.2v-1.1l-1.83-1.22-.86,.12-1.47-.86-.37,1.22,.37,1.47,.24,2.2,.86,1.22,1.83,1.96,.37,.73,.37,.24,.37,.98h.49l.49,1.83,.73,.73,.49,.98,1.59,1.47,.86,2.57,.73,1.22,.73,1.35,.12,1.47,1.22,.12,.98,1.22,.98,1.22-.12,.49-1.1,.98h-.49l-.61-1.71-1.71-1.59-1.83-1.35-1.35-.73,.12-2.08-.37-1.47-1.22-.86-1.71-1.22-.37,.37-.61-.73-1.59-.73-1.47-1.71,.24-.24,1.1,.12,.98-1.1,.12-1.35-1.96-2.08-1.47-.86-.98-1.83-.98-1.96-1.22-2.32-.98-2.69,2.93-.24,3.18-.37-.24,.61,3.79,1.47,5.87,2.08h7.09v-1.22h4.4l.98,1.1,1.35,.98,1.47,1.35,.86,1.59,.61,1.59,1.35,.86,2.08,.86,1.59-2.32h2.08l1.83,1.22,1.22,1.96,.86,1.71,1.47,1.59,.61,1.96,.73,1.35,1.96,.86,1.83,.61,1.22,.24Z"/><path class="cls-12" d="M615.37,506.99l-1.83-2.2-.98-2.08-.61-2.81-.61-2.08-.86-4.28v-3.3l-.37-1.47-.98-1.1-1.35-2.2-1.35-3.18-.61-1.71-2.08-2.57-.12-2.08,1.22-.49,1.47-.49,1.71,.12,1.47,1.22,.37-.24,10.27-.12,1.71,1.22,6.11,.37,4.65-1.1,2.08-.61,1.71,.12,.98,.61v.24l-1.47,.61h-.73l-1.59,1.1-.98-1.1-3.91,.98-1.96,.12-.12,9.66-2.57,.12v18.59l-2.32,1.47-1.35,.24-1.59-.49-1.1-.24-.49-1.22-.98-.73-.86,1.1Z"/><path class="cls-12" d="M996.17,485.96l2.08,1.71,1.35,1.22-.98,.61-1.35-.73-1.83-1.22-1.59-1.47-1.71-1.96-.37-.86h1.1l1.47,.98,1.1,.98,.73,.73Z"/><path class="cls-12" d="M579.18,400.97v-1.83l-2.93-.61-.12-1.22-1.47-1.71-.37-1.22,.24-1.22,1.59-.12,.98-.98,3.42-.24,2.32-.37,.24-1.59,1.35-1.71v-6.11l3.55-1.22,7.34-5.26,8.68-5.26,4.04,1.22,1.47,1.47,1.83-.98,.61,4.28,.98,.73v.86l1.1,.98-.61,1.1-.98,5.38-.12,3.42-3.3,2.45-1.1,3.42,1.1,.98v1.71h1.59l-.24,1.22-.73,.12-.12,.86h-.49l-1.71-2.81-.61-.12-1.96,1.47-1.96-.73-1.35-.12-.73,.37-1.47-.12-1.47,1.1-1.35,.12-3.06-1.35-1.22,.61h-1.35l-.98-.98-2.57-.98-2.69,.37-.61,.61-.37,1.47-.73,1.1-.12,2.32-1.96-1.47h-.86l-.73,.61Z"/><path class="cls-12" d="M595.32,419.32l-2.69,.86-.98-.12-.98,.61h-2.08l-1.35-1.59-.86-1.83-1.83-1.71h-4.16l.12-4.16-.12-1.59,.49-1.59,.73-.73,1.22-1.59-.24-.73,.49-.98-.61-1.59,.12-.86,.12-2.32,.73-1.1,.37-1.47,.61-.61,2.69-.37,2.57,.98,.98,.98h1.35l1.22-.61,3.06,1.35,1.35-.12,1.47-1.1,1.47,.12,.73-.37,1.35,.12,1.96,.73,1.96-1.47,.61,.12,1.71,2.81h.49l.98,.98-.24,.49-.12,.86-2.2,1.96-.73,1.59-.37,1.35-.49,.61-.49,1.83-1.35,1.1-.37,1.35-.61,.98-.24,1.1-1.71,.86-1.47-1.1h-.98l-1.47,1.47h-.73l-1.22,2.45-.24,2.08Z"/><path class="cls-7" d="M355.27,403.17l-.86-.86-1.22-1.1-.61-.86-1.1-.86-1.22-1.22,.24-.37,.37,.37,.24-.24,.73-.12,.37-.61h.37v-1.22h1.1l.49-.73,.73,.49,.24-.37,.49-.37,.86-.73v-.49h.24l.37-.61,.24-.12,.49,.37,.49,.12,.61-.37h.61l.86-.37,.37-.37h.86l-.24,.24-.12,.61,.24,.98-.61,.86-.24,1.1-.12,1.1,.12,.61,.12,1.22-.37,.24-.24,1.1,.12,.73-.49,.61,.12,.73,.37,.37-.61,.49-.73-.12-.37-.49-.86-.24-.61,.37-1.71-.73-.12,.86Z"/><path class="cls-12" d="M586.27,271.6l-.12,.86,.49,.12,.24,.37,.12,.37,.37,.12v.12l-.37,.24h-.37v.24l.24,.37-.37,.37,.37,.12,.73-.73,.49-.61v-.49l-.12-.24-.37-.24,.12-.49-.12-.37,.37-.86,.37-.49,1.1-.37,2.08,.12,.49,1.47-.61,3.79-.61,1.59h-1.59l.49,4.28-1.35-.98-1.59-1.83-2.32,.86-1.83-.37,.61-1.1,.86-1.1,1.22-1.1,.73-1.96,.24-1.96v-.12Z"/><path class="cls-12" d="M1014.64,545.27l.61,1.35,1.83-1.35,.73,1.47v1.47l-.98,1.59-1.71,2.57-1.35,1.35,.98,1.71h-1.96l-2.2,1.35-.73,2.32-1.47,3.67-1.96,1.59-1.22,1.1-2.32-.12-1.59-1.22-2.81-.24-.37-1.35,1.35-2.69,3.18-3.55,1.59-.61,1.83-1.35,2.2-1.83,1.59-1.83,1.1-2.57,.98-.86,.37-1.83,1.83-1.59,.49,1.47Zm4.16-15.53l1.83,3.3v-2.2l1.1,.86,.37,2.45,2.08,1.1,1.71,.24,1.47-1.22,1.35,.37-.61,2.81-.73,1.96-1.96-.12-.73,.98,.24,1.47-.37,.61-.98,1.83-1.22,2.32-1.96,1.35-.49-.86-1.1-.49,1.47-2.81-.86-1.83-2.69-1.35,.12-1.22,1.83-1.1,.49-2.45-.12-2.08-.98-2.08,.12-.61-1.22-1.35-1.96-2.81-1.1-2.2,.98-.24,1.35,1.71,1.96,.86,.61,2.81Z"/><path class="cls-12" d="M396.36,476.67l-.73,1.35-1.35,.73-2.57-1.59-.24-1.1-5.01-2.69-4.52-2.93-1.96-1.59-1.1-2.2,.37-.73-2.2-3.42-2.57-4.77-2.45-5.14-1.1-1.22-.86-1.83-1.96-1.71-1.83-.98,.86-1.1-1.22-2.45,.73-1.83,2.08-1.59,.24,1.1-.73,.61,.12,.98,1.1-.24,.98,.24,1.1,1.22,1.47-1.1,.49-1.71,1.59-2.2,3.06-.98,2.81-2.69,.73-1.59-.37-1.96,.73-.24,1.71,1.22,.86,1.22,1.22,.61,1.47,2.69,1.96,.37,1.35-.61,.98,.49,1.59-.24,1.96,1.22-1.59,2.57h.73l1.22,1.35-2.32-.12-.37,.37-2.08,.49-2.93,1.71-.24,1.22-.61,.86,.24,1.35-1.59,.73v1.1l-.61,.49,1.1,2.32,1.47,1.59-.49,1.1,1.71,.12,.98,1.35,2.2,.12,2.08-1.47-.12,3.91,1.1,.24,1.47-.49,2.2,4.16-.49,.86-.12,1.83v2.2l-.98,1.35,.49,.98-.61,.86,1.1,2.2-1.71,3.06Z"/><path class="cls-12" d="M404.8,383.61l1.35,.24,.49,.49-.61,.61h-1.96l-1.47,.12-.12-1.1,.37-.37h1.96Z"/><path class="cls-12" d="M664.29,344.6v1.83l-.37,.86-1.22,.37,.12-.73,.61-.37-.61-.37,.49-1.96,.98,.37Z"/><path class="cls-12" d="M550.69,314.27l.98-.86,1.1-.49,.61,1.71h1.47l.49-.49,1.47,.12,.73,1.71-1.22,.86v2.57l-.37,.49-.12,1.59-1.1,.24,.98,1.96-.73,2.08,.86,.98-.37,.86-.98,1.22,.24,1.1-.98,.86-1.35-.49-1.35,.37,.37-2.45-.24-1.96-1.1-.24-.61-1.22,.24-2.2,.98-1.22,.12-1.35,.49-1.96v-1.47l-.49-1.22-.12-1.1Z"/><path class="cls-12" d="M413.97,489.14l.98-3.3,.12-1.47,1.22-2.32,4.4-.73h2.32l2.32,1.35v.86l.73,1.47-.12,3.67,2.69,.49,1.1-.49,1.71,.73,.49,.86,.24,2.57,.24,1.1,.98,.12,.98-.49,.86,.49v1.59l-.37,1.71-.49,1.59-.37,2.45-2.32,2.2-1.96,.49-2.81-.49-2.57-.73,2.57-4.28-.37-1.22-2.57-1.1-3.06-2.08-2.08-.37-4.89-4.65Z"/><path class="cls-12" d="M703.18,366.61l-.12-2.08,.73-1.47,.73-.24,.73,.86v1.59l-.61,1.59-.73,.24-.73-.49Z"/><path class="cls-12" d="M660.25,407.33h-.37v-1.22l-.37-.86-1.35-.98-.37-1.83,.37-1.96-1.22-.12-.12,.61-1.59,.12,.61,.73,.24,1.59-1.35,1.47-1.22,1.83-1.35,.24-2.2-1.47-.98,.49-.24,.73-1.35,.49-.12,.49h-2.57l-.37-.49-1.83-.12-.98,.49-.73-.24-1.35-1.47-.49-.73-1.83,.37-.73,1.22-.61,2.32-.86,.49-.73,.24-.24-.12-.86-.73-.12-.86,.37-1.1v-1.1l-1.47-1.59-.24-1.1v-.61l-.98-.73v-1.47l-.49-.98-.86,.12,.24-.98,.61-1.1-.24-1.1,.86-.86-.49-.61,.73-1.59,1.22-1.96,2.2,.24-.12-10.52v-1.1h2.93v-5.38h30.33l.86,2.69-.61,.49,.37,2.81,.98,3.18,.98,.61,1.35,.98-1.35,1.47-1.83,.49-.86,.86-.24,1.71-1.1,3.91,.24,1.1-.37,2.2-.98,2.57-1.59,1.35-1.1,1.96-.24,1.1-1.22,.73-.73,2.69,.12-.12Z"/><path class="cls-12" d="M630.29,207.88l-2.45,4.28,.37,3.67-4.04,4.65-4.89,4.89-1.83,7.7,1.83,3.67,2.45,2.81-2.32,5.63-2.69,1.1-.98,8.07-1.47,4.28-3.06-.49-1.47,3.55-2.93,.24-.86-4.28-2.08-5.26-1.96-6.85,1.1-2.81,2.08-3.42,.86-6.11-1.59-2.69-.12-7.34,1.71-5.38,2.57,.12,.86-2.32-.98-2.08,3.91-8.68,2.57-7.09,1.71-4.77h2.45l.73-3.79,4.77,1.1,.37-4.65,1.59-.24,3.42,3.42,4.04,4.65,.12,10.15,.86,2.45-4.65,1.83Z"/><path class="cls-12" d="M608.89,297.89l2.08,.24,1.35-.86,2.2-.12,.49-.61h.49l.49,1.22-2.08,.98-.24,1.47-.86,.37v.98l-.98-.12-.86-.61-.49,.61-1.83-.12,.61-.37-.61-1.59,.24-1.47Z"/><path class="cls-12" d="M636.77,105.17l-5.75,4.89-4.52-2.69,1.71-3.06-1.59-3.91,5.26-2.57,.98,4.65,3.91,2.69Zm-16.51-24.21l8.44,10.27-6.36,5.14-1.47,9.17-2.2,2.32-1.22,9.54-3.06,.49-5.5-6.97,2.32-4.16-3.79-3.55-5.01-10.76-1.96-10.76,6.97-5.14,1.35,5.01,3.67-.24,.98-4.89,3.79-.49,3.06,5.01Zm18.34-10.52l5.01,5.26-3.79,7.7-7.34,1.59-7.46-2.32-.49-3.91-3.67-.24-2.81-6.85,7.83-4.28,3.67,3.67,2.57-4.65,6.48,4.04Z"/><path class="cls-12" d="M531.12,396.57l-1.1-2.08-1.22-.98,1.1-.49,1.22-1.83,.61-1.35,.86-.86,1.22,.24,1.22-.61h1.47l1.22,.73,1.71,.73,1.59,1.96,1.71,1.83,.12,1.59,.49,1.47,.98,.73,.24,.98-.24,.98-.37,.12-1.35-.24-.24,.24h-.61l-1.83-.61h-1.22l-4.77-.12-.73,.24-.86-.12-1.35,.37-.37-1.96h2.32l.61-.37h.49l.98-.61,1.1,.49h1.1l1.1-.61-.49-.73-.86,.49h-.73l-.98-.61h-.86l-.61,.61-2.69,.37Z"/><path class="cls-12" d="M704.03,401.46v-.73h-.98l-1.22,.86-1.35,.24-1.22,.37h-.86l-1.47,.12-.86,.49-1.22,.12-2.2,.86-2.81,.24-2.45,.61h-1.22l-1.1-1.1-.49-1.1-.86-.49-.98,1.35-.61,.86,.98,1.47,.98,1.22,.98,.86,8.32,3.06h2.2l-7.21,7.7-3.3,.12-2.32,1.83h-1.59l-.73,.86-2.2,2.93v9.17l1.47,2.08,.61-.61,.61-1.35,2.81-3.06,2.32-1.96,3.79-2.57,2.57-2.08,3.06-3.42,2.2-2.81,2.2-3.79,1.59-3.3,1.22-2.81,.73-2.81,.49-.98v-1.35l.12-1.1Z"/><path class="cls-12" d="M428.03,416.26l3.06,.49,.24-.49,2.08-.24,2.69,.73-1.35,2.2,.24,1.71,.98,1.47-.49,1.1-.24,1.1-.61,1.1-1.47-.49-1.22,.24-.98-.24-.24,.73,.37,.49-.24,.49-1.35-.24-1.59-2.2-.37-1.47h-.86l-1.1-1.83,.49-1.35-.12-.61,1.59-.61,.49-2.08Z"/><path class="cls-12" d="M660.25,407.33v1.96l-.37,.73-1.35,.12-.86,1.47,1.59,.24,1.35,1.22,.49,.98,1.22,.61,1.47,2.81-1.71,1.71-1.59,1.47-1.59,1.22h-1.83l-2.08,.61-1.59-.61-1.1,.73-2.2-1.71-.61-1.1-1.47,.49-1.22-.12-.73,.37-1.1-.37-1.59-2.08-.37-.86-1.96-.98-.61-1.47-1.1-1.1-1.71-1.35v-.86l-1.35-.98-1.71-.98,.73-.24,.86-.49,.61-2.32,.73-1.22,1.83-.37,.49,.73,1.35,1.47,.73,.24,.98-.49,1.83,.12,.37,.49h2.57l.12-.49,1.35-.49,.24-.73,.98-.49,2.2,1.47,1.35-.24,1.22-1.83,1.35-1.47-.24-1.59-.61-.73,1.59-.12,.12-.61,1.22,.12-.37,1.96,.37,1.83,1.35,.98,.37,.86v1.47Z"/><path class="cls-12" d="M350.02,397.18l-.24,.61h-1.47l-.98-.24-1.1-.49-1.47-.12-.73-.61,.12-.37,.86-.61,.49-.24-.12-.37,.61-.12,.73,.24,.49,.49,.73,.37,.12,.37,1.1-.37,.49,.24,.37,.24v.98h0Z"/><path class="cls-12" d="M578.44,415.77l-2.08,.49-.61-.86-.73-1.59-.24-1.22,.61-2.32-.61-.98-.24-2.08v-1.83l-1.1-1.35,.24-.86h2.2l-.37,1.35,.73,.73,.86,.86,.12,1.22,.49,.49-.12,5.87,.86,2.08Z"/><path class="cls-12" d="M892.23,453.92l.24-.61,2.2-.61,1.83-.12,.86-.37,.98,.37-.98,.73-2.69,1.1-2.08,.73v-.73l-.37-.49Z"/><path class="cls-12" d="M729.71,334.57l-.24-2.69-1.96-.12-2.93-2.81-2.08-.37-2.81-1.59-1.83-.24-1.1,.61-1.71-.12-1.83,1.83-2.2,.61-.37-2.2,.37-3.42-1.96-1.1,.61-2.2-1.71-.24,.61-2.81,2.45,.86,2.2-1.1-1.83-2.08-.73-1.96-2.08,.86-.24,2.45-.86-2.2,1.1-1.1,2.93-.73,1.71,.98,1.83,2.69,1.35-.12h2.93l-.37-1.71,2.2-1.22,2.2-1.96,3.42,1.83,.24,2.69,.98,.73,2.81-.12,.86,.61,1.22,3.42,2.93,2.32,1.71,1.59,2.69,1.59,3.42,1.35-.12,1.96-.73-.12-1.22-.86-.37,1.1-2.45,.49-.49,2.57-1.47,.98-1.96,.49-.49,1.47-1.96,.37-2.69-1.22Z"/><path class="cls-12" d="M597.89,350.71l-1.1-5.38-1.59-1.22v-.73l-2.08-1.83-.24-2.32,1.59-1.71,.61-2.57-.37-2.93,.49-1.59,2.81-1.35,1.83,.37-.12,1.59,2.2-1.22,.12,.61-1.22,1.59v1.47l.86,.73-.37,2.69-1.71,1.59,.49,1.71h1.35l.61,1.47,.98,.49-.12,2.32-1.22,.86-.73,.98-1.71,1.1,.24,1.22-.24,1.22-1.35,.86Z"/><path class="cls-12" d="M884.03,367.59l-1.59,4.4-1.1,2.2-1.35-2.32-.24-2.08,1.47-2.69,2.08-2.08,1.22,.86-.49,1.71Z"/><path class="cls-7" d="M660.13,433.75l.49,.24,9.29,5.14,.12,1.47,3.67,2.57-1.22,3.18,.12,1.47,1.59,.98,.12,.61-.73,1.59,.12,.73-.12,1.22,.86,1.59,1.1,2.57,.98,.61-2.08,1.47-2.81,.98h-1.59l-.86,.73-1.83,.12-.61,.37-3.06-.73-1.96,.24-.73-3.55-.86-1.22-.49-.73-2.45-.49-1.47-.73-1.59-.49-.98-.49-1.1-.61-1.35-3.18-1.47-1.47-.49-1.47,.24-1.35-.49-2.32,1.1-.12,.98-.98,.98-1.35,.61-.49v-.86l-.49-.61-.12-.98,.73-.37,.12-1.47-.98-1.47,.86-.24h2.81l5.01-.12Z"/><path class="cls-12" d="M241.06,264.5h0l-1.35-1.71-2.32-1.35-.73-3.91-3.3-3.79-1.35-4.52-2.45-.37-4.04-.12-2.93-1.35-5.26-5.14-2.45-.98-4.4-1.83-3.55,.49-5.01-2.32-3.06-2.2-2.81,1.1,.49,3.55-1.47,.37-2.93,1.1-2.2,1.71-2.81,1.1-.37-2.93,1.1-5.01,2.69-1.59-.73-1.35-3.3,2.93-1.71,3.42-3.67,3.55,1.83,2.45-2.45,3.55-2.69,1.96-2.57,1.47-.61,2.08-4.04,2.45-.86,2.2-2.93,1.96-1.71-.37-2.32,1.22-2.57,1.47-2.08,1.47-4.4,1.22-.37-.73,2.81-2.08,2.45-1.35,2.69-2.45,3.18-.49,1.22-1.83,3.55-2.81,.61-.98,1.83-1.71,.49-3.67,1.35-2.93-2.93,1.47-.86-.86-1.35,1.83-1.71-2.45-.73,1.71-.98-2.45-2.57,1.96h-1.59l-.24-2.93,.49-1.83-1.59-1.83-3.3,.98-2.2-2.45-1.71-1.22v-2.93l-1.96-2.2,.98-3.06,2.08-3.06,.86-2.81,2.08-.37,1.71,.86,2.08-2.69,1.83,.49,1.96-1.83-.49-2.69-1.47-1.1,1.83-2.32-1.59,.12-2.69,1.35-.73,1.35-1.96-1.35-3.55,.61-3.79-1.47-1.1-2.45-3.18-3.55,3.55-2.57,5.63-3.06h2.08l-.37,3.18,5.38-.24-2.08-3.91-3.18-2.45-1.83-3.3-2.45-2.93-3.55-2.2,1.47-3.67,4.52-.24,3.18-3.3,.61-3.55,2.57-3.55,2.45-.86,4.89-3.42,2.32,.49,3.91-4.16,3.91,1.71,1.83,3.55,1.1-1.47,4.28,.49-.12,1.83,3.91,1.35,2.57-.73,5.38,2.45,4.89,.73,1.96,.98,3.42-1.22,3.91,2.2,2.81,.98v57.35l2.57,.12,2.45,1.47,1.83,2.2,2.32,3.3,2.45-2.81,2.57-1.59,1.35,2.57,1.71,2.08,2.32,2.2,1.59,3.42,2.57,5.38,4.28,2.93,.12,2.81-1.22,1.71Zm159.83,31.31l-1.1-1.1-1.71,.61-.86-.98-1.96,2.81-.73,2.81-.86,1.71-1.1,.61-.86,.12-.24,.86h-8.56l-1.1,.61-2.57,2.45,.24,.49,.12,1.35-1.96,1.1-2.08-.24-1.96-.12-1.22,.37,.24,1.1h0v.37l-2.2,2.08-1.96,.98-1.35,.49-1.47,.98-1.83,.49-1.22-.12-1.59-.73,.86-1.35,.61-1.22,1.22-1.96-.12-1.47-.49-2.08-.98-.12-1.59,1.59h-.49l-.12-.86,1.35-1.47,.24-1.59-.24-1.59-1.83-1.47-2.2-.73-.37,1.35-.61,.37-.49,1.83-.24-1.22-.98,.86-.61,1.22-.61,1.71-.12,1.47,.86,2.2-.12,2.32-.98,1.71-.49,.49-.73,.37h-.86l-.24-.24-.73-1.83v-.86l.12-.86-.37-1.71,.49-1.96,.61-2.45,1.35-2.81h-.37l-1.83,2.32-.37-.37,.98-1.35,1.47-2.32,1.71-.37,1.96-.73,1.96,.37h.12l2.2-.37-1.22-1.47-.73-.12-.73-.12-.49-.98-2.45,.37-2.2,.86-1.83-1.47-1.47-.49,.86-1.96-2.2,1.22-2.08,1.22-1.96,.98-1.59-1.22-2.57,.73v-.49l1.71-1.59,1.83-1.47,2.57-1.22-3.18-.98-2.08,.49-2.45-1.22-2.57-.61-1.83-.24-.73-.61-.49-2.08h-.86v1.47h-70.56l.86,3.18,.37,3.06-.61,.98-1.35-3.55-3.67-1.35-.37,.73,.73,1.71,.86,3.18,.49,4.89-.37,3.3-.37,3.18-.98,3.3,.86,2.69,.12,2.93-.61,2.81,1.35,1.83,.37,2.69,1.96,2.69,1.1,1.1-.12,.73,2.08,4.4,2.45,3.18,.37,1.71,.61,.49,2.32,.24,.86,.86,1.47,.12,.24,.86,1.22,.37,1.71,1.71,.49,1.59,2.93-.24,3.18-.37-.24,.61,3.79,1.47,5.87,2.08h7.09v-1.22h4.4l.98,1.1,1.35,.98,1.47,1.35,.86,1.59,.61,1.59,1.35,.86,2.08,.86,1.59-2.32h2.08l1.83,1.22,1.22,1.96,.86,1.71,1.47,1.59,.61,1.96,.73,1.35,1.96,.86,1.83,.61,.98-.12-.49-.98-.12-1.35v-1.96l.61-1.35,1.35-1.35,2.57-1.22,2.32-2.2,2.2-.73,1.59-.24,1.83,.73,2.2-.37,1.96,1.59,1.83,.12,.98-.61,.98,.49,.49-.37-.49-.61v-1.22l-.49-.73,1.1-.49,1.96-.24,2.2,.37,2.93-.37,1.59,.73,1.22,1.35,.49,.12,2.57-1.35,.98,.49,1.96,2.45,.73,1.59-.49,1.96,.37,1.1,1.22,2.2,1.35,2.45,.98,.61,.37,1.22,1.22,.37,.73-.37,.61-1.71,.12-1.1,.12-1.96-1.22-3.3v-1.22l-1.1-2.08-.86-2.45-.49-2.08,.37-2.08,1.22-1.71,1.47-1.47,2.81-1.96,.37-.98,1.35-1.1,1.22-.24,1.71-1.83,2.69-.86,1.59-2.32-.37-3.18-.24-1.1-.73-.24-.12-3.06-1.71-.98,1.71,.49-.49-2.08,.49-1.47,.24,2.69,1.35,1.22-.73,2.2,.24,.12,1.47-2.57,.86-1.22v-1.22l-.61-.61-.49-1.71,.86,.86,.61,.12,.24,.86,1.83-2.57,.49-2.32-.73-.12,.73-.98-.12,.37h1.59l3.55-.98-.73-.61-3.79,.61,2.08-.98,1.47-.12,1.1-.12,1.83-.61,1.22,.12,1.71-.49,.24-.98-.73-.73,.24,1.22-1.1-.12-.86-1.83v-1.83l.49-.73,1.35-2.08,2.69-1.1,2.57-1.22,2.69-1.71-.49-1.22-1.71-2.08v-5.26h0Zm-217.67-45.86l-1.35,.73-2.32,1.71,.37,2.2,1.35,1.22,2.57-1.83,2.2-2.2-1.1-1.47-1.71-.37Zm-41.45-25.92l1.83-1.1,.24-.61-2.08-.61v2.32Zm7.7,13.94l-2.57,.86,1.59,1.35,1.71,.98,1.59-.73-.24-1.96-2.08-.49Zm88.41,29.47l-2.45,.37-1.22-.61-.12,1.35,.49,1.83,1.35,1.35,.98,1.96,1.59,1.96h.98l-2.2-3.42,.61-4.77Zm-62.37,109.81l-.86-.24-.24,.24v.12l.24,.24,.49,.61,.86-.24,.24-.37-.73-.37Zm-2.81-.49l1.35,.12,.12-.24-1.22-.12-.24,.24Zm5.38,2.93l-.49-.24-.98-.49h-.24l-.12,.24,.12,.49-.49,.49-.12,.24,.37,.98-.12,.73,.61,.37,.37-.49,.86-.37,.98-.61v-.12l-.61-.98-.12-.24Zm-7.09-4.65l-.73,.37,.12,.12,.37,.61,.86,.12h.12l.12-.12-.73-.86-.12-.24Zm-4.04-1.47l-.37,.24-.12,.24,.86,.49,.24-.24v-.61l-.61-.12Z"/><path class="cls-12" d="M426.81,511.76l1.71-.37,2.57,2.32,.98-.12,2.57,1.96,1.96,1.59,1.47,2.08-1.1,1.47,.73,1.71-1.1,1.96-2.93,1.71-1.83-.61-1.35,.37-2.32-1.35-1.71,.12-1.59-1.71,.24-1.96,.61-.73v-3.06l.73-3.06,.37-2.32Z"/><path class="cls-12" d="M849.06,375.42l-3.42,2.32-2.08,2.57-.61,1.83,1.96,2.81,2.32,3.42,2.32,1.59,1.59,2.08,1.22,4.89-.37,4.52-2.08,1.71-2.93,1.71-2.08,2.2-3.18,2.45-.98-1.59,.73-1.71-1.83-1.47,2.2-.98,2.69-.24-1.1-1.59,4.28-1.96,.37-3.06-.61-1.71,.49-2.57-.61-1.83-1.96-1.83-1.59-2.32-2.08-3.18-3.06-1.59,.73-.98,1.59-.73-.98-2.32h-3.18l-1.1-2.45-1.47-2.2,1.35-.61h2.08l2.45-.37,2.2-1.47,1.22,.98,2.32,.49-.37,1.59,1.22,1.1,2.32,.49Z"/><path class="cls-12" d="M1001.43,473.61l-.86,.37-.86-1.1,.12-.73,1.59,1.47Zm-1.83-4.04l.37,2.08-.73-.37-.49,.12-.37-.73v-1.96l1.22,.86Z"/><path class="cls-12" d="M657.2,454.9l1.22,1.1,.61,2.2-.49,.73-.49,2.08,.49,2.2-.86,.86-.73,2.45,1.35,.73-7.7,2.2,.24,1.83-1.96,.37-1.47,1.1-.37,.86-.86,.24-2.2,2.2-1.47,1.71-.86,.12-.86-.37-2.81-.24-.49-.24v-.24l-.98-.61-1.71-.12-2.08,.61-1.71-1.71-1.71-2.2,.12-8.32h5.26l-.24-.86,.37-.98-.49-1.22,.24-1.22-.24-.86,.86,.12,.12,.86,1.22-.12,1.59,.24,.86,1.22,2.08,.37,1.59-.86,.61,1.35,1.96,.37,.98,1.1,1.1,1.47h1.96l-.24-2.81-.73,.49-1.83-.98-.73-.49,.37-2.57,.49-3.06-.61-1.1,.73-1.59,.73-.37,3.42-.49,.98,.24,1.1,.61,.98,.49,1.59,.49,1.71,.61Z"/><path class="cls-12" d="M653.16,489.14l-1.35-.24-.86,.37-1.22-.49h-.98l-1.59-1.22-1.96-.37-.73-1.71v-.98l-1.1-.24-2.93-2.93-.86-1.59-.49-.49-.98-2.08,2.81,.24,.86,.37,.86-.12,1.47-1.71,2.2-2.2,.86-.24,.37-.86,1.47-1.1,1.96-.37,.12,.98h2.08l1.22,.61,.49,.61,1.22,.24,1.35,.86v3.3l-.49,1.83-.12,1.96,.37,.86-.24,1.59-.37,.24-.61,1.96-2.81,2.93Z"/><path class="cls-12" d="M645.46,169.85l7.95,5.63-3.3,2.08,2.81,4.65-4.28,2.93-2.08,.61,1.1-5.14-3.3-2.93-3.91,2.57-1.22,5.38-2.45,3.18-2.69-1.71-3.3,.37-2.81-3.79-1.47,1.96-1.59,.24-.37,4.65-4.77-1.1-.73,3.79h-2.45l-1.71,4.77-2.57,7.09-3.91,8.68,.98,2.08-.86,2.32-2.57-.12-1.71,5.38,.12,7.34,1.59,2.69-.86,6.11-2.08,3.42-1.1,2.81-1.71-3.06-5.01,5.75-3.42,1.1-3.55-2.45-.86-5.38-.86-12.11,2.32-3.55,6.73-4.77,5.01-5.99,4.65-8.44,6.11-12.47,4.28-5.14,6.97-9.05,5.63-3.3,4.16,.37,3.91-6.36,4.65,.37,4.52-1.47Z"/><path class="cls-12" d="M798.31,357.81l-.24,1.22,.37,1.83-.24,1.1h-2.08l-3.06-.61-1.96-.24-1.47-1.47-3.55-.37-3.3-1.59-2.45-1.47-2.45-1.1,.98-2.69,1.59-1.35,1.1-.73,2.08,.86,2.57,1.96,1.47,.37,.86,1.35,1.96,.61,2.08,1.22,2.93,.61,2.81,.49Z"/><path class="cls-12" d="M606.08,260.96l-1.59,3.67-2.69-2.57-.37-1.83,3.79-1.47,.86,2.2Zm-4.52-3.91l-.61,1.71-.73-.49-1.83,3.3,.73,2.2-1.59,.73-1.96-.61-.98-2.45-.12-4.65,.37-1.22,.73-1.35,2.2-.24,.86-1.35,2.08-1.35-.12,2.45-.73,1.47,.24,1.35,1.47,.49Z"/><path class="cls-12" d="M390.98,380.43l.37-.49h1.96l1.47,.73,.61-.12,.49,.98h1.35l-.12,.86,1.1,.12,1.22,.98-.98,1.1-1.22-.61-1.22,.12-.86-.12-.49,.49-.98,.12-.37-.61-.86,.37-.98,1.83-.61-.37-.12-.73v-.73l-.61-.86,.61-.49,.24-.98v-1.59h0Z"/><path class="cls-12" d="M626.62,313.66l-.12,.73h-.37l-.12-1.22-.61-.37-.49-.98,.49-.73,.61-.24,.37-1.1,.49-.24,.37,.49,.49,.24,.37,.61,.37,.12,.49,.61h.37l-.24,.86-.24,.37,.12,.24-.61,.12-1.71,.49Z"/><path class="cls-12" d="M695.96,351.69l.49,1.35-.24,.61,.86,2.2-1.83,.12-.61-1.35-2.32-.24,1.83-2.81,1.83,.12Z"/><path class="cls-12" d="M626.14,314.4h.37l.12-.73,1.47-.49,.61-.12,.86-.24h1.22l1.22,1.1,.12,2.2-.49,.12-.37,.61-1.35-.12-.98,.73-1.71,.24-1.1-.86-.37-1.47,.37-.98Z"/><path class="cls-12" d="M542.74,394l.86-.49,.49-1.59h.86l1.83,.73,1.47-.49,.98,.12,.37-.61h10.27l.61-1.83-.49-.37-1.22-11.49-1.22-11.86h3.91l8.56,5.99,8.56,5.99,.61,1.22,1.59,.73,1.22,.49v1.71l2.81-.24v6.11l-1.35,1.71-.24,1.59-2.32,.37-3.42,.24-.98,.98-1.59,.12h-1.59l-.61-.49-1.35,.37-2.32,1.1-.49,.86-1.96,1.22-.37,.61-1.1,.49-1.22-.37-.73,.61-.37,1.83-2.08,2.2v.86l-.73,1.1,.12,1.47-1.1,.37-.61,.37-.37-1.1-.73,.24h-.49l-.49,.73h-1.96l-.73-.37-.37,.24-.73-.73,.12-.73-.37-.24-.49,.24,.12-.86,.49-.61-1.1-1.1-.24-.73-.61-.61-.49-.12-.61,.37-.86,.37-.73,.61-1.1-.24-.73-.61-.37-.12-.61,.37h-.37l-.24-1.1,.12-.86-.24-.98-.98-.73-.49-1.47v-1.59Z"/><path class="cls-12" d="M626.87,301.92l1.59,.86,.24,1.47,1.47,.98,.86-.86,.61,.49-.61,.61,.49,.61-.61,.86,.24,1.35,1.22,1.47-.98,1.1-.49,1.1,.24,.37-.37,.49h-1.22l-.86,.24-.12-.24,.24-.37,.24-.86h-.37l-.49-.61-.37-.12-.37-.61-.49-.24-.37-.49-.49,.24-.37,1.1-.61,.24,.24-.24-.98-.73-.86-.37-.37-.49-.73-.61,.61-.12,.37-1.71-1.22-1.35,.61-1.59h-.98l.98-1.35-.86-.98-.61-1.47,1.96-.98,1.59,.12,1.35,1.47,.61,1.22Z"/><path class="cls-12" d="M651.2,434.23l.98,1.47-.12,1.47-.73,.37-1.35-.12-.73,1.47-1.59-.24,.24-1.35,.37-.24,.12-1.47,.73-.73,.61,.24,1.47-.86Z"/><path class="cls-12" d="M615.01,296.54l.86-2.45-.49-.86h1.47l.24-1.59,1.35,.98,.98,.37,2.08-.49,.24-.73,.98-.12,1.22-.61,.24,.24,1.22-.49,.61-.86,.86-.24,2.69,1.22,.49-.37,1.47,.98,.12,.98-1.59,.73-1.22,2.57-1.59,2.57-2.08,.73-1.59-.12-1.96,.98-.98,.49-2.08-.73-1.96-1.59-.86-.49-.49-1.22-.24,.12Z"/><path class="cls-12" d="M544.57,414.18l-.73-.24-1.83-.98-1.35-1.35-.49-.98-.37-1.83,1.35-1.1,.24-.73,.49-.61h.73l.61-.49h2.08l.73,.98,.61,1.1-.12,.73,.37,.61v.98l.73-.12-1.22,1.22-1.1,1.35-.12,.73-.61,.73Z"/><path class="cls-12" d="M633.59,268.42h2.45l2.81-1.59,.61-2.45,2.08-1.47-.24-1.96,1.59-.73,2.69-1.71,2.69,1.1,.37,1.1,1.35-.49,2.45,1.1,.24,2.08-.49,1.22,1.59,2.81,.98,.73-.12,.73,1.71,.73,.73,1.1-.98,.98-2.08-.12-.49,.37,.61,1.35,.61,2.69-2.2,.24-.73,.86-.12,2.08-.98-.37-2.32,.24-.61-.98-.98,.73-.98-.61-1.96-.12-2.81-.98-2.57-.37-1.96,.12-1.35,1.1-1.22,.12v-1.83l-.73-1.96,1.47-.86v-1.71l-.73-1.59-.37-1.71Z"/><path class="cls-12" d="M346.47,385.57v-.37l.37-.12,.49,.37,.86-1.59h.49v.37h.49v.73l-.37,1.1,.24,.37-.37,.98,.12,.24-.24,1.35-.49,.73-.49,.12-.49,.86h-.73l.24-2.93-.12-2.2Z"/><path class="cls-12" d="M754.53,312.93l.61-1.47,1.71-.49,4.16,1.22,.37-2.08,1.47-.73,3.67,1.47,.98-.37,4.28,.12,3.79,.37,1.22,1.22,1.59,.49-.37,.73-4.04,1.83-.86,1.35-3.3,.37-.98,2.08-2.69-.49-1.71,.61-2.45,1.59,.37,.73-.73,.73-4.77,.49-3.18-1.1-2.81,.24,.24-1.96,2.81,.61,.98-.98,1.96,.37,3.3-2.45-3.06-1.83-1.83,.86-1.83-1.22,2.08-2.2-.98-.12Z"/><path class="cls-12" d="M837.44,404.28l-.98-1.35-1.35-2.69-.61-3.18,1.59-2.2,3.3-.49,2.45,.37,2.08,.98,1.1-1.83,2.2,.98,.61,1.71-.37,3.06-4.28,1.96,1.1,1.59-2.69,.24-2.2,.98-1.96-.12Z"/><path class="cls-12" d="M835.12,400.24l-2.32-1.22h-2.2l.37-2.08h-2.2l-.24,2.81-1.35,3.79-.86,2.32,.12,1.83,1.71,.12,.98,2.32,.49,2.2,1.47,1.47,1.59,.24,1.35,1.35-.86,1.1-1.71,.24-.24-1.35-2.08-1.1-.49,.49-.98-.98-.49-1.22-1.35-1.47-1.22-1.22-.37,1.47-.49-1.47,.24-1.59,.73-2.45,1.22-2.69,1.35-2.45-.98-2.32v-1.22l-.24-1.47-1.71-2.08-.61-1.35,.86-.49,.98-2.32-1.1-1.71-1.35-1.59-1.22-2.32,1.1-.49,1.1-2.93,1.83-.12,1.47-1.22,1.47-.61,1.1,.86,.12,1.59,1.71,.12-.61,2.81v2.45l2.69-1.59,.73,.49,1.47-.12,.49-.98,1.96,.12,1.96,2.2,.12,2.57,2.08,2.32-.12,2.2-.86,1.22-2.45-.37-3.3,.49-1.59,2.2,.73,3.18Z"/><path class="cls-12" d="M626.14,314.4l-.37,1.1,.37,1.47,1.1,.86v.86l-.86,.49-.12,1.1-1.22,1.59-.49-.24v-.73l-1.47-1.1-.24-1.59,.24-2.32,.37-1.1-.49-.49-.12-1.1,1.1-1.71,.12,.61,.73-.24,.49,.98,.61,.37,.24,1.22Z"/><path class="cls-12" d="M723.72,376.64l-.98,1.83-1.1-.12-.49,.61-.37,1.35,.37,1.83-.24,.37h-1.22l-1.59,.98-.24,1.35-.61,.61h-1.59l-.98,.61v1.1l-1.22,.73-1.35-.24-1.71,.86-1.22,.12-.86-1.83-1.96-4.4,7.7-2.69,1.71-5.38-1.22-1.96,.12-1.1,.73-1.1v-1.1l1.1-.49-.49-.37,.24-1.83h1.35l1.1,1.96,1.47,.98,1.83,.37,1.47,.49,1.1,1.59,.73,.86,.86,.37v.61l-.98,1.59-.37,.73-1.1,.73Zm-6.24-13.21l-.37,.49-.49-.98,.73-.98,.37,.24-.24,1.22Z"/><path class="cls-12" d="M375.21,413.08l-.86-.73-.49-1.35,.61-.73-.61-.12-.49-.86-1.22-.73-1.1,.12-.49,.86-.98,.61-.61,.12-.24,.49,1.22,1.35-.73,.37-.37,.37-1.22,.12-.49-1.47-.37,.49-.86-.12-.49-.98-1.1-.12-.61-.24h-1.1l-.12,.61-.24-.37,.12-.49,.24-.49-.12-.49,.37-.24-.49-.37v-.98l.98-.24,.86,.98v.49l.98,.12,.24-.24,.73,.61,1.22-.24,1.1-.61,1.59-.49,.86-.73,1.47,.12-.12,.24,1.47,.12,1.1,.49,.86,.73,.98,.73-.37,.37,.61,1.47-.49,.73-.86-.12-.37,.86Z"/><path class="cls-12" d="M709.04,388.62l-1.83,.73-.49,1.22v.86l-2.57,1.1-4.04,1.22-2.32,1.83-1.1,.12-.73-.12-1.47,1.1-1.59,.49-2.08,.12-.61,.12-.61,.73-.61,.24-.37,.61h-1.22l-.86,.37-1.71-.12-.61-1.47,.12-1.47-.37-.73-.49-1.96-.73-1.1,.49-.12-.24-1.22,.37-.49-.12-1.1,1.1-.86-.24-1.1,.73-1.35,1.1,.73,.73-.24h2.93l.49,.24,2.45,.24,.98-.12,.61,.86,1.22-.49,1.83-2.81,2.32-1.22,7.34-.98,1.96,4.4,.24,1.71Z"/><path class="cls-12" d="M654.02,508.95l-.49,.37-1.1,1.47-.73,1.47-1.47,2.08-2.93,3.06-1.83,1.83-1.96,1.35-2.69,1.22-1.35,.12-.37,.86-1.59-.49-1.22,.61-2.81-.61-1.59,.37-1.1-.12-2.57,1.22-2.2,.49-1.59,1.22-1.1,.12-1.1-1.1h-.86l-1.1-1.35-.12,.37-.37-.86v-1.83l-.86-2.08,.86-.49-.12-2.32-1.71-2.81-1.22-2.45h0l-1.83-3.79,1.22-1.47,.98,.73,.49,1.22,1.1,.24,1.59,.49,1.35-.24,2.32-1.47v-10.52l.73,.37,1.47,2.69-.24,1.71,.61,.98,1.83-.24,1.22-1.22,1.22-.86,.61-1.35,1.22-.61,1.1,.37,1.22,.73,2.08,.12,1.59-.61,.24-.86,.49-1.35,1.35-.24,.73-1.1,.86-1.83,2.32-2.08,3.55-2.08h.98l1.22,.49,.86-.37,1.35,.24,1.22,3.91,.61,1.96-.49,3.06,.24,.98-1.35-.49-.73,.24-.24,.86-.73,1.1v.98l1.47,1.59,1.47-.37,.49-1.22h1.96l-.61,2.08-.24,2.32-.61,1.35-.98,1.83Zm-6.48-.86l-1.1-.86-1.22,.61-1.35,1.1-1.35,1.83,1.96,2.2,.86-.24,.49-.98,1.47-.49,.49-.98,.73-1.47-.98-.73Z"/><path class="cls-12" d="M682.75,389.36l-.37-1.1-.73-.86-.24-1.1-1.35-.98-1.35-2.2-.73-2.2-1.71-1.83-1.1-.49-1.71-2.57-.24-1.83,.12-1.59-1.47-3.06-1.22-1.1-1.35-.61-.86-1.59,.12-.61-.73-1.47-.73-.61-.98-2.08-1.59-2.32-1.35-1.96h-1.22l.37-1.59,.12-.98,.37-1.1,2.81,.49,1.1-.86,.61-1.1,1.96-.37,.37-.98,.86-.49-2.57-2.93,5.14-1.47,.49-.49,3.06,.86,3.79,2.08,7.21,5.87,4.77,.24,2.32,.24,.61,1.35,1.83-.12,.98,2.45,1.22,.61,.49,.98,1.71,1.22,.12,1.22-.24,.98,.37,.98,.73,.73,.37,.98,.37,.73,.73,.61,.73-.24,.49,1.1,.12,.61,.98,2.81,7.7,1.35,.49-.61,1.22,1.96-1.71,5.38-7.7,2.69-7.34,.98-2.32,1.22-1.96,2.81-1.22,.49-.61-.86-.98,.12-2.45-.24-.49-.24h-2.93l-.73,.24-1.1-.73-.73,1.35,.24,1.1-.98,.73Z"/><path class="cls-12" d="M986.88,458.08l.73,.86h-1.83l-.98-1.59,1.47,.61,.61,.12Zm-3.18-1.59h-.98l-1.59-.24-.49-.37,.12-.98,1.71,.37,.86,.49,.37,.73Zm2.08-.73l-.37,.49-1.83-2.2-.49-1.59h.86l.86,2.08,.98,1.22Zm-4.65-3.18l.12,.49-1.96-1.1-1.35-.98-.98-.86,.37-.24,1.22,.61,2.08,1.22,.49,.86Zm-5.87-2.57l-.49,.12-1.1-.61-1.1-1.1,.12-.37,1.47,1.1,1.1,.86Z"/><path class="cls-12" d="M689.48,333.59l1.71,.98,.24,1.83-1.22,1.1-.61,2.45,1.71,2.93,3.18,1.71,1.35,2.32-.37,2.2h.86v1.59l1.47,1.59-1.47-.12-1.71-.24-1.83,2.81-4.77-.24-7.21-5.87-3.79-2.08-3.06-.86-.98-3.67,5.63-3.18,.98-3.79-.24-2.32,1.35-.73,1.35-1.96,1.1-.49,2.93,.37,.86,.86,1.22-.49,1.35,3.3Z"/><path class="cls-12" d="M655.48,501.74l-.49,1.22-1.47,.37-1.47-1.59v-.98l.73-1.1,.24-.86,.73-.24,1.35,.49,.37,1.22v1.47Z"/><path class="cls-12" d="M667.83,316.11l3.67,1.35,2.93-.49,2.2,.24,3.06-1.71,2.69-.12,2.45,1.71,.49,1.22-.24,1.59,1.83,.86,.98,.98-1.71,.98,.86,3.79-.49,.98,1.35,2.57-1.22,.49-.86-.86-2.93-.37-1.1,.49-2.93,.49h-1.35l-2.93,1.22h-2.08l-1.35-.61-2.81,.86-.86-.61-.12,1.71-.73,.73-.73,.73-.98-1.47,.98-1.22-1.59,.24-2.08-.73-1.71,1.83-3.91,.37-2.08-1.71-2.69-.12-.61,1.35-1.71,.37-2.45-1.71h-2.81l-1.47-3.18-1.83-1.83,1.22-2.57-1.59-1.59,2.81-3.18,3.91-.12,1.1-2.57,4.89,.49,3.06-2.2,2.93-.98,4.16-.12,4.4,2.45Zm-24.82,2.2l-2.08,1.83-.86-1.59v-.73l.61-.37,.73-2.08-1.22-.86,2.57-1.1,2.2,.49,.24,1.35,2.2,1.1-.49,.86-3.06,.24-.86,.86Z"/><path class="cls-12" d="M416.54,404.03l1.47-.37,.49,.12-.12,1.96-2.08,.24-.49-.24,.73-.73v-.98Z"/><path class="cls-12" d="M641.54,291.41l.61-.61,1.71-.37,1.83,1.22,1.1,.12,1.1,.98-.12,1.22,.98,.61,.37,1.59,.86,.98-.12,.61,.49,.37-.73,.24-1.47-.12-.24-.49-.49,.24,.12,.61-.73,1.22-.49,1.22-.61,.37-.49-1.71,.24-1.59-.12-1.59-1.47-2.2-.86-1.59-.73-1.1-.73-.24Z"/><path class="cls-12" d="M624.18,312.19l-.12-.61-1.1,1.71,.12,1.1-.49-.37-.73-1.1-1.1-.73,.24-.61,.37-1.96,.86-.86,.49-.37,.73,.61,.37,.49,.86,.37,.98,.73-.24,.24-.49,.73-.73,.61Z"/><path class="cls-12" d="M654.75,276l.98,.12,.61-.98,.73,.24,2.69-.37,1.59,2.32-.61,.86,.24,1.22,2.08,.24,.86,1.71v.73l3.18,1.35,1.96-.61,1.59,1.83h1.47l3.79,1.22v1.1l-.98,2.08,.61,2.08-.37,1.22-2.45,.24-1.35,1.1-.12,1.71-2.08,.24-1.71,1.22-2.45,.24-2.2,1.35-1.22,.98,1.35,1.35,1.22,.86,2.57-.24-.49,1.35-2.81,.61-3.42,2.08-1.47-.73,.61-1.71-2.81-1.1,.49-.73,2.93-1.47-.37-.73-.37,.37-.37-.24-3.91-.98-.12-1.35-2.32,.49-.98,2.08-1.96,2.69-1.1-.61-1.22,.61-1.1-.61,.61-.37,.49-1.22,.73-1.22-.12-.61,.49-.24,.24,.49,1.47,.12,.73-.24-.49-.37,.12-.61-.86-.98-.37-1.59-.98-.61,.12-1.22-1.1-.98-1.1-.12-1.83-1.22-1.71,.37-.61,.61h-1.1l-.61,.86-1.83,.37-.86,.61-1.22-.98h-1.59l-1.59-.37-1.1,.86-.12-.98-1.47-.98,.49-1.59,.73-.98,.61,.24-.61-1.71,2.32-3.3,1.22-.49,.24-1.1-1.22-3.55,1.22-.12,1.35-1.1,1.96-.12,2.57,.37,2.81,.98,1.96,.12,.98,.61,.98-.73,.61,.98,2.32-.24,.98,.37,.12-2.08,.73-.86,2.08-.49Z"/><path class="cls-12" d="M654.87,433.99h-2.81l-.86,.24-1.47,.73-.61-.24v-1.96l.61-.98,.12-2.08,.49-1.22,.98-1.35,.98-.73,.86-.86-.98-.37,.12-2.93,1.1-.73,1.59,.61,2.08-.61h1.83l1.59-1.22,1.22,1.71,.24,1.22,1.1,2.93-.98,1.83-1.22,1.71-.73,.98v2.69l-5.26,.61Z"/><path class="cls-12" d="M611.95,280.16l-1.1-2.57,.24-1.47-.61-2.2-.98-1.47,.73-1.1-.61-2.2,1.71-1.22,4.04-1.96,3.18-1.47,2.57,.73,.24,1.1h2.45l3.18,.49,4.65-.12,1.35,.49,.61,1.35,.12,1.96,.73,1.59v1.71l-1.47,.86,.73,1.96v1.83l1.22,3.55-.24,1.1-1.22,.49-2.32,3.3,.61,1.71-.61-.24-2.45-1.47-1.83,.61-1.22-.37-1.47,.86-1.35-1.35-1.1,.49-.12-.24-1.22-1.96-1.83-.24-.24-1.22-1.71-.49-.37,.98-1.35-.86,.12-1.1-1.96-.37-1.1-1.47Z"/><path class="cls-12" d="M589.08,284.07l.49,.86-.12,1.71-.73,.12-.61-.37,.24-2.2,.73-.12Z"/><path class="cls-12" d="M616.96,290.06l-1.22-.73-1.22,.24-1.96-1.22-.86,.24-1.47,1.59-1.83-1.22-1.47-1.71-1.35-.98-.24-1.71-.49-1.22,1.83-.86,.98-.98,1.83-.73,.61-.73,.61,.49,1.1-.37,1.22,1.35,1.96,.37-.12,1.1,1.35,.86,.37-.98,1.71,.49,.24,1.22,1.83,.24,1.22,1.96h-.73l-.37,.73-.61,.12-.12,.86-.49,.24-.12,.37-.86,.37-1.1-.12-.24,.73Z"/><path class="cls-12" d="M604.25,370.16l-8.68,5.26-7.34,5.26-3.55,1.22-2.81,.24v-1.71l-1.22-.49-1.59-.73-.61-1.22-8.56-5.99-8.56-5.99-9.54-6.85v-4.28l4.16-2.2,2.57-.49,2.08-.73,.98-1.47,2.93-1.22,.12-2.2,1.47-.24,1.1-1.1,3.3-.49,.49-1.22-.61-.61-.86-3.18-.12-1.83-.98-1.96,2.45-1.71,2.81-.49,1.59-1.35,2.45-.98,4.28-.61,4.16-.24,1.35,.49,2.45-1.22h2.69l.98,.73,1.71-.24-.49,1.59,.37,2.93-.61,2.57-1.59,1.71,.24,2.32,2.08,1.83v.73l1.59,1.22,1.1,5.38,.86,2.57,.12,1.35-.49,2.32,.24,1.35-.37,1.59,.24,1.83-.98,1.22,1.47,2.08,.12,1.22,.86,1.59,1.22-.49,1.96,1.35,.98,1.59Z"/><path class="cls-12" d="M598.99,263.77v1.71l2.57,.98v1.59l2.57-.86,1.47-1.22,2.93,1.71,1.22,1.35,.61,2.2-.73,1.1,.98,1.47,.61,2.2-.24,1.47,1.1,2.57-1.1,.37-.61-.49-.61,.73-1.83,.73-.98,.98-1.83,.86,.49,1.22,.24,1.71,1.35,.98,1.47,1.71-.86,1.83-.86,.49,.37,2.45-.24,.61-.73-.73-1.22-.12-1.83,.73-2.2-.12-.37,.98-1.35-1.1-.73,.24-2.69-1.1-.49,.86h-2.2l.37-2.69,1.35-2.69-3.67-.73-1.22-.98,.12-1.71-.49-.86,.24-2.69-.49-4.28h1.59l.61-1.59,.61-3.79-.49-1.47,.49-.86,2.08-.24,.12,.73,1.71-2.08-.61-1.59-.12-2.45,1.96,.61,1.59-.73Z"/><path class="cls-12" d="M683.49,399.02l.61,.86-.12,1.1-1.47,.61,1.1,.73-.98,1.35-.61-.49-.61,.24h-1.47v-.73l-.24-.73,.86-1.22,.86-1.1,1.1,.24,.98-.86Z"/><path class="cls-12" d="M613.3,326.38l-.98,2.57,.37,.98-.49,1.59-1.96-1.22-1.35-.37-3.55-1.59,.37-1.59,2.93,.24,2.57-.37,2.08-.24Zm-16.14-9.78l1.59,2.32-.37,4.4-1.1-.24-1.1,1.1-.98-.86-.12-4.04-.61-1.96,1.35,.12,1.35-.86Zm8.07-19.69l3.67,.98-.24,1.83,.61,1.59-2.08-.49-2.08,1.35,.12,1.83-.37,.98,.86,1.83,2.45,1.83,1.22,2.93,2.81,2.81h1.96l.61,.73-.73,.73,2.32,1.22,1.83,.98,2.2,1.71,.24,.61-.49,1.22-1.47-1.59-2.2-.49-1.1,2.2,1.83,1.22-.24,1.71-1.1,.24-1.35,2.81-1.1,.24v-.98l.49-1.71,.61-.73-.98-1.96-.73-1.71-1.1-.37-.73-1.47-1.59-.61-1.1-1.35-1.83-.24-1.96-1.59-2.32-2.2-1.71-1.96-.86-3.42-1.22-.37-2.08-1.22-1.22,.49-1.47,1.59-1.1,.24,.24-1.59-1.35-.49-.61-2.81,.86-1.1-.73-1.35,.12-.98,1.1,.73,1.22-.12,1.47-1.22,.49,.61,1.22-.12,.61-1.47,1.83,.49,1.1-.61,.24-1.47,1.59,.49,.24-.73,2.57-.61,.49,.86Z"/><path class="cls-12" d="M376.06,383.73l1.71,.24,1.35,.61,.37,.73h-1.83l-.73,.49-1.47-.37-1.47-.98,.37-.61,1.1-.24,.61,.12Z"/><path class="cls-12" d="M634.08,334.45l1.35,1.1,1.96-.12,1.96,.24v.49l1.35-.37-.37,.86-3.67,.24v-.49l-3.06-.61,.49-1.35Zm7.46-19.08l-.73,2.08-.61,.37-1.59-.12-1.35-.37-3.06,.86,1.71,1.83-1.35,.49h-1.47l-1.35-1.71-.49,.73,.61,1.96,1.22,1.59-.98,.73,1.47,1.47,1.22,.98v1.83l-1.22-1.1-1.1,.24,.73,1.59-.86,.12-.86-.61,1.1,3.55h-.49l-.37-1.1h-.49l-.24,1.22-.37-.24,.12-.61-.49-.98h-.61l.12,.73-.24,.24-.61-.49-.37-.98,.49-.49-.37-.49-.37-.37-.37-.12-.49-.86,.49-.49,.37-.49,.49,.12,.24-.37,.49-.12,.61,.37,.49,.12,.37-.61-.86-.12-.49-.12-1.1,.24h-1.1l-.98-1.47-.12-.24,.12-.61-1.35-1.1-.12-.98,1.22-1.59,.12-1.1,.86-.49v-.86l1.71-.24,.98-.73,1.35,.12,.37-.61,.49-.12,1.83,.12,2.08-.98,1.83,1.22,2.32-.37v-1.71l1.35,1.22Z"/><path class="cls-12" d="M344.15,396.2l-1.35-.49h-1.59l-1.22-.49-1.35-1.1,.12-.73,.24-.61-.37-.49,1.22-2.2h3.3l.12-.86-.37-.12-.24-.61-.98-.61-.98-.86h1.1v-1.47h4.65v2.08l-.24,2.93h.73l.86,.49,.24-.37,.73,.37-1.22,.98-1.22,.73-.12,.49,.24,.49-.49,.61-.61,.12,.12,.37-.49,.24-.86,.61v.49Z"/><path class="cls-12" d="M662.7,353.16l-.73,1.22-.49,2.2-.73,1.47-.61,.49-.86-.98-1.1-1.22-1.83-4.16-.24,.24,1.1,3.06,1.59,2.93,1.96,4.4,.98,1.59,.86,1.59,2.32,3.06-.49,.49,.12,1.83,2.93,2.45,.49,.61h-30.33v-20.3l-.73-2.32,.61-1.83-.37-1.22,.98-1.47h3.42l2.45,.73,2.57,.86,1.22,.49,1.96-.98,1.1-.86,2.2-.24,1.83,.37,.73,1.47,.61-.98,2.08,.73,1.96,.12,1.22-.73,1.22,4.89Z"/><path class="cls-12" d="M540.17,358.54l-1.59,2.93-1.71,.98-.98,1.71v1.47l-.73,1.59-.86,.49-1.47,1.71-.73,2.08,.12,.98-.86,1.47-.98,.73-.12,1.22-.12,1.1,.61-.86h10.03l-.49-3.91,.61-1.47,2.45-.24-.12-7.09,8.32,.12v-5.14l-11.37,.12h0Z"/><path class="cls-12" d="M611.58,371.87l-1.83,.98-1.47-1.47-4.04-1.22-1.1-1.71-1.96-1.35-1.22,.49-.86-1.59-.12-1.22-1.47-2.08,.98-1.22-.24-1.83,.37-1.59-.24-1.35,.49-2.32-.12-1.35-.86-2.57,1.22-.73,.24-1.22-.24-1.22,1.71-1.1,.73-.98,1.22-.86,.12-2.32,2.93,1.1,1.1-.24,2.08,.49,3.42,1.35,1.22,2.69,2.32,.61,3.55,1.22,2.69,1.47,1.22-.73,1.22-1.35-.61-2.32,.86-1.47,1.83-1.47,1.71-.37,3.42,.61,.86,1.35h.98l.86,.49,2.57,.37,.61,.98-.98,1.47,.37,1.22-.61,1.83,.73,2.32v25.68h-2.93v1.1l-10.15-5.14-10.15-5.26-2.45,1.83Z"/><path class="cls-12" d="M570.13,343.13l-.86-3.18-.12-1.83-.98-1.96h-1.1l-2.69-.73-2.45,.24-1.59-1.35h-1.83l-.86,1.96-1.71,3.18-1.83,1.22-2.57,1.35-1.59,2.08-.37,1.59-.98,2.57,.61,3.67-2.08,2.45-1.22,.73-1.96,1.96-2.32,.37-1.22,1.1h11.37v-3.42l4.16-2.2,2.57-.49,2.08-.73,.98-1.47,2.93-1.22,.12-2.2,1.47-.24,1.1-1.1,3.3-.49,.49-1.22-.86-.61Z"/><path class="cls-12" d="M610.61,398.53l.24-1.22h-1.59v-1.71l-1.1-.98,1.1-3.42,3.3-2.45,.12-3.42,.98-5.38,.61-1.1-1.1-.98v-.86l-.98-.73-.61-4.28,2.57-1.47,10.15,5.26,10.15,5.14,.12,10.52-2.2-.24-1.22,1.96-.73,1.59,.49,.61-.86,.86,.24,1.1-.61,1.1-.24,.98,.86-.12,.49,.98v1.47l.98,.73v.61l-1.59,.49-1.35,1.1-1.83,2.81-2.45,1.22-2.45-.12-.73,.24,.24,.86-1.35,.86-1.1,.98-3.18,.98-.61-.61h-.37l-.49,.61-2.08,.24,.37-.73-.86-1.71-.37-1.1-1.1-.49-1.47-1.47,.61-1.22,1.22,.24,.73-.24h1.47l-1.35-2.32,.12-1.71-.12-1.71-1.1-1.71Z"/><path class="cls-12" d="M749.4,572.91l1.59,1.22,2.45,.49,.12,.73-.73,1.83-3.91,.24-.12-2.08,.37-1.59,.24-.86Z"/><path class="cls-12" d="M612.68,412.59l2.08-.24,.49-.61h.37l.61,.61,3.18-.98,1.1-.98,1.35-.86-.24-.86,.73-.24,2.45,.12,2.45-1.22,1.83-2.81,1.35-1.1,1.59-.49,.24,1.1,1.47,1.59v1.1l-.37,1.1,.12,.86,.86,.73,1.96,1.1,1.35,.98v.86l1.71,1.35,1.1,1.1,.61,1.47,1.96,.98,.37,.86-.86,.24h-1.59l-1.96-.24-.98,.24-.37,.61-.86,.12-.98-.49-2.81,1.22-1.1-.24-.37,.24-.73,1.59-1.96-.49-1.83-.24-1.59-.98-2.08-.86-1.35,.86-.98,1.35-.24,1.71-1.59-.12-1.71-.37-1.47,1.35-1.35,2.32-.24-.73-.12-1.1-1.22-.86-.98-1.35-.24-.86-1.22-1.35,.24-.73-.24-1.1,.24-1.96,.61-.49,1.22-2.81Z"/><path class="cls-12" d="M362.24,410.51l-1.35-.61-.49-.49,.24-.49-.12-.61-.73-.61-.98-.49-.86-.37-.12-.73-.61-.49,.12,.73-.49,.61-.61-.73-.86-.24-.37-.49v-.73l.37-.86-.73-.37,.61-.49,.37-.37,1.71,.73,.61-.37,.86,.24,.37,.49,.73,.12,.61-.49,.61,1.35,.98,.98,1.22,1.1-.98,.24v.98l.49,.37-.37,.24,.12,.49-.24,.49-.12,.86Z"/><path class="cls-12" d="M602.05,441.45l-2.57-2.57-1.71-2.08-1.59-2.57,.12-.86,.61-.86,.61-1.83,.49-1.83,.86-.12h3.67v-3.06l1.22-.12,1.59,.37,1.47-.37,.37,.12-.24,1.1,.73,1.35,1.96-.24,.61,.49-1.1,2.93,1.22,1.47,.24,1.96-.37,1.71-.73,1.22-2.2-.12-1.35-1.22-.24,1.1-1.71,.37-.86,.61,.98,1.71-2.08,1.35Z"/><path class="cls-12" d="M559.25,265.6l-1.35,2.93-1.96-.86h-1.59l.49-2.32-.49-2.32,2.08-.24,2.81,2.81Zm6.85-18.83l-2.69,5.26,2.57-.61h2.81l-.61,3.79-2.32,4.16,2.69,.24,.24,.49,2.32,5.26,1.71,.73,1.59,4.89,.73,1.71,3.06,.86-.37,2.69-1.35,1.22,.98,2.08-2.32,2.08h-3.42l-4.28,1.1-1.22-.73-1.71,1.83-2.32-.49-1.83,1.47-1.35-.73,3.79-4.16,2.32-.86h0l-4.04-.73-.73-1.59,2.69-1.35-1.35-2.2,.49-2.81,3.79,.37h0l.37-2.45-1.71-2.69v-.12l-3.06-.73-.61-1.22,.98-1.96-.86-1.22-1.35,2.08-.12-4.4-1.35-2.32,.98-4.89,1.96-3.91,2.08,.37,2.81-.49Z"/><path class="cls-12" d="M606.81,443.53l-.98-.86-.73,.37-.98,1.1-2.08-2.69,1.96-1.35-.98-1.71,.86-.61,1.71-.37,.24-1.1,1.35,1.22,2.2,.12,.73-1.22,.37-1.71-.24-1.96-1.22-1.47,1.1-2.93-.61-.49-1.96,.24-.73-1.35,.24-1.1,3.18,.12,2.08,.61,2.08,.61,.12-1.35,1.35-2.32,1.47-1.35,1.71,.37,1.59,.12-.12,1.59-.73,1.35-.49,1.59-.37,2.2,.12,1.47-.37,.86-.12,.98-.24,.86-1.71,1.22-1.22,1.35-1.1,2.45,.12,2.08-.61,.86-1.47,1.22-1.47,1.59-.98-.49-.12-.73h-1.35l-.86,.98-.73-.37Z"/><path class="cls-12" d="M607.06,425.67l-.37-.12-1.47,.37-1.59-.37-1.22,.12h-4.16l.37-1.96-.98-1.71-1.22-.49-.49-1.1-.61-.37v-.73l.61-1.83,1.22-2.45h.73l1.47-1.47h.98l1.47,1.1,1.71-.86,.24-1.1,.61-.98,.37-1.35,1.35-1.1,.49-1.83,.49-.61,.37-1.35,.73-1.59,2.2-1.96,.12-.86,.24-.49-.98-.98,.12-.86,.73-.12,.98,1.71,.12,1.71-.12,1.71,1.35,2.32h-1.47l-.73,.24-1.22-.24-.61,1.22,1.47,1.47,1.1,.49,.37,1.1,.86,1.71-.37,.73-1.22,2.57-.61,.49-.24,1.96,.24,1.1-.24,.73,1.22,1.35,.24,.86,.98,1.35,1.22,.86,.12,1.1,.24,.73-.12,1.35-2.08-.61-2.08-.61-2.93-.37Z"/><path class="cls-12" d="M615.37,446.34l.61,1.96,.73,1.59,.61,.86,.98,1.35,1.71-.24,.86-.37,1.47,.37,.37-.61,.61-1.47,1.59-.12,.12-.49h1.35l-.24,.98h3.06v1.59l.49,.98-.37,1.59,.24,1.59,.86,.98-.12,3.06,.61-.24,1.1,.12,1.59-.37,1.1,.12,.24,.86-.24,1.22,.49,1.22-.37,.98,.24,.86h-5.26l-.12,8.32,1.71,2.2,1.71,1.71-4.65,1.1-6.11-.37-1.71-1.22-10.27,.12-.37,.24-1.47-1.22-1.71-.12-1.47,.49-1.22,.49-.24-1.71,.37-2.32,.86-2.45,.12-1.1,.86-2.32,.61-1.1,1.47-1.71,.86-1.1,.24-1.96-.12-1.47-.73-.98-.73-1.59-.61-1.59,.12-.49,.73-.98-.73-2.45-.49-1.71-1.22-1.59,.24-.49,1.1-.37h.73l.86-.24,6.97-.37Zm-9.91-.49l-.61,.24-.73-1.96,.98-1.1,.73-.37,.98,.86-.98,.49-.37,.61v1.22Z"/><path class="cls-12" d="M406.76,600.05l-2.45,.24-1.35-1.59-1.59-.12h-2.69v-9.66l.98,1.96,1.22,3.18,3.3,2.57,3.55,1.1-.98,2.32Zm1.35-111.28l1.47,1.96,.98-2.2,2.93,.12,.37,.61,4.65,4.52,2.08,.37,3.06,2.08,2.57,1.1,.37,1.22-2.57,4.28,2.57,.73,2.81,.49,1.96-.49,2.32-2.2,.37-2.45,1.22-.49,1.22,1.59v2.32l-2.2,1.59-1.71,1.22-2.93,2.81-3.42,3.91-.61,2.32-.73,3.06v3.06l-.61,.73-.24,1.96-.12,1.59,3.18,2.69-.37,2.2,1.59,1.35-.12,1.59-2.45,4.16-3.79,1.71-5.14,.73-2.81-.37,.49,1.96-.49,2.45,.49,1.71-1.59,1.22-2.57,.49-2.45-1.22-.98,.86,.37,3.42,1.71,.98,1.35-1.1,.73,1.83-2.32,1.1-2.08,2.2-.37,3.55-.61,1.96h-2.45l-1.96,1.83-.73,2.69,2.45,2.69,2.45,.73-.86,3.42-3.06,2.2-1.71,4.52-2.32,1.59-1.1,1.83,.86,4.16,1.71,2.45-1.1-.24-2.32-.61-6.11-.61-1.1-2.45v-3.06l-1.71,.24-.86-1.47-.24-4.16,1.96-1.71,.86-2.45-.24-1.96,1.35-3.18,.98-4.89-.24-2.08,1.1-.73-.24-1.35-1.22-.73,.86-1.47-1.1-1.35-.61-4.04,.98-.73-.49-4.16,.61-3.42,.73-2.93,1.47-1.22-.73-3.18v-2.93l1.96-2.08v-2.57l1.47-3.06v-2.81l-.61-.61-1.22-5.14,1.59-3.06-.24-2.81,.86-2.69,1.71-2.69,1.83-1.71-.73-1.1,.49-.86-.12-4.65,2.81-1.35,.86-2.81-.37-.73,2.08-2.45,4.28,.61Z"/><path class="cls-12" d="M426.81,511.76l3.42-3.91,2.93-2.81,1.71-1.22,2.2-1.59v-2.32l-1.22-1.59-1.22,.49,.49-1.59,.37-1.71v-1.59l-.86-.49-.98,.49-.98-.12-.24-1.1-.24-2.57-.49-.86-1.71-.73-1.1,.49-2.69-.49,.12-3.67-.73-1.47,.86-.61-.24-1.59,.73-1.22,.49-2.08-.61-1.71-1.35-.73-.24-1.1,.37-1.47-4.89-.12-.98-3.06h.73v-1.1l-.49-.73-.12-1.47-1.47-.73h-1.59l-1.1-.73-1.71-.49-.98-.98-2.81-.49-2.81-2.32,.24-1.71-.37-.98,.24-1.96-3.3,.49-1.35,.98-2.2,1.1-.61,.73h-1.35l-1.83-.24-1.47,.49-1.1-.24,.12-3.91-2.08,1.47-2.2-.12-.98-1.35-1.71-.12,.49-1.1-1.47-1.59-1.1-2.32,.61-.49v-1.1l1.59-.73-.24-1.35,.61-.86,.24-1.22,2.93-1.71,2.08-.49,.37-.37,2.32,.12,1.1-6.97v-1.1l-.37-1.47-1.1-.98v-1.83l1.47-.37,.49,.24,.12-.98-1.47-.24v-1.59h5.01l.86-.86,.73,.86,.49,1.47,.49-.37,1.35,1.35,1.96-.12,.49-.73,1.83-.61,1.1-.37,.24-1.1,1.83-.73-.12-.49-2.2-.24-.37-1.59,.12-1.71-1.1-.61,.49-.24,1.83,.37,2.08,.61,.73-.61,1.83-.37,2.81-.98,.98-.98-.37-.73,1.35-.12,.61,.61-.37,1.1,.86,.37,.61,1.22-.73,.86-.37,2.2,.61,1.22,.24,1.22,1.59,1.22,1.22,.12,.24-.49,.86-.12,1.1-.49,.86-.73,1.47,.24,.61-.12,1.35,.24,.24-.49-.37-.49,.24-.73,.98,.24,1.22-.24,1.47,.49,1.1,.49,.73-.73,.61,.12,.37,.73,1.22-.12,.98-.98,.73-1.83,1.47-2.32,.86-.12,.61,1.35,1.47,4.4,1.35,.37,.12,1.71-1.96,2.08,.73,.73,4.52,.37,.12,2.57,1.96-1.71,3.18,.86,4.28,1.59,1.22,1.47-.37,1.35,2.93-.73,5.01,1.35,3.79-.12,3.79,2.08,3.3,2.81,1.96,.73,2.2,.12,.98,.86,.86,3.3,.37,1.59-.98,4.28-1.35,1.71-3.55,3.55-1.59,2.93-1.83,2.2h-.61l-.73,1.96,.12,4.89-.73,4.04-.24,1.71-.86,1.1-.49,3.55-2.57,3.55-.49,2.81-2.08,1.22-.61,1.59h-2.81l-4.04,1.1-1.83,1.22-2.81,.86-3.06,2.2-2.2,2.81-.37,2.08,.37,1.59-.49,2.93-.61,1.47-1.83,1.59-2.81,5.14-2.2,2.32-1.71,1.35-1.22,2.81-1.71,1.71-.73-1.71,1.1-1.47-1.47-2.08-1.96-1.59-2.57-1.96-.98,.12-2.57-2.32-1.71,.86Z"/><path class="cls-12" d="M376.06,369.42l-.61,.12-.61-1.59-.98-.86,.61-1.83,.73,.12,.86,2.32v1.71h0Zm-.73-7.95l-2.81,.49-.12-1.1,1.22-.24,1.71,.12v.73Zm2.2,0l-.49,1.96-.49-.37v-1.47l-1.1-1.1v-.37l2.08,1.35Z"/><path class="cls-7" d="M670.28,393.02l1.59,1.22,1.47-.61,.61,.49h1.71l2.2,1.1,.61,.86,1.1,.86,1.1,1.47,.86,.86-.86,1.1-.86,1.22,.24,.73v.73h1.47l.61-.24,.61,.49-.61,.86,.98,1.47,.98,1.22,.98,.86,8.32,3.06h2.2l-7.21,7.7-3.3,.12-2.32,1.83h-1.59l-.73,.86h-1.71l-.98-.86-2.32,1.1-.73,1.1-1.71-.24-.61-.24-.61,.12h-.86l-3.18-2.2h-1.83l-.86-.86v-1.47l-1.35-.37-1.47-2.81-1.22-.61-.49-.98-1.35-1.22-1.59-.24,.86-1.47,1.35-.12,.37-.73v-2.32l.73-2.69,1.22-.73,.24-1.1,1.1-1.96,1.59-1.35,.98-2.57,.37-2.2,2.93,.49,.98-1.71Z"/><path class="cls-12" d="M417.76,585.62l3.06-2.45,2.2,.98,1.59-1.59,2.08,1.83-.73,1.47-3.42,1.22-1.1-1.47-2.2,1.83-1.47-1.83Z"/><path class="cls-12" d="M831.33,415.65l.24,1.35,1.71-.24,.86-1.1,.61,.24,1.47,1.59,1.1,1.71,.12,1.71-.24,1.1,.24,.86,.24,1.47,.86,.73,.98,2.2v.86l-1.83,.12-2.45-1.83-3.06-1.96-.24-1.35-1.47-1.71-.37-2.08-.98-1.35,.24-1.83-.61-1.1,.49-.49,2.08,1.1Zm44.76,4.4l-1.83,.86-2.2-.49h-2.93l-.86,2.93-.98,.86-1.35,3.55-2.08,.49-2.45-.73-1.22,.24-1.47,1.22-1.59-.12-1.59,.49-1.71-1.47-.37-1.71,1.83,.86,1.96-.49,.49-2.2,1.1-.49,3.06-.49,1.83-1.96,1.22-1.59,1.1,1.35,.49-.86,1.22,.12,.12-1.59,.12-1.22,1.96-1.71,1.35-1.96h.98l1.35,1.35,.12,1.1,1.71,.73,2.08,.73-.12,.98-1.71,.12,.37,1.1Z"/><path class="cls-12" d="M661.84,460.77l1.96-.24,3.06,.73,.61-.37,1.83-.12,.86-.73h1.59l2.81-.98,2.08-1.47,.37,1.1-.12,2.57,.37,2.32,.12,4.04,.49,1.22-.73,1.83-.98,1.83-1.59,1.59-2.32,.98-2.81,1.35-2.93,2.81-.98,.49-1.83,1.96-1.1,.61-.24,1.96,1.22,2.08,.49,1.59v.86l.49-.12-.12,2.69-.37,1.22,.61,.49-.37,1.1-1.1,.98-2.08,.98-3.06,1.47-1.1,.98,.24,1.22,.61,.24-.24,1.47h-1.96l-.24-1.22-.37-1.22-.24-.98,.49-3.06-.61-1.96-1.22-3.91,2.69-3.06,.61-1.96,.37-.24,.24-1.59-.37-.86,.12-1.96,.49-1.83v-3.3l-1.35-.86-1.22-.24-.49-.61-1.22-.61h-2.08l-.12-.98-.24-1.83,7.7-2.2,1.47,1.22,.73-.24,.98,.61,.12,1.1-.49,1.22,.24,1.83,1.71,1.59,.73-1.83,1.1-.61-.24-3.42-1.1-1.83-.98-.86h-.86l-.73-3.42,.61-1.59Z"/><path class="cls-12" d="M881.34,457.47h-1.1l-3.42-1.83,2.32-.49,1.35,.73,.86,.73v.86h0Zm9.54-.24l-2.2,.61-.24-.37,.24-.86,1.1-1.59,2.57-.98,.24,.49v.73l-1.71,1.96Zm-16.63-5.26l.98,.73,1.59-.24,.61,1.1-2.93,.49-1.71,.37h-1.35l.86-1.47h1.35l.61-.98Zm12.72,0l-.37,1.47-3.79,.73-3.42-.37v-.98l2.08-.49,1.59,.73,1.71-.24,2.2-.86Zm-36.44-3.42l4.89,.24,.61-1.1,4.77,1.22,.98,1.71,3.79,.49,3.18,1.47-2.93,.98-2.81-.98-2.32,.12-2.69-.24-2.45-.49-2.93-.98-1.83-.24-1.1,.37-4.65-1.1-.49-1.1-2.32-.24,1.71-2.45,3.06,.12,2.08,.98,1.1,.24,.37,.98Zm66.52-1.35l-1.35,1.71-.24-1.96,.49-.86,.49-.86,.61,.73v1.22h0Zm-19.08-7.09l-.98,.86-1.71-.49-.49-1.1,2.57-.12,.61,.86Zm8.32-.86l.98,1.96-2.2-1.1-2.08-.24-1.47,.12-1.71-.12,.61-1.35,3.18-.12,2.69,.86Zm9.29-5.01l.73,4.16,2.69,1.47,2.08-2.69,2.93-1.59h2.32l2.2,.86,1.83,.86,2.69,.49v16.63l-2.32-2.08-2.57-.49-.61,.73-3.18,.12,1.1-2.08,1.59-.73-.61-2.81-1.22-2.08-4.89-2.2-2.08-.24-3.79-2.32-.73,1.22-.98,.24-.61-.98v-1.1l-1.96-1.22,2.69-.86h1.83l-.24-.73h-3.79l-.98-1.47-2.32-.49-1.1-1.22,3.42-.61,1.35-.86,4.04,1.1,.49,.98Zm-13.94-5.75l-.12,2.2-1.35-.24-.37,1.59,1.1,1.35-.73,.24-.98-1.59-.73-3.18,.49-2.08,.86-.98,.24,1.35,1.47,.24,.12,1.1Zm-27.51-1.71l2.81,2.32-3.06,.24-.86,1.71,.12,2.32-2.45,1.71-.12,2.57-.98,3.91-.37-.86-2.93,1.1-.98-1.59-1.83-.12-1.22-.86-3.06,.86-.98-1.22-1.71,.12-2.08-.24-.37-3.42-1.22-.73-1.22-2.2-.37-2.2,.24-2.32,1.47-1.71,.37,1.71,1.71,1.47,1.59-.49,1.59,.12,1.47-1.22,1.22-.24,2.45,.73,2.08-.49,1.35-3.55,.98-.86,.86-2.93h2.93l2.2,.49-1.47,2.32,1.83,2.45v1.1h0Z"/><path class="cls-12" d="M621.73,286.51l.12,.24,1.1-.49,1.35,1.35,1.47-.86,1.22,.37,1.83-.61,2.45,1.47-.73,.98-.49,1.59-.49,.37-2.69-1.22-.86,.24-.61,.86-1.22,.49-.24-.24-1.22,.61-.98,.12-.24,.73-2.08,.49-.98-.37-1.35-.98-.24-1.35,.24-.49,.37-.86,1.1,.12,.86-.37,.12-.37,.49-.24,.12-.86,.61-.12,.37-.73,.61,.12Z"/><path class="cls-12" d="M944.32,544.78l2.45,1.1,1.35-.49,1.96-.61,1.59,.24,.12,4.04-.86,1.22-.24,2.81-.86-.98-1.71,2.45-.49-.24-1.59-.12-1.59-2.93-.37-2.32-1.47-2.93,.12-1.59,1.59,.37Zm-4.77-78.26l.98,2.08,1.59-.98,.86,1.1,1.22,.98-.24,1.22,.49,2.2,.37,1.35,.61,.37,.73,2.32-.24,1.35,.86,1.83,2.81,1.35,1.83,1.22,1.71,1.22-.37,.61,1.47,1.71,.98,2.93,.98-.61,.98,1.22,.61-.37,.49,2.93,1.83,1.71,1.22,1.1,1.96,2.2,.73,2.2,.12,1.59-.12,1.71,1.22,2.45-.12,2.57-.49,1.35-.73,2.57v1.71l-.49,2.08-1.1,2.69-1.83,1.47-.98,2.32-.86,1.47-.73,2.69-.98,1.59-.61,2.32-.37,2.2,.12,.98-1.47,1.1-2.81,.12-2.32,1.35-1.22,1.22-1.59,1.35-2.08-1.47-1.59-.61,.37-1.71-1.35,.61-2.2,2.32-2.2-.86-1.47-.49-1.47-.24-2.45-.98-1.59-1.96-.49-2.45-.61-1.59-1.22-1.22-2.45-.37,.86-1.47-.61-2.32-1.22,2.08-2.32,.61,1.35-1.71,.37-1.83,.98-1.47-.24-2.2-2.08,2.57-1.59,1.1-.98,2.45-1.96-1.22,.12-1.59-1.59-2.2-1.35-1.1,.49-.73-3.3-1.83-1.83-.12-2.45-1.47-4.52,.24-3.3,1.1-2.93,.98-2.45-.24-2.69,1.59-2.2,.73-.49,1.59-.98,1.22-2.2,.12-1.59,.24-2.2-.61-1.83,.37-1.71,.12-1.47,1.59-.73-.12-1.22,.86-1.22,.98-1.83-.12h-1.71l-2.69-1.96-1.35-.61v-1.71l1.22-.37,.49-.73-.12-1.1,.37-2.08-.24-1.71-1.35-2.93-.37-1.71,.12-1.71-.98-1.83-.12-.86-1.1-1.1-.37-2.2-1.47-2.2-.37-1.22,1.1,1.22-.86-2.57,1.22,.86,.73,1.1v-1.47l-1.22-2.2-.24-.86-.61-.86,.24-1.59,.49-.73,.37-1.35-.24-1.59,1.1-1.96,.24,2.08,1.1-1.83,2.08-.86,1.22-1.1,1.96-.98,1.1-.24,.73,.37,1.96-.98,1.59-.24,.37-.61,.73-.24,1.47,.12,2.69-.73,1.35-1.22,.61-1.47,1.47-1.35,.12-1.1,.12-1.47,1.83-2.2,1.1,2.32,1.1-.49-.86-1.22,.86-1.22,1.1,.61,.37-1.96,1.35-1.35,.61-.98,1.22-.49v-.73l1.1,.24v-.61l1.1-.37,1.22-.37,1.83,1.22,1.47,1.59h1.59l1.59,.24-.49-1.47,1.22-2.08,1.1-.73-.37-.61,1.1-1.47,1.59-.86,1.35,.37,2.2-.49v-1.35l-1.83-.86,1.35-.37,1.71,.61,1.35,1.1,2.2,.61,.73-.24,1.59,.86,1.47-.73,.98,.24,.61-.49,1.22,1.22-.73,1.35-.98,1.1-.86,.12,.24,1.1-.73,1.35-.86,1.35,.12,.73,2.08,1.47,1.96,.86,1.35,.86,1.83,1.59h.73l1.35,.73,.37,.86,2.45,.86,1.71-.86,.49-1.47,.49-1.22,.37-1.47,.73-2.08-.37-1.22,.24-.73-.24-1.47,.37-1.96,.49-.49-.37-.86,.61-1.35,.49-1.47,.12-.73,.98-.98,.73,1.22,.12,1.59,.61,.37,.12,1.1,.98,1.35,.24,1.47h-1.22Z"/><path class="cls-12" d="M688.38,321.49l.73,.86h1.1v.49l1.1,1.83-1.71-.49-1.35-1.47-.37-1.22h.49Zm6.11-5.01l1.1,.24,.49-.86,1.47-1.35,1.35,1.83,1.35,2.32,1.22,.12,.73,.86-2.08,.24-.49,2.69-.49,1.1-.98,.73,.12,1.59-.61,.12-1.59-1.71,.86-1.59-.73-.98-.98,.24-3.06,2.45v-2.32l-1.1-.49-1.1-.86,.73-1.1-1.35-1.1,.49-.86-.98-.61-.49-.86,.61-.61,1.96,.98,1.35,.24,.37-.37-1.22-1.83,.61-.49,.73,.12,1.71,2.08Z"/><path class="cls-12" d="M970.98,448.66l-.73,.24-1.1-.98-1.1-1.59-.49-1.96,.37-.24,.24,.73,.73,.61,1.22,1.59,1.22,.86-.37,.73Zm-9.91-3.42l-1.35,.24-.37,.73-1.35,.61-1.35,.61h-1.35l-2.08-.73-1.47-.73,.24-.73,2.32,.37,1.35-.24,.37-1.22,.37-.12,.24,1.35,1.47-.24,.73-.86,1.47-.86-.24-1.47h1.47l.49,.37v1.47l-.98,1.47Zm-12.23,4.89l2.32,1.71,1.71,2.69,1.47-.12-.12,1.1,1.96,.49-.73,.49,2.69,1.1-.24,.73-1.71,.12-.61-.61-2.2-.24-2.57-.37-1.96-1.59-1.47-1.47-1.35-2.2-3.3-1.1-2.2,.73-1.59,.86,.37,1.83-1.96,.86-1.47-.49-2.69-.12v-16.63l4.4,1.71,4.77,1.47,1.71,1.35,1.47,1.22,.37,1.47,4.28,1.59,.61,1.35-2.32,.24,.37,1.83Zm15.16-7.34l-.86,.73-.49-1.47-.61-.98-1.1-.86-1.47-1.1-1.83-.73,.73-.61,1.35,.73,.86,.61,1.1,.61,.98,1.1,.98,.86,.37,1.1Z"/><path class="cls-12" d="M895.77,410.02l.24,1.71,.12,1.47-.86,2.32-.98-2.57-1.22,1.35,.86,1.83-.73,1.22-3.06-1.47-.73-1.83,.73-1.22-1.59-1.22-.86,1.1-1.22-.12-1.83,1.47-.37-.73,.98-2.2,1.59-.73,1.35-.98,.86,1.1,1.96-.73,.37-1.1,1.83-.12-.12-1.96,2.08,1.22,.24,1.35,.37,.86Zm-6.11-4.77l-.86,.86-.86,1.59-.86,.73-1.59-1.83,.49-.73,.61-.73,.24-1.59,1.35-.12-.37,1.71,1.83-2.45v2.57Zm-13.94,2.45l-3.42,2.45,1.22-1.83,1.83-1.59,1.59-1.83,1.35-2.57,.49,2.08-1.71,1.47-1.35,1.83Zm8.68-6.6l1.59,.86h1.59v1.1l-1.22,1.1-1.59,.73-.12-1.22,.12-1.35-.37-1.22Zm9.17-.73l.73,2.93-1.96-.73v.86l.61,1.59-1.22,.61-.12-1.83-.73-.12-.37-1.59,1.47,.24v-.98l-1.59-1.96h2.45l.73,.98Zm-10.15-2.32l-.73,2.2-1.1-1.35-1.35-1.96,2.2,.12,.98,.98Zm-.49-14.31l1.59,.73,.73-.73,.24,.73-.37,1.1,.86,1.96-.61,2.2-1.47,.86-.37,2.08,.61,2.08,1.35,.24,1.1-.37,3.18,1.47-.24,1.47,.86,.61-.24,1.22-1.96-1.22-.98-1.35-.61,.98-1.59-1.59-2.32,.37-1.22-.61,.12-1.1,.86-.61-.73-.61-.37,.98-1.22-1.47-.37-1.1-.12-2.57,.98,.86,.24-4.16,.86-2.45h1.22Z"/><path class="cls-12" d="M854.93,383.24l-2.2,1.22-2.08-.86-.12-2.32,1.22-1.22,2.81-.73,1.47,.12,.61,.98-1.1,1.22-.61,1.59Zm44.14-97.71l4.4,1.22,3.06,2.81,.98,3.55h3.91l2.2-1.47,4.16-1.1-1.35,3.42-.98,1.35-.86,4.04-1.71,3.55-3.06-.61-2.2,1.22,.61,3.06-.37,4.16-1.35,.12v1.71l-1.59-2.08-.98,1.96-3.91,1.47,.37,1.83-2.2-.12-1.22-1.1-1.71,2.45-2.81,1.83-2.08,2.08-3.55,.98-1.83,1.59-2.69,.86,1.35-1.47-.49-1.22,2.08-2.2-1.35-1.71-2.2,1.22-2.93,2.32-1.59,2.08-2.45,.12-1.35,1.47,1.35,2.2,2.08,.49,.12,1.47,1.96,.98,2.81-2.32,2.32,1.22,1.59,.12,.37,1.71-3.67,.86-1.22,1.71-2.45,1.59-1.35,2.2,2.69,1.71,.98,3.06,1.59,2.81,1.71,2.32v2.2l-1.59,.86,.61,1.59,1.47,.86-.37,2.32-.61,2.32-1.47,.24-1.83,3.06-2.08,3.67-2.32,3.3-3.55,2.57-3.55,2.32-2.81,.37-1.59,1.22-.86-.86-1.47,1.35-3.55,1.35-2.69,.37-.86,2.81-1.47,.12-.61-1.96,.61-1.1-3.42-.86-1.22,.49-2.57-.73-1.22-1.1,.37-1.59-2.32-.49-1.22-.98-2.2,1.47-2.45,.37h-2.08l-1.35,.61-1.35,.37,.37,3.18-1.35-.12-.24-.61-.12-1.1-1.83,.73-1.1-.49-1.83-.98,.73-2.32-1.59-.49-.61-2.57-2.69,.49,.37-3.3,2.45-2.32,.12-2.32-.12-2.2-1.1-.73-.86-1.71-1.47,.24-2.69-.49,.86-1.22-1.22-1.83-1.83,1.22-2.08-.73-2.93,1.83-2.32,2.2-2.08,.37-1.1-.73-1.35-.12-1.83-.61-1.35,.73-1.71,2.08-.24-2.2-1.59,.61-2.93-.24-2.93-.61-2.08-1.22-1.96-.61-.86-1.35-1.47-.37-2.57-1.96-2.08-.86-1.1,.73-3.55-2.08-2.45-1.83-.73-3.3,1.83,.37,.12-1.59-.98-1.59,.24-2.45-2.69-3.67-4.16-1.22-.73-2.45-1.83-1.47-.49-.86-.37-1.83,.12-1.22-1.59-.73-.86,.37-.61-3.06,.73-.73-.37-.73,2.45-1.59,1.71-.61,2.69,.49,.98-2.08,3.3-.37,.86-1.35,4.04-1.83,.37-.73-.24-1.96,1.71-.86-2.32-6.11,5.01-1.47,1.35-.86,1.83-6.6,5.01,1.22,1.47-1.71,.12-3.79,2.08-.37,1.96-2.57,.98-.37,.61,2.69,2.2,2.08,3.67,1.47,1.71,3.06-.98,4.28,.86,1.59,3.06,.61,3.42,.49,3.06,2.2,1.59,.37,1.1,3.3,1.47,2.08,2.81-.12,5.26,.73,3.42-.49,2.57,.49,3.79,2.08h3.06l1.1,1.1,2.93-1.83,4.16-1.22,3.79-.12,2.93-1.22,1.83-1.83,1.83-1.22-.37-1.22-.86-1.35,1.35-2.32,1.47,.37,2.57,.73,2.57-1.96,3.91-1.35,1.83-2.45,1.83-1.1,3.67-.49,1.96,.37,.24-1.35-2.32-2.57-2.08-1.22-1.96,1.35-2.57-.61-1.47,.49-.61-1.59,1.83-3.79,1.22-2.93,3.06,1.47,3.55-2.45v-1.71l2.32-4.28,1.47-1.35v-2.32l-1.35-.98,2.08-2.08,3.18-.73,3.42-.12,3.79,1.22,2.2,1.59,1.59,4.16,.98,1.71,.86,2.45,1.1,3.42Z"/><path class="cls-12" d="M672.6,341.54l-5.01,3.18-2.81-1.22h0l.37-.49v-1.22l.61-1.71,1.35-1.1-.37-1.22-1.1-.12-.24-2.32,.61-1.22,.73-.73,.73-.73,.12-1.71,.86,.61,2.81-.86,1.35,.61h2.08l2.93-1.22h1.35l2.93-.49-1.35,1.96-1.35,.73,.24,2.32-.98,3.79-5.87,3.18Z"/><path class="cls-12" d="M797.33,287.25l2.69-.73,4.89-3.42,3.91-1.83,2.2,1.22h2.69l1.71,1.83,2.57,.12,3.67,.98,2.45-2.81-.98-2.32,2.69-4.28,2.81,1.71,2.32,.49,3.06,1.1,.49,3.06,3.67,1.71,2.45-.73,3.18-.49,2.57,.49,2.45,1.96,1.59,1.96h2.32l3.18,.61,2.32-.98,3.3-.61,3.79-2.81,1.59,.49,1.35,1.35,3.06-.37-1.22,2.93-1.83,3.79,.61,1.59,1.47-.49,2.57,.61,1.96-1.35,2.08,1.22,2.32,2.57-.24,1.35-1.96-.37-3.67,.49-1.83,1.1-1.83,2.45-3.91,1.35-2.57,1.96-2.57-.73-1.47-.37-1.35,2.32,.86,1.35,.37,1.22-1.83,1.22-1.83,1.83-2.93,1.22-3.79,.12-4.16,1.22-2.93,1.83-1.1-1.1h-3.06l-3.79-2.08-2.57-.49-3.42,.49-5.26-.73-2.81,.12-1.47-2.08-1.1-3.3-1.59-.37-3.06-2.2-3.42-.49-3.06-.61-.98-1.59,.98-4.28-1.71-3.06-3.67-1.47-2.2-2.08-.98-2.81Z"/><path class="cls-12" d="M542.74,394l-1.71-1.83-1.59-1.96-1.71-.73-1.22-.73h-1.47l-1.22,.61-1.22-.24-.86,.86-.24-1.47,.73-1.35,.37-2.45-.24-2.69-.37-1.35,.24-1.35-.61-1.35-1.35-1.22,.61-.86h10.03l-.49-3.91,.61-1.47,2.45-.24-.12-7.09,8.32,.12v-4.28l9.54,6.85h-3.91l1.22,11.86,1.22,11.49,.49,.37-.61,1.83h-10.27l-.37,.61-.98-.12-1.47,.49-1.83-.73h-.86l-.49,1.59-.61,.73Z"/><path class="cls-12" d="M1058.17,206.3l-2.57,2.69-4.16,.61-.12,5.87-.98,1.22-2.45-.12-1.96-2.08-3.42-1.71-.61-2.57-2.57-.98-2.93,.86-1.35-2.2,.61-2.32-3.06,1.47,1.1,2.93-1.47,2.57h0l-3.3,2.57-3.3-.49,2.32,3.18,1.47,4.77,1.22,1.47,.24,2.32-.61,1.47-4.77-1.22-7.09,4.16-2.32,.61-3.91,3.67-3.67,3.18-.98,2.32-3.67-3.55-6.6,4.04-1.1-1.83-2.45,2.2-3.42-.73-.86,3.3-3.06,4.77,.12,1.96,2.93,1.1-.37,6.73-2.32,.12-1.1,3.79,1.1,1.96-4.4,2.2-.86,4.89-3.79,.98-.73,4.28-3.67,3.79-.98-2.81-1.1-6.11-1.47-9.66,1.22-6.36,2.2-2.81,.12-2.2,3.91-1.1,4.52-6.11,4.4-5.26,4.52-4.16,2.08-7.58-3.06,.49-1.59,4.52-6.48,5.75-2.08-6.48-6.6,1.83-6.36,8.68,2.08,3.06-5.75,1.35-3.91,.49,.24-3.55-3.91-.73-3.18,2.45-7.83-.86-8.44,1.47-8.32,9.42-9.78,10.76,4.04,.61,1.22,2.69,2.45,.98,1.59-2.2,2.81,.24,3.67,4.77,.12,3.55-1.96,4.16-.24,4.77-1.1,6.24-3.79,5.5-.86,2.57-3.42,4.28-3.42,4.16-1.59,2.08-3.42,2.08h-1.59l-1.59-1.71-3.42,2.57-.37,1.1-.37-.61v-1.71l1.35-.12,.37-4.16-.61-3.06,2.2-1.22,3.06,.61,1.71-3.55,.86-4.04,.98-1.35,1.35-3.42-4.16,1.1-2.2,1.47h-3.91l-.98-3.55-3.06-2.81-4.4-1.22-.98-3.91-.86-2.45-.98-1.71-1.59-4.16-2.2-1.59-3.79-1.22-3.42,.12-3.18,.73-2.08,2.08,1.35,.98v2.32l-1.47,1.35-2.32,4.28v1.71l-3.55,2.45-3.06-1.47-3.06,.37-1.35-1.35-1.59-.49-3.79,2.81-3.3,.61-2.32,.98-3.18-.61h-2.32l-1.59-1.96-2.45-1.96-2.57-.49-3.18,.49-2.45,.73-3.67-1.71-.49-3.06-3.06-1.1-2.32-.49-2.81-1.71-2.69,4.28,.98,2.32-2.45,2.81-3.67-.98-2.57-.12-1.71-1.83h-2.69l-2.2-1.22-3.91,1.83-4.89,3.42-2.69,.73-.98,.37-1.35-2.45-3.3,.49-1.1-1.71-1.83-.73-1.22-2.32-1.47-.73-3.67,.98-3.55-2.32-1.35,2.08-5.75-10.52-3.3-3.3,.98-1.35-6.36,4.04-2.45,.24,.24-2.32-3.3-1.47-2.69,1.1-.86-4.52-4.52-.98-2.32,1.83-6.36,1.59-1.22,1.1-9.54,1.47-1.22,1.47,1.83,2.93-2.45,1.1,.49,1.1-2.45,2.08,4.16,2.81-.61,1.96-3.55-.12-.73,1.22-3.3-2.08-4.04,.12-2.69,1.71-3.06-1.59-5.63-2.81-4.04,.12-5.26,4.4-.37,2.93-2.57-2.32-2.08,4.28,.73,.73-1.47,2.93,2.2,2.57,1.83-.12,1.59,2.57-.24,1.96,1.35,.61-1.1,2.2-2.45,.61-2.57,3.67,2.32,3.3-.24,2.32,2.81,4.04-1.47,1.35-.49,.86-1.1-.24-1.71-2.08-.73-.12-1.59-.73-.73-1.47-2.32-.73-1.59,.49-.49-.61-3.42-1.71-3.79-.61-2.2-.61-.37,.37-3.3-2.93-2.93-1.35-2.2-2.08,1.83-.61,2.08-3.06-1.47-1.47,3.79-1.47-.12-.86-2.32,.61,.12-1.71,1.35-1.1,2.45-.24,.37-1.22-.61-2.08,.98-2.08v-1.1l-3.79-1.22h-1.47l-1.59-1.83-1.96,.61-3.18-1.35v-.73l-.86-1.71-2.08-.24-.24-1.22,.61-.86-1.59-2.32-2.69,.37-.73-.24-.61,.98-.98-.12-.61-2.69-.61-1.35,.49-.37,2.08,.12,.98-.98-.73-1.1-1.71-.73,.12-.73-.98-.73-1.59-2.81,.49-1.22-.24-2.08-2.45-1.1-1.35,.49-.37-1.1-2.69-1.1-.86-2.69-.24-2.32-1.22-1.1,1.1-1.47-.73-4.52,1.83-2.81-.37-.86,2.93-2.81-2.69-2.45,5.5-6.73,2.32-3.18,.98-2.81-3.79-3.91,1.1-3.79-2.32-4.4,1.71-5.26-2.93-7.21,2.32-5.01-3.91-4.52,.37-4.89,2.08-.61,4.28-2.93,2.69-2.57,4.16,4.4,6.97,1.71,9.66,7.83,1.96,3.18,.12,4.4-2.81,3.3-4.16,1.71-11.37-4.77-1.83,.86,4.16,4.65,.12,2.81,.12,6.11,3.3,1.83,1.96,1.47,.37-2.81-1.59-2.57,1.59-2.32,6.11,3.67,2.2-1.47-1.71-4.4,5.99-6.11,2.32,.37,2.32,2.2,1.47-4.4-2.08-3.91,1.22-4.04-1.83-4.28,7.09,2.2,1.47,3.79-3.18,.86v3.67l1.96,2.2,3.91-1.35,.61-4.16,5.38-3.18,8.93-5.99,1.96,.37-2.57,4.16,3.18,.73,1.83-2.32,4.77-.24,3.79-2.93,2.93,4.16,2.93-4.65-2.69-4.16,1.35-2.45,7.58,2.2,3.55,2.2,9.29,7.95,1.71-3.67-2.57-3.79-.12-1.47-3.06-.73,.86-3.42-1.35-5.87-.12-2.45,4.65-7.21,1.71-7.7,1.83-1.71,6.73,2.32,.49,4.77-2.45,6.6,1.59,2.57,.86,5.38-.61,10.03,2.81,4.28-1.1,4.52-5.01,9.29,2.93,.98,.98-2.32,2.81-1.59,.73-3.18,2.2-3.18-1.47-3.91,1.22-4.65-2.81-.61-.61-4.04,2.08-7.58-3.3-6.36,4.52-5.5-.61-5.99,1.22-.24,1.35,4.77-.98,7.83,2.69,1.47-1.1-5.75,4.28-3.3,5.26-.49,4.77,4.77-2.32-6.97-.24-9.29,4.4-1.83,6.11,.37,5.5-1.22-2.08-4.89,2.93-6.36,2.93-.24,5.01-5.01,6.73-1.35,.86-2.81,6.73-.98,2.08,2.32,5.75-5.63,4.65,.12,.73-4.77,2.45-4.89,5.99-4.77,4.4,3.79-3.42,2.81,5.75,1.71,.73,5.5,2.32-2.69,7.46,.12,5.75,5.26,2.08,3.91-.61,5.38-2.81,2.93-6.73,5.38-1.96,2.81,3.18,1.35,3.79,2.32,2.32-1.71,1.35,5.87,1.1-2.32,4.04-1.47,8.19,1.47,.61,4.16,10.64,1.35,.12-6.85,5.38,1.59h4.04l4.16,4.65,1.22,5.5-1.47,3.55,3.18,6.36,4.04,3.18,2.45-8.32,4.04,3.67,4.4-2.2,4.89,2.45,1.83-2.2,4.16,1.1-1.83-7.58,3.42-3.67,22.99,5.5,2.2,4.89,6.73,5.99,10.27-1.47,5.01,1.35,2.08,3.18-.37,5.5,3.18,2.08,3.42-1.47,4.52-.24,4.77,1.47,4.89-.86,4.4,6.36,3.18-2.2-2.08-4.65,1.1-3.3,8.07,2.08,5.26-.49,7.34,3.55,3.55,3.18,6.24,5.38,6.73,6.73-.24,4.04,1.71,1.59-.61-4.65,6.97,.98,5.87,5.5Zm-115.8,82.3l-2.57-6.97-1.1-4.16,.12-4.04-.86-4.04-.61-2.81-1.1,.61,.98,1.96-2.32,1.96-.24,5.75,1.47,4.04-.12,5.26-.61,2.93,.24,4.16-.24,3.67,.49,3.06,1.71-2.81,1.96,2.2,.12-2.57-2.45-3.79,1.59-5.5,3.55,1.1Zm-311.83-25.07l-2.69-.73-3.55,1.47-.61,1.96,3.18,.49,4.65-.12-.24-1.1,.24-1.22-.98-.73Zm401.95-90.98l3.3-.49,2.57-1.83,.24-1.1-3.67-2.32h-2.2l-.37,.37-3.3,3.3,.49,2.45,2.94-.37Zm-99.91-24.58l-2.45,3.55,.49,.49,5.26,.98,3.91-.12-.37-2.32-3.67-3.42-3.18,.86Zm22.38-8.68l2.93-3.91-6.36-2.57-4.77-1.47-.61,3.3,4.77,3.91,4.04,.73Zm-22.87-1.59l9.42,.24,1.96-7.46-9.17-5.5-6.73-.49-3.3,1.96-1.35,7.09,5.01,6.36,4.16-2.2Zm-224.64,23.6l-2.57,1.83,.37,4.4,4.65,2.08,.73,3.42,8.32,.98,1.47-.73-4.89-6.48-.49-6.85,4.04-8.32,3.79-8.93,7.95-9.29,7.83-4.89,9.05-5.26,1.71-3.42-1.71-4.4-5.01,1.47-4.4,4.04-8.44,2.08-8.44,6.73-5.75,5.26,.73,4.4-6.11,8.19,2.32,1.1-5.01,7.46-.12,5.14Zm134.02-61.75l.73-5.26-6.48-7.58-1.96-.86-2.08,1.59-4.65,16.88,14.43-4.77Zm-149.19-26.66l2.81,3.55,2.93-2.45,.37-2.45,2.32-1.1,3.42-2.08,.98-2.45-3.79-3.55-2.45,2.69-1.47,3.79-.49-4.28-3.91,.24-5.01,2.81,5.63,.49-1.35,4.77Zm119.23,11.86l4.28,5.26,7.09,3.79,5.5-1.59,.61-12.35-5.87-14.55-4.89-8.19-5.5,3.79-6.6,10.76,3.42,2.93,1.96,10.15Z"/><path class="cls-12" d="M631.64,292.75l1.1-.86,1.59,.37h1.59l1.22,.98,.86-.61,1.83-.37,.61-.86h1.1l.73,.37,.73,1.1,.86,1.59,1.47,2.2,.12,1.59-.24,1.59,.49,1.71,1.1,.61,1.22-.61,1.1,.61v.98l-1.22,.73-.73-.37-.73,4.28-1.47-.37-1.83-1.22-3.06,.86-1.22,.86-3.79-.24-1.96-.49-.98,.24-.73-1.47-.49-.61,.61-.61-.61-.49-.86,.86-1.35-.86-.24-1.47-1.59-.86-.24-1.1-1.35-1.47,2.08-.73,1.59-2.57,1.22-2.57,1.47-.73Z"/><path class="cls-12" d="M754.53,312.93l-1.47,.61-3.3,2.32-1.1,2.45h-.98l-.73-1.59-3.18-.12-.49-2.81h-1.22l.24-3.42-3.06-2.57-4.4,.24-2.93,.49-2.45-3.18-2.08-1.35-3.91-2.57-.49-.37-6.6,2.08,.12,12.84-1.35,.12-1.83-2.69-1.71-.98-2.93,.73-1.1,1.1-.12-.86,.61-1.47-.49-1.22-2.93-1.22-1.1-3.18-1.47-.86-.12-1.1,2.45,.37,.12-2.57,2.2-.61,2.2,.49,.49-3.55-.49-2.32-2.57,.12-2.2-.86-2.93,1.59-2.32,.73-1.35-.61,.24-1.96-1.59-2.57-1.83,.12-2.2-2.57,1.47-2.93-.73-.73,2.08-4.28,2.57,2.32,.37-2.93,5.26-4.4,4.04-.12,5.63,2.81,3.06,1.59,2.69-1.71,4.04-.12,3.3,2.08,.73-1.22,3.55,.12,.61-1.96-4.16-2.81,2.45-2.08-.49-1.1,2.45-1.1-1.83-2.93,1.22-1.47,9.54-1.47,1.22-1.1,6.36-1.59,2.32-1.83,4.52,.98,.86,4.52,2.69-1.1,3.3,1.47-.24,2.32,2.45-.24,6.36-4.04-.98,1.35,3.3,3.3,5.75,10.52,1.35-2.08,3.55,2.32,3.67-.98,1.22,1.47,1.22,2.32,1.83,.73,1.1,1.71,3.3-.49,1.35,2.45-1.96,2.57-2.08,.37-.12,3.79-1.47,1.71-5.01-1.22-1.83,6.6-1.35,.86-5.01,1.47,2.32,6.11-1.71,.86,.24,1.96-1.59-.49-1.22-1.22-3.79-.37-4.28-.12-.98,.37-3.67-1.47-1.47,.73-.37,2.08-4.16-1.22-1.71,.49-.73,1.35Z"/><path class="cls-12" d="M841.85,394.86l.86-1.22,.12-2.2-2.08-2.32-.12-2.57-1.96-2.2-1.96-.12-.49,.98-1.47,.12-.73-.49-2.69,1.59v-2.45l.61-2.81-1.71-.12-.12-1.59-1.1-.86,.49-.98,2.2-1.71,.24,.61,1.35,.12-.37-3.18,1.35-.37,1.47,2.2,1.1,2.45h3.18l.98,2.32-1.59,.73-.73,.98,3.06,1.59,2.08,3.18,1.59,2.32,1.96,1.83,.61,1.83-.49,2.57-2.2-.98-1.1,1.83-2.32-1.1Z"/><path class="cls-12" d="M743.28,329.19l.12-1.96-3.42-1.35-2.69-1.59-1.71-1.59-2.93-2.32-1.22-3.42-.86-.61-2.81,.12-.98-.73-.24-2.69-3.42-1.83-2.2,1.96-2.2,1.22,.37,1.71h-2.93l-.12-12.84,6.6-2.08,.49,.37,3.91,2.57,2.08,1.35,2.45,3.18,2.93-.49,4.4-.24,3.06,2.57-.24,3.42h1.22l.49,2.81,3.18,.12,.73,1.59h.98l1.1-2.45,3.3-2.32,1.47-.61,.73,.37-2.08,2.2,1.83,1.22,1.83-.86,3.06,1.83-3.3,2.45-1.96-.37-1.1,.12-.37-.98,.49-1.59-3.42,.73-.86,2.08-1.22,1.83-2.08-.12-.61,1.47,1.83,.73,.61,2.45-1.47,3.3-1.96-.73h-.86Z"/><path class="cls-12" d="M391.96,401.34l-.12,.61-1.47,.24,.86,1.22v1.35l-1.1,1.47,.98,2.08,1.1-.12,.61-1.83-.73-.86-.12-1.96,3.18-1.1-.37-1.22,.86-.86,.86,1.83h1.83l1.71,1.47,.12,.86h2.32l2.69-.24,1.47,1.1,1.96,.37,1.47-.86v-.61l3.18-.12h3.06l-2.2,.73,.86,1.22,2.08,.24,1.96,1.22,.37,2.08h1.35l.98,.61-2.08,1.47-.24,.98,.86,.98-.61,.49-1.59,.37v1.22l-.73,.73,1.71,1.96,.37,.73-.98,.98-2.81,.98-1.83,.37-.73,.61-2.08-.61-1.83-.37-.49,.24,1.1,.61-.12,1.71,.37,1.59,2.2,.24,.12,.49-1.83,.73-.24,1.1-1.1,.37-1.83,.61-.49,.73-1.96,.12-1.35-1.35-.73-2.57-.73-.86-.98-.61,1.35-1.22-.12-.61-.73-.73-.49-1.71,.24-1.83,.61-.86,.49-1.35-.86-.49-1.47,.24-1.83-.12-.98,.24-1.83-2.2-1.47-.37-3.3,.24-.61-.86-.61-.24-.12-.49,.24-.98-.24-.98-.61-.61-.37-1.22-1.35-.12,.73-1.47,.37-1.83,.73-.98,.98-.73,.61-1.35,1.59-.37Z"/><path class="cls-12" d="M754.66,319.78l-.98,.98-2.81-.61-.24,1.96,2.81-.24,3.18,1.1,4.77-.49,.61,3.06,.86-.37,1.59,.73-.12,1.22,.37,1.83h-2.57l-1.71-.24-1.59,1.47-1.1,.37-.86,.61-.98-.98,.24-2.69-.73-.12,.24-.98-1.35-.73-1.1,1.1-.24,1.35-.37,.49-1.47-.12-.86,1.47-.86-.61-1.83,.98-.73-.37,1.47-3.3-.61-2.45-1.83-.73,.61-1.47,2.08,.12,1.22-1.83,.86-2.08,3.42-.73-.49,1.59,.37,.98,.73-.24Z"/><path class="cls-12" d="M729.71,334.57l2.57,1.22,1.96-.37,.49-1.47,1.96-.49,1.47-.98,.49-2.57,2.2-.61,.37-1.1,1.22,.86,.73,.12h1.47l1.96,.73,.73,.37,1.83-.98,.86,.61,.86-1.47,1.47,.12,.37-.49,.24-1.35,1.1-1.1,1.35,.73-.24,.98,.73,.12-.24,2.69,.98,.98,.86-.61,1.1-.37,1.59-1.47,1.71,.24h2.57l.49,.86-1.47,.37-1.35,.61-2.93,.37-2.69,.61-1.47,1.35,.61,1.35,.24,1.59-1.22,1.35,.12,1.22-.73,1.1-2.45-.12,.98,1.96-1.59,.73-1.1,1.83,.12,1.83-.98,.86-.98-.24-1.96,.37-.24,.86h-1.96l-1.47,1.71-.12,2.45-3.3,1.22-1.83-.24-.49,.61-1.47-.37-2.57,.49-4.28-1.47,2.32-2.69-.24-1.96-1.47-.49-.24-1.83-.86-2.45,1.1-1.71-1.1-.49,.73-2.2,1.1-3.79Z"/><path class="cls-12" d="M765.3,329.93l1.83,1.47,.73,2.45,4.16,1.22-2.45,2.57-2.81,.49-3.91-.73-1.22,1.35,.86,2.69,.86,2.08,2.08,1.47-2.2,1.71v2.08l-2.45,2.93-1.59,2.93-2.69,3.06-2.93-.24-2.81,2.93,1.71,1.22,.24,2.2,1.47,1.47,.49,2.45h-5.63l-1.71,1.83-1.83-.73-.73-1.96-1.96-2.08-4.65,.49h-4.16l-3.55,.37,.98-3.3,3.67-1.47-.24-1.35-1.22-.49-.12-2.57-2.45-1.22-.98-1.71-1.22-1.59,4.28,1.47,2.57-.49,1.47,.37,.49-.61,1.83,.24,3.3-1.22,.12-2.45,1.47-1.71h1.96l.24-.86,1.96-.37,.98,.24,.98-.86-.12-1.83,1.1-1.83,1.59-.73-.98-1.96,2.45,.12,.73-1.1-.12-1.22,1.22-1.35-.24-1.59-.61-1.35,1.47-1.35,2.69-.61,2.93-.37,1.35-.61h1.35Z"/><path class="cls-12" d="M631.64,266.58l-.24-1.1,.24-1.22-1.1-.73-2.69-.73-.49-3.79,2.93-1.35,4.28,.24,2.45-.49,.37,.98,1.35,.24,2.45,2.2,.24,1.96-2.08,1.47-.61,2.45-2.81,1.59h-2.45l-.61-1.35-1.22-.37Z"/><path class="cls-10" d="M772.14,335.06l2.69,3.67-.24,2.45,.98,1.59-.12,1.59-1.83-.37,.73,3.3,2.45,1.83,3.55,2.08-1.59,1.35-.98,2.69,2.45,1.1,2.45,1.47,3.3,1.59,3.55,.37,1.47,1.47,1.96,.24,3.06,.61h2.08l.24-1.1-.37-1.83,.24-1.22,1.59-.61,.24,2.2v.61l2.32,1.1,1.59-.49,2.2,.24,2.08-.12,.12-1.71-.98-.86,2.08-.37,2.32-2.2,2.93-1.83,2.08,.73,1.83-1.22,1.22,1.83-.86,1.22,2.69,.49,.24,1.1-.86,.49,.24,1.71-1.83-.49-3.3,1.96,.12,1.59-1.35,2.32-.12,1.35-1.1,2.32-1.96-.61-.12,2.81-.61,.98,.24,1.22-1.22,.61-1.35-4.4h-.73l-.37,1.71-1.35-1.47,.73-1.59,1.1-.12,1.22-2.32-1.47-.49h-2.32l-2.45-.37-.24-1.96-1.22-.12-2.08-1.22-.86,1.96,1.83,1.47-1.59,1.1-.61,.98,1.59,.73-.49,1.71,.86,2.08,.37,2.2-.37,.98h-1.71l-3.18,.61,.12,2.08-1.35,1.59-3.67,1.83-2.81,3.18-1.96,1.71-2.57,1.71v1.22l-1.22,.61-2.32,.98-1.22,.12-.73,1.96,.49,3.42,.12,2.2-1.1,2.45v4.4l-1.35,.12-1.1,1.96,.73,.86-2.32,.73-.86,1.71-.98,.73-2.45-2.45-1.22-3.55-.98-2.57-.86-1.22-1.35-2.45-.61-3.3-.49-1.59-2.32-3.55-1.1-5.14-.73-3.42v-3.3l-.49-2.57-3.67,1.59-1.83-.37-3.3-3.3,1.22-.98-.73-1.1-2.93-2.32,1.71-1.83h5.63l-.49-2.45-1.47-1.47-.24-2.2-1.71-1.22,2.81-2.93,2.93,.24,2.69-3.06,1.59-2.93,2.45-2.93v-2.08l2.2-1.71-2.08-1.47-.86-2.08-.86-2.69,1.22-1.35,3.91,.73,2.81-.49,2.45-2.81Z"/><path class="cls-10" d="M381.56,431.79l-1.1-.61-1.22-.86-.73,.37-2.2-.37-.61-1.1h-.49l-2.57-1.47-.37-.73,.98-.24-.12-1.22,.61-.98,1.22-.12,1.1-1.59,.98-1.35-.98-.61,.49-1.47-.61-2.32,.49-.61-.37-2.2-.98-1.35,.37-1.22,.86,.12,.49-.73-.61-1.47,.37-.37,1.35,.12,1.96-1.83,1.1-.24v-.86l.49-2.2,1.47-1.22h1.59l.24-.49,1.96,.24,1.96-1.35,.98-.61,1.22-1.22,.86,.12,.61,.73-.49,.86-1.59,.49-.61,1.35-.98,.73-.73,.98-.37,1.83-.73,1.47,1.35,.12,.37,1.22,.61,.61,.24,.98-.24,.98,.12,.49,.61,.24,.61,.86,3.3-.24,1.47,.37,1.83,2.2,.98-.24,1.83,.12,1.47-.24,.86,.49-.49,1.35-.61,.86-.24,1.83,.49,1.71,.73,.73,.12,.61-1.35,1.22,.98,.61,.73,.86,.73,2.57-.49,.37-.49-1.47-.73-.86-.86,.86h-5.01v1.59l1.47,.24-.12,.98-.49-.24-1.47,.37v1.83l1.1,.98,.37,1.47v1.1l-1.1,6.97-1.22-1.35h-.73l1.59-2.57-1.96-1.22-1.59,.24-.98-.49-1.35,.61-1.96-.37-1.47-2.69-1.22-.61-.86-1.22-1.71-1.22h-.49Z"/></g></g><polygon class="cls-6" points="174.8 379.3 179.9 378.3 179.9 383.2 175.7 383.2 176.6 381.5 174.8 379.3"/><polygon class="cls-6" points="876.4 435 882.2 431.3 884.3 436.2 888.9 436.9 891.2 439 889.6 438.7 888.3 437.5 887.2 437.7 888.5 439.7 889.2 442 888.1 441.5 887.1 444.4 884.3 443.3 884.7 441.9 884.8 440.3 882.5 437.7 881.2 437.4 880.8 439.8 880 441.7 876.4 441.1 877.4 439.8 878 438.3 876.7 437.1 876.4 435"/><path class="cls-9" d="M817.2,418.7l4.1,.8s2.6,2.6,3.1,3.8,2.5,2.4,2.5,2.4h3.1l.7,2.4,2.8,2.1,.7,3.1h-1.7l1.7,2.6,2.5,2.2,2.1-1.3,1.8,2.3s-2.5,3.4-1.9,5.1c.6,1.6-1.9,4-1.9,4h-2.8l-1.4-3.7-4.5-2-.3-2.5-6-8.7-.3-4.6-4.3-3.4-1-3.1,1-1.5Z"/><path class="cls-13" d="M30.9,654.9h0c0-13.4,10.9-24.3,24.3-24.3H333.1c13.4,0,24.3,10.9,24.3,24.3h0c0,13.4-10.9,24.3-24.3,24.3H55.2c-13.5,0-24.3-10.9-24.3-24.3Z"/><rect class="cls-1" x="53.3" y="690.9" width="56.3" height="20.8"/><text class="cls-4" transform="translate(53.34 701.79)"><tspan x="0" y="0">Suave</tspan></text><rect class="cls-1" x="166" y="692.2" width="56.3" height="20.8"/><text class="cls-3" transform="translate(173.72 703.05)"><tspan x="0" y="0">Leve</tspan></text><rect class="cls-1" x="285.6" y="692.8" width="64.4" height="20.8"/><text class="cls-2" transform="translate(297.45 703.69)"><tspan x="0" y="0">Alto</tspan></text><rect class="cls-1" x="53.3" y="600.5" width="301.3" height="20.8"/><text class="cls-5" transform="translate(53.34 612.63)"><tspan x="0" y="0">Nivel de acidez en cafes </tspan></text></g></svg>